<svg id="Icons" height="512" viewBox="0 0 60 60" width="512" xmlns="http://www.w3.org/2000/svg"><path d="m38.5 51h-25.5a12 12 0 0 1 -12-12v-26a12 12 0 0 1 12-12h26a12 12 0 0 1 12 12v25.5z" fill="#754dce"/><path d="m35.4 41.1a3.982 3.982 0 0 1 -3.4 1.9h-11a4 4 0 0 1 -4-4v-24h-1a1 1 0 0 1 -1-1v-4a1 1 0 0 1 1-1h10a1 1 0 0 1 1 1v4a1 1 0 0 1 -1 1h-1v20a1 1 0 0 0 1 1h3a1 1 0 0 0 1-1v-3a1 1 0 0 1 1-1h4a1 1 0 0 1 1 1v2.02z" fill="#fff"/><path d="m53.76 48.038-.535-7.459a2.11 2.11 0 0 0 -1.471-1.837l-14.774-4.642a2.289 2.289 0 0 0 -2.293.587 2.289 2.289 0 0 0 -.587 2.293l4.642 14.774a2.11 2.11 0 0 0 1.837 1.471l7.459.535.962.24 5-5z" fill="#f7bb26"/><path d="m47 47a2.694 2.694 0 1 1 0-3.81 2.68 2.68 0 0 1 0 3.81z" fill="#bf8e22"/><path d="m59 51.068v5.932a2 2 0 0 1 -2 2h-5.932a2 2 0 0 1 -1.414-.586l-1.72-1.72a2 2 0 0 1 0-2.828l5.932-5.932a2 2 0 0 1 2.828 0l1.72 1.72a2 2 0 0 1 .586 1.414z" fill="#447"/><path d="m57.4 47.228a3.045 3.045 0 0 0 -2.752-.782l-.428-5.956a3.115 3.115 0 0 0 -2.167-2.7l-.053-.019v-24.771a13.015 13.015 0 0 0 -13-13h-26a13.015 13.015 0 0 0 -13 13v26a13.015 13.015 0 0 0 13 13h24.771l.017.054a3.12 3.12 0 0 0 2.72 2.168l5.911.425a3.024 3.024 0 0 0 -.07.633 2.978 2.978 0 0 0 .879 2.121l1.719 1.72a2.981 2.981 0 0 0 2.121.879h1.932a1 1 0 0 0 0-2h-1.932a1.007 1.007 0 0 1 -.707-.293l-1.719-1.72a1 1 0 0 1 0-1.414l5.932-5.931a1.022 1.022 0 0 1 1.413 0l1.72 1.719a1.007 1.007 0 0 1 .293.707v5.932a1 1 0 0 1 -1 1 1 1 0 0 0 0 2 3 3 0 0 0 3-3v-5.932a2.981 2.981 0 0 0 -.879-2.121zm-44.4 2.772a11.013 11.013 0 0 1 -11-11v-26a11.013 11.013 0 0 1 11-11h26a11.013 11.013 0 0 1 11 11v24.143l-12.72-4c-.092-.03-.186-.047-.28-.068v-1.075a2 2 0 0 0 -2-2h-4a2 2 0 0 0 -2 2v3h-3v-19a2 2 0 0 0 2-2v-4a2 2 0 0 0 -2-2h-10a2 2 0 0 0 -2 2v4a2 2 0 0 0 2 2v23a5.006 5.006 0 0 0 5 5h11a4.972 4.972 0 0 0 2.955-.963l2.188 6.963zm4-36h-1v-4h10v4h-1a1 1 0 0 0 -1 1v20a2 2 0 0 0 2 2h3a2 2 0 0 0 2-2v-3h4v1.285a3.371 3.371 0 0 0 -1.019.694 3.273 3.273 0 0 0 -.835 3.3l1.138 3.621a2.947 2.947 0 0 1 -2.284 1.1h-11a3 3 0 0 1 -3-3v-24a1 1 0 0 0 -1-1zm30.655 38.731-6.987-.5a1.1 1.1 0 0 1 -.972-.775l-4.642-14.775a1.141 1.141 0 0 1 -.04-.253l6.871 6.872a3.69 3.69 0 1 0 5.822-.816 3.792 3.792 0 0 0 -4.4-.589l-6.88-6.88a1.141 1.141 0 0 1 .253.04l14.774 4.645a1.1 1.1 0 0 1 .774.954l.5 7.006zm-2.555-9.331a1.689 1.689 0 0 1 1.2 2.888l-.007.007a1.72 1.72 0 0 1 -2.392 0 1.693 1.693 0 0 1 1.199-2.895z" fill="#262626"/></svg>