<svg id="Icons" height="512" viewBox="0 0 60 60" width="512" xmlns="http://www.w3.org/2000/svg"><path d="m38.5 51h-25.5a12 12 0 0 1 -12-12v-26a12 12 0 0 1 12-12h26a12 12 0 0 1 12 12v25.5z" fill="#754dce"/><path d="m35.4 41.1a3.982 3.982 0 0 1 -3.4 1.9h-11a4 4 0 0 1 -4-4v-24h-1a1 1 0 0 1 -1-1v-4a1 1 0 0 1 1-1h10a1 1 0 0 1 1 1v4a1 1 0 0 1 -1 1h-1v20a1 1 0 0 0 1 1h3a1 1 0 0 0 1-1v-3a1 1 0 0 1 1-1h4a1 1 0 0 1 1 1v2.02z" fill="#fff"/><path d="m53.76 48.038-.535-7.459a2.11 2.11 0 0 0 -1.471-1.837l-14.774-4.642a2.289 2.289 0 0 0 -2.293.587 2.289 2.289 0 0 0 -.587 2.293l4.642 14.774a2.11 2.11 0 0 0 1.837 1.471l7.459.535.962.24 5-5z" fill="#f7bb26"/><path d="m47 47a2.694 2.694 0 1 1 0-3.81 2.68 2.68 0 0 1 0 3.81z" fill="#bf8e22"/><path d="m59 51.068v5.932a2 2 0 0 1 -2 2h-5.932a2 2 0 0 1 -1.414-.586l-1.72-1.72a2 2 0 0 1 0-2.828l5.932-5.932a2 2 0 0 1 2.828 0l1.72 1.72a2 2 0 0 1 .586 1.414z" fill="#2a2a49"/><path d="m44.71 43.29-1.42 1.42-9.15-9.15a2.341 2.341 0 0 1 1.42-1.42z" fill="#bf8e22"/></svg>