<svg id="Capa_1" enable-background="new 0 0 512 512" height="512" viewBox="0 0 512 512" width="512" xmlns="http://www.w3.org/2000/svg"><path d="m135.758 456.403v40.081c0 4.427 3.589 8.016 8.016 8.016h224.452c4.427 0 8.016-3.589 8.016-8.016v-40.081z" fill="#f9eac7"/><path d="m143.774 504.5h56.113v-48.097h-64.129v40.081c0 4.427 3.589 8.016 8.016 8.016z" fill="#f4dbb3"/><path d="m388.689 16.362c-2.716-5.431-8.267-8.862-14.34-8.862h-236.698c-6.073 0-11.624 3.431-14.34 8.862l-19.617 39.235h304.613z" fill="#b57f5f"/><path d="m103.694 87.661 15.392 369.409c.358 8.587 7.423 15.365 16.018 15.365h241.792c8.595 0 15.66-6.778 16.018-15.365l15.392-369.409z" fill="#f4dbb3"/><path d="m215.919 111.71h191.719l.668-24.048h-304.612l15.392 369.41c.358 8.587 7.423 15.365 16.018 15.365h64.783v-56.113c0-8.854 7.178-16.032 16.032-16.032h179.396l.967-24.048-196.395-96.194v-152.308c0-8.854 7.178-16.032 16.032-16.032z" fill="#eac89f"/><path d="m411.987 183.855h-311.974c-4.558 0-8.199 3.796-8.009 8.35l7.349 176.355c.179 4.294 3.712 7.682 8.009 7.682h297.277c4.298 0 7.831-3.389 8.009-7.682l7.348-176.355c.19-4.554-3.451-8.35-8.009-8.35z" fill="#b57f5f"/><ellipse cx="300.694" cy="299.484" fill="#785353" rx="46.69" ry="40.02" transform="matrix(.707 -.707 .707 .707 -123.696 300.339)"/><path d="m333.709 266.469c-15.629-15.629-43.08-13.517-61.313 4.717-15.742 15.742-19.398 38.322-10.064 54.266l76.277-52.777c-1.38-2.215-2.998-4.304-4.9-6.206z" fill="#6e4848"/><path d="m199.887 328.145v-144.29h-99.874c-4.558 0-8.199 3.796-8.009 8.35l7.349 176.355c.179 4.294 3.712 7.682 8.009 7.682h297.277c4.297 0 7.83-3.389 8.009-7.683l.348-8.35.34-8.016h-189.401c-13.281.001-24.048-10.766-24.048-24.048z" fill="#966a5b"/><path d="m416.323 87.661h-320.646c-4.427 0-8.016-3.589-8.016-8.016v-16.032c0-4.427 3.589-8.016 8.016-8.016h320.645c4.427 0 8.016 3.589 8.016 8.016v16.032c.001 4.427-3.588 8.016-8.015 8.016z" fill="#966a5b"/><ellipse cx="219.773" cy="268.179" fill="#785353" rx="48.097" ry="56.113" transform="matrix(.707 -.707 .707 .707 -125.261 233.951)"/><path d="m180.095 228.501c-18.783 18.783-16.245 51.774 5.668 73.687 20.119 20.119 49.546 23.852 68.771 9.802l-65.515-90.218c-3.21 1.825-6.226 4.031-8.924 6.729z" fill="#6e4848"/><path d="m95.677 87.661h80.161v-32.064h-80.161c-4.427 0-8.016 3.589-8.016 8.016v16.032c0 4.427 3.589 8.016 8.016 8.016z" fill="#785353"/><path d="m396.282 31.548h-204.411c-8.854 0-16.032-7.178-16.032-16.032v-8.016h-38.188c-6.073 0-11.624 3.431-14.339 8.862l-19.618 39.235h304.613z" fill="#966a5b"/><path d="m416.323 95.161c8.556 0 15.516-6.96 15.516-15.516v-16.032c0-8.556-6.96-15.516-15.516-15.516h-3.381l-17.544-35.089c-4.012-8.024-12.078-13.008-21.048-13.008h-236.7c-8.971 0-17.036 4.984-21.048 13.008l-17.544 35.089h-3.381c-8.556 0-15.516 6.96-15.516 15.516v16.033c0 8.556 6.96 15.516 15.516 15.516h.822l3.384 81.2c-4.159.036-8.186 1.765-11.067 4.769-2.911 3.035-4.48 7.185-4.306 11.387l7.349 176.355c.348 8.338 7.158 14.87 15.503 14.87h1.162l3.068 73.641c.428 10.268 7.316 18.728 16.667 21.548v17.553c0 8.556 6.96 15.516 15.516 15.516h224.451c8.556 0 15.516-6.96 15.516-15.516v-17.553c9.35-2.82 16.238-11.281 16.667-21.548l3.068-73.641h1.163c8.345 0 15.155-6.532 15.503-14.87l7.348-176.355c.175-4.202-1.395-8.352-4.306-11.387-2.881-3.003-6.908-4.733-11.067-4.769l3.383-81.2h.822zm-321.162-15.515v-16.033c0-.285.231-.516.516-.516h248.498c4.142 0 7.5-3.358 7.5-7.5s-3.358-7.5-7.5-7.5h-228.347l14.19-28.38c1.455-2.909 4.379-4.717 7.632-4.717h236.7c3.253 0 6.177 1.808 7.632 4.716l14.19 28.38h-19.932c-4.142 0-7.5 3.358-7.5 7.5s3.358 7.5 7.5 7.5h40.083c.285 0 .516.231.516.516v16.033c0 .284-.231.516-.516.516h-320.646c-.284 0-.516-.231-.516-.515zm273.065 417.354h-224.452c-.285 0-.516-.231-.516-.516v-16.548h225.483v16.548c.001.285-.231.516-.515.516zm44.277-305.107-7.348 176.354c-.011.277-.238.495-.516.495h-236.816c-4.142 0-7.5 3.357-7.5 7.5 0 4.142 3.358 7.5 7.5 7.5h220.64l-3.042 73.016c-.191 4.585-3.936 8.177-8.525 8.177h-241.792c-4.589 0-8.334-3.592-8.525-8.177l-3.042-73.016h12.219c4.142 0 7.5-3.358 7.5-7.5 0-4.143-3.358-7.5-7.5-7.5h-28.395c-.278 0-.504-.218-.516-.495l-7.349-176.354c-.002-.054-.009-.22.143-.379.153-.159.318-.159.373-.159h304.021c.09.003.181.006.27.006.039 0 .076-.005.114-.006h7.569c.054 0 .22 0 .373.159s.146.324.144.379zm-15.399-15.539h-282.208l-3.383-81.193h288.975z"/><path d="m303.282 250.558c-4.118.446-7.094 4.146-6.647 8.265.446 4.118 4.15 7.094 8.265 6.648 8.822-.958 16.826 1.39 22.725 6.623-12.28 11.752-20.452 16.304-29.056 21.083-8.547 4.748-17.348 9.639-29.759 21.111-.404-1.505-.689-3.066-.859-4.677 18.137-22.068 14.637-57.242-8.864-80.744-24.802-24.803-62.617-27.346-84.294-5.668-21.677 21.677-19.134 59.491 5.668 84.294 11.863 11.863 27.044 19.062 42.746 20.27 1.57.121 3.125.181 4.667.181 9.931 0 19.212-2.495 27.181-7.237 2.043 6.125 5.409 11.611 9.991 16.194 8.224 8.223 19.229 12.259 30.716 12.259 13.633-.001 27.943-5.688 39.065-16.811 9.776-9.776 15.709-22.297 16.706-35.258 1.031-13.395-3.286-25.655-12.154-34.523-9.131-9.13-22.281-13.507-36.097-12.01zm-54.803-11.085c18.931 18.931 21.488 47.181 5.725 63.021-15.807-16.246-21.681-26.809-27.875-37.957-6.127-11.028-12.448-22.4-28.038-38.845 4.238-1.518 8.788-2.278 13.465-2.278 12.62 0 26.132 5.468 36.723 16.059zm-24.123 73.333c-12.134-.934-23.957-6.587-33.29-15.92-18.931-18.931-21.489-47.182-5.725-63.021 15.807 16.246 21.682 26.81 27.875 37.957 6.127 11.028 12.449 22.401 28.041 38.848-5.161 1.849-10.881 2.597-16.901 2.136zm99.862 8.934c-14.194 14.195-35.099 16.549-47.421 5.631 12.28-11.751 20.452-16.303 29.055-21.083 8.551-4.75 17.357-9.644 29.778-21.128 3.165 11.702-.835 26.003-11.412 36.58z"/></svg>