<svg id="Capa_1" enable-background="new 0 0 510.003 510.003" viewBox="0 0 510.003 510.003" xmlns="http://www.w3.org/2000/svg"><g><g><g><g><g><g><path d="m10 10.001h402v434h-402z" fill="#fff"/><path d="m10 10.001h402v434h-402z" fill="#fff"/><path d="m156.829 187.891c0-65.27 18.509-126.209 50.538-177.89h-197.367v434h264.16c-71.85-62.016-117.331-153.75-117.331-256.11z" fill="#d2dcfd"/><path d="m10 10.001h402v88h-243.07l-60.246-11.359-98.684 11.359z" fill="#bc9af4"/><path d="m207.367 10.001h-197.367v88h158.93c8.636-31.399 21.683-60.966 38.437-88z" fill="#6864f7"/></g></g></g></g><g><path d="m439.17 176.251 60.83 16.3-74.359 277.51-40.621 29.94-20.209-46.239z" fill="#fdcb50"/><path d="m433.201 180.832h57.807v62.976h-57.807z" fill="#67ccd1" transform="matrix(.259 -.966 .966 .259 137.418 603.726)"/></g><g><circle cx="211" cy="228.246" fill="#fd7da0" r="80.998"/><circle cx="161.638" cy="313.743" fill="#fdcb50" r="80.998"/><circle cx="260.362" cy="313.743" fill="#b1d952" r="80.998"/></g></g><g><g fill="#052a75"><path d="m502.588 182.891-60.83-16.299c-2.562-.685-5.291-.328-7.588.999-2.297 1.326-3.973 3.51-4.659 6.072l-7.511 28.031v-191.693c0-5.523-4.478-10-10-10h-402c-5.522 0-10 4.477-10 10v434c0 5.523 4.478 10 10 10h344.823c.031 1.288.302 2.568.826 3.766l20.209 46.239c1.218 2.787 3.638 4.867 6.575 5.654.853.229 1.723.341 2.587.341 2.113 0 4.197-.67 5.934-1.95l40.622-29.94c1.825-1.346 3.139-3.271 3.726-5.461l74.358-277.511c1.429-5.335-1.737-10.818-7.072-12.248zm-482.588-162.89h382v256.334l-42.246 157.666h-339.754zm396.889 444.089-27.721 20.432-13.791-31.554 70.864-264.468 41.512 11.123z"/><path d="m348.259 290.191c-6.291-23.479-21.349-43.102-42.398-55.255-1.312-.757-2.637-1.48-3.975-2.168.074-1.499.113-3.006.113-4.523 0-50.176-40.821-90.998-90.998-90.998s-90.998 40.822-90.998 90.998c0 1.516.039 3.024.113 4.522-1.338.688-2.663 1.41-3.975 2.168-21.05 12.153-36.107 31.776-42.398 55.255-6.291 23.478-3.062 48.001 9.091 69.051 16.836 29.161 47.485 45.481 78.96 45.481 15.427 0 31.053-3.921 45.346-12.173 1.314-.759 2.601-1.547 3.862-2.36 1.262.814 2.548 1.602 3.862 2.36 14.296 8.253 29.916 12.173 45.346 12.173 31.472 0 62.125-16.323 78.96-45.481 12.151-21.049 15.38-45.572 9.089-69.05zm-137.259 74.58c-13.243-12.813-20.77-30.173-21.537-48.108 6.908 1.683 14.119 2.582 21.537 2.582s14.63-.899 21.537-2.582c-.767 17.934-8.294 35.294-21.537 48.108zm-37.978-76.584c-15.154-9.636-26.428-24.843-30.899-42.727 6.316-1.817 12.833-2.745 19.399-2.745 6.166 0 12.376.812 18.491 2.45 5.112 1.37 9.978 3.29 14.56 5.678-4.955 5.202-9.335 11.021-13.018 17.402-3.709 6.423-6.536 13.118-8.533 19.942zm37.978 11.057c-6.761 0-13.296-.97-19.496-2.744 1.564-6.256 3.991-12.401 7.372-18.256 3.351-5.804 7.442-11.009 12.124-15.55 4.682 4.541 8.773 9.746 12.124 15.55 3.381 5.856 5.808 12 7.372 18.256-6.2 1.774-12.735 2.744-19.496 2.744zm29.444-31c-3.683-6.38-8.063-12.2-13.018-17.402 4.582-2.388 9.448-4.308 14.56-5.678 12.626-3.384 25.642-3.235 37.892.289-4.47 17.887-15.745 33.097-30.901 42.733-1.996-6.823-4.823-13.518-8.533-19.942zm-29.444-110.996c38.165 0 69.378 30.273 70.924 68.065-14.679-3.601-30.107-3.487-45.114.533-9.285 2.488-17.954 6.367-25.81 11.426-7.856-5.059-16.524-8.938-25.81-11.426-15.006-4.021-30.435-4.135-45.114-.534 1.546-37.792 32.759-68.064 70.924-68.064zm-49.242 227.479c-24.555-.002-48.471-12.735-61.605-35.485-9.482-16.423-12.001-35.557-7.093-53.875 4.656-17.377 15.475-32.037 30.593-41.593 7.061 24.12 23.86 44.123 45.836 55.436-1.191 24.691 7.734 49.242 25.095 67.418-10.448 5.48-21.699 8.1-32.826 8.099zm160.09-35.485c-19.086 33.057-60.921 44.95-94.425 27.38 17.357-18.175 26.28-42.724 25.089-67.411 21.976-11.313 38.775-31.316 45.836-55.436 15.118 9.556 25.937 24.216 30.593 41.593 4.908 18.317 2.389 37.451-7.093 53.874z"/></g><g fill="#fff"><path d="m362.948 44.001h-149.72c-5.522 0-10 4.477-10 10s4.478 10 10 10h149.721c5.522 0 10-4.477 10-10s-4.478-10-10.001-10z"/><circle cx="59.05" cy="54.002" r="10"/><circle cx="103.05" cy="54.002" r="10"/><circle cx="147.05" cy="54.002" r="10"/></g></g></g><g/><g/><g/><g/><g/><g/><g/><g/><g/><g/><g/><g/><g/><g/><g/></svg>