<svg id="Capa_1" enable-background="new 0 0 512 512" height="512" viewBox="0 0 512 512" width="512" xmlns="http://www.w3.org/2000/svg"><g><circle cx="256" cy="256" fill="#fe93d3" r="233.336"/><path d="m256 22.664c-5.194 0-10.343.188-15.453.522 121.662 7.957 217.884 109.14 217.884 232.814s-96.222 224.857-217.883 232.814c5.109.334 10.259.522 15.453.522 128.868 0 233.336-104.468 233.336-233.336s-104.469-233.336-233.337-233.336z" fill="#fe73c5"/><circle cx="256" cy="256" fill="#efedef" r="180.66"/><path d="m256 75.34c-5.206 0-10.357.234-15.453.668 92.409 7.866 165.207 85.582 165.207 179.992s-72.798 172.126-165.207 179.992c5.095.434 10.247.668 15.453.668 99.616 0 180.66-81.043 180.66-180.66s-81.044-180.66-180.66-180.66z" fill="#e5e1e5"/><g fill="#fe93d3"><path d="m139.768 281.742c-.015 0-.03 0-.044 0-5.435.03-11.271.052-15.71.056v-59.325c0-4.268-3.459-7.726-7.726-7.726s-7.726 3.459-7.726 7.726v66.995c0 3.761 2.708 6.975 6.413 7.614.554.096 17.215.155 24.836.113 4.267-.024 7.707-3.503 7.683-7.77-.025-4.252-3.479-7.683-7.726-7.683z"/><path d="m305.189 248.274h-20.058c-4.267 0-7.726 3.459-7.726 7.726s3.459 7.726 7.726 7.726h11.531c-2.026 9.468-8.092 18.073-20.414 18.073-14.226 0-25.799-11.573-25.799-25.8 0-14.226 11.573-25.8 25.799-25.8 5.17 0 10.156 1.522 14.42 4.402 3.536 2.387 8.34 1.459 10.727-2.077 2.389-3.535 1.459-8.338-2.077-10.727-6.827-4.613-14.805-7.05-23.069-7.05-22.746 0-41.252 18.506-41.252 41.253s18.506 41.253 41.252 41.253c21.589 0 36.668-16.964 36.668-41.253-.002-4.268-3.461-7.726-7.728-7.726z"/><path d="m185.725 214.747c-22.746 0-41.252 18.506-41.252 41.253s18.506 41.253 41.252 41.253 41.252-18.506 41.252-41.253-18.506-41.253-41.252-41.253zm0 67.053c-14.226 0-25.799-11.573-25.799-25.8 0-14.226 11.573-25.8 25.799-25.8s25.799 11.573 25.799 25.8c0 14.226-11.573 25.8-25.799 25.8z"/><path d="m362.187 214.747c-22.746 0-41.252 18.506-41.252 41.253s18.506 41.253 41.252 41.253 41.252-18.506 41.252-41.253-18.506-41.253-41.252-41.253zm0 67.053c-14.226 0-25.799-11.573-25.799-25.8 0-14.226 11.573-25.8 25.799-25.8s25.799 11.573 25.799 25.8c0 14.226-11.574 25.8-25.799 25.8z"/></g><g><g><path d="m489.336 30.39h-466.672c-4.267 0-7.726-3.459-7.726-7.726s3.459-7.726 7.726-7.726h466.672c4.267 0 7.726 3.459 7.726 7.726s-3.459 7.726-7.726 7.726z" fill="#efedef"/></g><g fill="#26a6fe"><path d="m0 22.664c0-12.517 10.147-22.664 22.664-22.664 12.517 0 22.664 10.147 22.664 22.664 0 12.517-10.147 22.664-22.664 22.664-12.517 0-22.664-10.147-22.664-22.664z"/><path d="m466.672 22.664c0-12.517 10.147-22.664 22.664-22.664 12.517 0 22.664 10.147 22.664 22.664 0 12.517-10.147 22.664-22.664 22.664-12.517 0-22.664-10.147-22.664-22.664z"/><path d="m233.336 40.177v-35.026c0-2.845 2.306-5.151 5.151-5.151h35.026c2.845 0 5.151 2.306 5.151 5.151v35.026c0 2.845-2.306 5.151-5.151 5.151h-35.026c-2.845 0-5.151-2.306-5.151-5.151z"/></g></g><g><g><path d="m489.336 497.062h-466.672c-4.267 0-7.726-3.459-7.726-7.726 0-4.268 3.459-7.726 7.726-7.726h466.672c4.267 0 7.726 3.459 7.726 7.726 0 4.268-3.459 7.726-7.726 7.726z" fill="#efedef"/></g><g fill="#26a6fe"><path d="m0 489.336c0-12.517 10.147-22.664 22.664-22.664 12.517 0 22.664 10.147 22.664 22.664 0 12.517-10.147 22.664-22.664 22.664-12.517 0-22.664-10.147-22.664-22.664z"/><path d="m466.672 489.336c0-12.517 10.147-22.664 22.664-22.664 12.517 0 22.664 10.147 22.664 22.664 0 12.517-10.147 22.664-22.664 22.664-12.517 0-22.664-10.147-22.664-22.664z"/><path d="m233.336 506.849v-35.026c0-2.845 2.306-5.151 5.151-5.151h35.026c2.845 0 5.151 2.306 5.151 5.151v35.026c0 2.845-2.306 5.151-5.151 5.151h-35.026c-2.845 0-5.151-2.306-5.151-5.151z"/></g></g></g></svg>