<svg height="512" viewBox="0 0 128 128" width="512" xmlns="http://www.w3.org/2000/svg"><g id="Filled_outline" data-name="Filled outline"><g id="Color"><path d="m45.846 53.034a5.532 5.532 0 0 1 2.154 4.334v9.132h32v-9.132a5.532 5.532 0 0 1 2.154-4.334 28.681 28.681 0 0 0 11-22.569 29.158 29.158 0 0 0 -58.312 0 28.681 28.681 0 0 0 11.004 22.569z" fill="#ffc107"/><path d="m48 60h32v6.5h-32z" fill="#9e9e9e"/><g fill="#ffc107"><path d="m107.707 11.05-5.657 5.657a3 3 0 0 0 4.243 4.243l5.657-5.657a3 3 0 0 0 -4.243-4.243z"/><path d="m107.707 46.95-5.657-5.657a3 3 0 0 1 4.243-4.243l5.657 5.657a3 3 0 0 1 -4.243 4.243z"/><path d="m20.293 11.05 5.657 5.657a3 3 0 0 1 -4.243 4.243l-5.657-5.657a3 3 0 0 1 4.243-4.243z"/><path d="m20.293 46.95 5.657-5.657a3 3 0 1 0 -4.243-4.243l-5.657 5.657a3 3 0 1 0 4.243 4.243z"/><path d="m13 69.5v48a9 9 0 0 0 9 9h84a9 9 0 0 0 9-9v-48a3 3 0 0 0 -3-3h-96a3 3 0 0 0 -3 3z"/></g><path d="m80 66.5v60h26a9 9 0 0 0 9-9v-48a3 3 0 0 0 -3-3z" fill="#ffb300"/><path d="m2.818 78.565 8.382-9.935a6 6 0 0 1 4.585-2.13h64.215l-11.65 13.805a9 9 0 0 1 -6.878 3.195h-56.362a3 3 0 0 1 -2.292-4.935z" fill="#ffd54f"/><path d="m125.182 78.565-8.382-9.935a6 6 0 0 0 -4.585-2.13h-32.215l11.65 13.805a9 9 0 0 0 6.878 3.195h24.362a3 3 0 0 0 2.292-4.935z" fill="#ffc107"/><rect fill="#fff" height="8" rx="1.5" width="16" x="22" y="109.5"/></g><g id="Outline"><path d="m113.011 9.989a4.507 4.507 0 0 0 -6.365 0l-5.658 5.657a4.5 4.5 0 0 0 6.366 6.363l5.658-5.657a4.507 4.507 0 0 0 -.001-6.363zm-2.121 4.243-5.658 5.657a1.5 1.5 0 1 1 -2.122-2.121l5.658-5.657a1.5 1.5 0 1 1 2.122 2.121z"/><path d="m107.354 35.989a4.5 4.5 0 0 0 -6.365 6.365l5.657 5.656a4.5 4.5 0 0 0 6.365-6.364zm3.536 9.9a1.5 1.5 0 0 1 -2.122 0l-5.657-5.656a1.5 1.5 0 1 1 2.121-2.122l5.657 5.656a1.5 1.5 0 0 1 .001 2.122z"/><path d="m14.989 9.99a4.506 4.506 0 0 0 0 6.364l5.657 5.657a4.5 4.5 0 0 0 6.365-6.365l-5.657-5.656a4.507 4.507 0 0 0 -6.365 0zm9.9 7.777a1.5 1.5 0 1 1 -2.121 2.122l-5.657-5.656a1.5 1.5 0 1 1 2.121-2.122z"/><path d="m14.989 48.011a4.507 4.507 0 0 0 6.365 0l5.658-5.657a4.5 4.5 0 0 0 -6.366-6.363l-5.658 5.657a4.507 4.507 0 0 0 .001 6.363zm2.121-4.243 5.658-5.657a1.5 1.5 0 1 1 2.122 2.121l-5.658 5.657a1.5 1.5 0 1 1 -2.122-2.121z"/><path d="m73.367 12.34a20.591 20.591 0 0 1 9.678 10.25 1.5 1.5 0 1 0 2.755-1.18 23.6 23.6 0 0 0 -11.083-11.75 1.5 1.5 0 0 0 -1.35 2.68z"/><path d="m10.056 67.663-8.385 9.937a4.5 4.5 0 0 0 3.439 7.4h6.39v32.5a10.512 10.512 0 0 0 10.5 10.5h84a10.512 10.512 0 0 0 10.5-10.5v-32.5h6.39a4.5 4.5 0 0 0 3.439-7.4l-8.385-9.935a7.482 7.482 0 0 0 -5.731-2.665h-30.713v-7.632a4.027 4.027 0 0 1 1.583-3.157 30.091 30.091 0 0 0 11.572-23.746 30.657 30.657 0 0 0 -61.31 0 30.094 30.094 0 0 0 11.572 23.746 4.027 4.027 0 0 1 1.583 3.157v7.632h-30.713a7.482 7.482 0 0 0 -5.731 2.663zm68.444 57.337h-56.5a7.508 7.508 0 0 1 -7.5-7.5v-32.5h46.972a10.479 10.479 0 0 0 8.028-3.728l9-10.669zm0-60h-29v-3.5h29zm-20.5-21h-2.39a2.726 2.726 0 0 1 -2.719-2.1 2.613 2.613 0 0 1 3.009-3.009 2.728 2.728 0 0 1 2.1 2.722zm3 14.5v-11.5h6v11.5zm51.213 9.5a4.489 4.489 0 0 1 3.438 1.6l8.385 9.934a1.5 1.5 0 0 1 -1.146 2.466h-24.362a7.484 7.484 0 0 1 -5.728-2.663l-9.571-11.337zm-21.713 13.272a10.479 10.479 0 0 0 8.028 3.728h14.972v32.5a7.508 7.508 0 0 1 -7.5 7.5h-24.5v-54.4zm-54.155-50.807a27.657 27.657 0 0 1 55.31 0 27.113 27.113 0 0 1 -10.429 21.391 7 7 0 0 0 -2.726 5.512v1.132h-8.5v-11.5h2.387a5.579 5.579 0 1 0 -5.387-5.387v2.387h-6v-2.387a5.579 5.579 0 1 0 -5.39 5.387h2.39v11.5h-8.5v-1.132a7 7 0 0 0 -2.726-5.512 27.113 27.113 0 0 1 -10.429-21.391zm33.655 13.535v-2.387a2.723 2.723 0 0 1 2.1-2.722 2.608 2.608 0 0 1 3.009 3.009 2.724 2.724 0 0 1 -2.722 2.1zm-54.213 24h60.984l-9.571 11.337a7.484 7.484 0 0 1 -5.728 2.663h-56.362a1.5 1.5 0 0 1 -1.146-2.468l8.385-9.932a4.489 4.489 0 0 1 3.438-1.6z"/><path d="m71.5 115.5h-9a1.5 1.5 0 0 0 0 3h9a1.5 1.5 0 0 0 0-3z"/><path d="m61 109a1.5 1.5 0 0 0 1.5 1.5h9a1.5 1.5 0 0 0 0-3h-9a1.5 1.5 0 0 0 -1.5 1.5z"/><path d="m36.5 108h-13a3 3 0 0 0 -3 3v5a3 3 0 0 0 3 3h13a3 3 0 0 0 3-3v-5a3 3 0 0 0 -3-3zm-13 8v-5h13v5z"/></g></g></svg>