<svg clip-rule="evenodd" fill-rule="evenodd" height="512" image-rendering="optimizeQuality" shape-rendering="geometricPrecision" text-rendering="geometricPrecision" viewBox="0 0 18062 18062" width="512" xmlns="http://www.w3.org/2000/svg"><g id="Layer_x0020_1"><path d="m13980 14734c60 1 110 16 159 45l2289 1355c200 119 200 409 0 528l-2290 1355c-48 30-102 45-160 45h-12187c-170 0-307-137-307-307v-2714c0-170 137-307 307-307zm-8841-7223c-106 0-213-9-318-27-167-30-278-189-249-356 30-166 189-278 356-248 282 49 575-3 825-146 586-339 787-1090 449-1676-85-147-35-334 112-419s334-35 419 112c335 580 317 1269 13 1816 236 483 766 757 1311 661 167-29 326 83 355 249 30 167-82 326-249 356-711 125-1424-171-1831-761-333 284-756 439-1193 439zm2415 6631c-1109 0-2079-703-2432-1735-1487-162-2526-1565-2242-3043-741-521-1193-1380-1193-2293s452-1772 1193-2293c-284-1478 755-2881 2242-3043 353-1032 1323-1735 2432-1735 1013 0 1914 590 2330 1482 681-526 1534-839 2458-839 2224 0 4033 1809 4033 4033 0 1908-732 2439-1378 2908-537 390-1037 752-1028 2083v1141c0 170-137 307-307 307h-2640c-169 0-306-137-306-307v-1141c0-961-247-1410-591-1735v3639c0 1417-1153 2571-2571 2571zm1847-12222c-273-777-1010-1307-1847-1307-763 0-1440 438-1761 1102 1017 73 1783 665 1894 1829 16 169-108 319-276 335-169 16-319-108-335-277-41-436-199-765-467-977-490-386-1182-292-1251-291-1254 22-2192 1259-1835 2499 39 135-19 279-140 350-668 391-1083 1115-1083 1888s415 1496 1083 1888c121 71 179 215 140 349-356 1237 575 2475 1835 2500 70 1 762 97 1254-294 267-212 423-540 464-975 16-168 166-293 335-276 168 16 292 166 276 334-111 1165-877 1756-1894 1830 321 664 998 1101 1761 1101 1080 0 1958-878 1958-1957v-4116c-596-446-1202-1042-1202-2779 0-1065 415-2034 1091-2756zm594 5129c598 422 1246 895 1326 2311h715v-3244h-451c-169 0-307-137-307-307 0-169 138-306 307-306h1515c169 0 306 137 306 306 0 170-137 307-306 307h-451v3244h715c80-1406 711-1864 1273-2272 604-438 1125-817 1125-2412 0-1885-1534-3419-3420-3419-1885 0-3419 1534-3419 3419 0 1549 491 1950 1072 2373zm3677 9656h-8312v744h8312zm-8312-614h8312v-744h-8312zm5969-5589h2027v-528h-2027zm2368 1811h-2710c-169 0-306-137-306-307 0-169 137-307 306-307h2710c170 0 307 138 307 307 0 170-137 307-307 307zm-597 1185h-1515c-169 0-307-137-307-306 0-170 138-307 307-307h1515c169 0 306 137 306 307 0 169-137 306-306 306zm1185 2081v1638l1384-819zm-10129 1870h591v-2102h-591zm-2059 0h1446v-2102h-1446z" fill="#333"/><path d="m13672 15347h-8312v744h8312z" fill="#ffa721"/><path d="m3543 17449v-2102h-1446v2102z" fill="#ff3131"/><path d="m4156 15347v2102h591v-2102z" fill="#ccc"/><path d="m5360 16705v744h8312v-744z" fill="#ffa721"/><path d="m14285 15579v1638l1384-819z" fill="#ff9e5c"/><path d="m7554 13528c1080 0 1958-878 1958-1957v-4116c-596-446-1202-1042-1202-2779 0-1065 415-2034 1091-2756-273-777-1010-1307-1847-1307-763 0-1440 438-1761 1102 1017 73 1783 665 1894 1829 16 169-108 319-276 335-169 16-319-108-335-277-41-436-199-765-467-977-490-386-1182-292-1251-291-1254 22-2192 1259-1835 2499 39 135-19 279-140 350-668 391-1083 1115-1083 1888s415 1496 1083 1888c121 71 179 215 140 349-356 1237 575 2475 1835 2500 70 1 762 97 1254-294 267-212 423-540 464-975 16-168 166-293 335-276 168 16 292 166 276 334-111 1165-877 1756-1894 1830 321 664 998 1101 1761 1101zm-2415-6017c-106 0-213-9-318-27-167-30-278-189-249-356 30-166 189-278 356-248 282 49 575-3 825-146 586-339 787-1090 449-1676-85-147-35-334 112-419s334-35 419 112c335 580 317 1269 13 1816 236 483 766 757 1311 661 167-29 326 83 355 249 30 167-82 326-249 356-711 125-1424-171-1831-761-333 284-756 439-1193 439z" fill="#ffa721"/><path d="m11329 10502h2027v-528h-2027z" fill="#ccc"/><path d="m12649 9360h715c80-1406 711-1864 1273-2272 604-438 1125-817 1125-2412 0-1885-1534-3419-3420-3419-1885 0-3419 1534-3419 3419 0 1549 491 1950 1072 2373 598 422 1246 895 1326 2311h715v-3244h-451c-169 0-307-137-307-307 0-169 138-306 307-306h1515c169 0 306 137 306 306 0 170-137 307-306 307h-451z" fill="#ff700d"/></g></svg>