<?xml version="1.0" encoding="iso-8859-1"?>
<!-- Generator: Adobe Illustrator 19.0.0, SVG Export Plug-In . SVG Version: 6.00 Build 0)  -->
<svg version="1.1" id="Capa_1" xmlns="http://www.w3.org/2000/svg" xmlns:xlink="http://www.w3.org/1999/xlink" x="0px" y="0px"
	 viewBox="0 0 512.001 512.001" style="enable-background:new 0 0 512.001 512.001;" xml:space="preserve">
<path style="fill:#FFE4CC;" d="M444.642,246.057L444.642,246.057c-0.179-0.53-0.009-1.102,0.401-1.483
	c4.481-4.173,6.05-11.021,2.943-17.063c-2.908-5.655-9.428-8.709-15.642-7.359c-7.192,1.562-11.716,8.058-11.286,14.867
	c0.145,2.292-1.34,4.375-3.516,5.11l-31.27,10.557l9.139,27.07l31.261-10.554c2.191-0.74,4.639,0.04,5.916,1.968
	c2.609,3.938,7.029,6.468,11.879,6.353c10.295-0.246,16.522-10.015,13.525-18.894c-1.853-5.49-6.719-9.098-12.133-9.634
	C445.303,246.938,444.821,246.587,444.642,246.057z"/>
<g>
	<path style="fill:#F7D4BC;" d="M417.946,269.169c-1.277-1.927-3.725-2.707-5.916-1.968l-18.117,6.116l1.498,4.438l23.098-7.798
		C418.314,269.701,418.125,269.439,417.946,269.169z"/>
	<path style="fill:#F7D4BC;" d="M457.992,256.627c-1.853-5.49-6.719-9.098-12.133-9.634c-0.557-0.055-1.038-0.407-1.217-0.936
		c-0.179-0.53-0.009-1.102,0.401-1.483c4.48-4.173,6.05-11.021,2.943-17.063c-2.908-5.655-9.428-8.709-15.642-7.359
		c-1.589,0.345-3.038,0.943-4.342,1.72c2.228,1.325,4.11,3.246,5.341,5.639c3.107,6.042,1.537,12.89-2.943,17.063
		c-0.409,0.381-0.58,0.953-0.401,1.483s0.661,0.881,1.217,0.936c5.414,0.536,10.28,4.144,12.133,9.634
		c2.202,6.523-0.586,13.512-6.296,16.867c2.185,1.344,4.733,2.092,7.414,2.028C454.763,275.276,460.99,265.507,457.992,256.627z"/>
</g>
<path style="fill:#FF7B4D;" d="M273.919,261.131l66.338-22.397c23.779-8.028,49.564,4.74,57.593,28.52l0,0
	c8.028,23.779-4.74,49.564-28.52,57.593l-70.803,23.905"/>
<path style="fill:#FF965C;" d="M255.035,387.216l123.901,0.076c0.846-5.712,1.291-11.528,1.294-17.431
	c0.048-77.935-75.567-141.16-168.89-141.217c-93.323-0.057-169.015,63.075-169.062,141.01c-0.004,5.903,0.434,11.719,1.273,17.432
	L255.035,387.216z"/>
<path style="fill:#FF8955;" d="M211.341,228.644c-4.621-0.003-9.196,0.156-13.723,0.457c87.007,5.797,155.436,66.62,155.391,140.76
	c-0.004,5.897-0.447,11.708-1.292,17.414l27.22,0.017c0.846-5.712,1.291-11.528,1.294-17.431
	C380.278,291.926,304.663,228.701,211.341,228.644z"/>
<path style="fill:#FFE4CC;" d="M485.549,336.63L485.549,336.63c0-0.559,0.344-1.047,0.854-1.277
	c5.58-2.521,9.258-8.506,8.247-15.225c-0.946-6.288-6.147-11.267-12.466-11.976c-7.314-0.82-13.678,3.887-15.449,10.475
	c-0.596,2.218-2.669,3.717-4.965,3.717h-33.004v28.571h32.995c2.312,0,4.383,1.522,4.976,3.757c1.212,4.565,4.591,8.377,9.223,9.819
	c9.833,3.06,18.858-4.204,18.858-13.576c0-5.794-3.456-10.769-8.414-13.009C485.894,337.676,485.549,337.189,485.549,336.63z"/>
<path style="fill:#F7D4BC;" d="M486.403,337.907c-0.51-0.23-0.854-0.717-0.854-1.277c0-0.559,0.344-1.047,0.854-1.277
	c5.58-2.521,9.257-8.506,8.247-15.225c-0.946-6.288-6.147-11.267-12.466-11.976c-3.12-0.35-6.063,0.313-8.554,1.691
	c3.781,2.098,6.553,5.864,7.219,10.285c1.011,6.719-2.666,12.704-8.247,15.225c-0.51,0.23-0.854,0.718-0.854,1.277
	c0,0.559,0.344,1.046,0.854,1.277c4.958,2.24,8.414,7.215,8.414,13.009c0,5.409-3.01,10.111-7.443,12.536
	c0.756,0.411,1.542,0.776,2.386,1.039c9.833,3.06,18.858-4.204,18.858-13.575C494.817,345.121,491.361,340.146,486.403,337.907z"/>
<path style="fill:#FF965C;" d="M318.975,296.301h70.017c25.098,0,45.444,20.346,45.444,45.444l0,0
	c0,25.098-20.346,45.444-45.444,45.444h-74.73"/>
<path style="fill:#FF8955;" d="M388.992,296.301h-25.338c25.098,0,45.444,20.346,45.444,45.444l0,0
	c0,25.098-20.346,45.444-45.444,45.444h25.338c25.098,0,45.444-20.346,45.444-45.444l0,0
	C434.436,316.647,414.09,296.301,388.992,296.301z"/>
<path style="fill:#F2CAFF;" d="M142.093,387.291H91.702c-8.534,0-15.452-6.918-15.452-15.452l0,0
	c0-8.534,6.918-15.452,15.452-15.452h50.391c8.534,0,15.452,6.918,15.452,15.452l0,0
	C157.544,380.373,150.627,387.291,142.093,387.291z"/>
<path style="fill:#FF6464;" d="M204.073,387.189h-50.391c-8.534,0-15.452-6.918-15.452-15.452l0,0
	c0-8.534,6.918-15.452,15.452-15.452h50.391c8.534,0,15.452,6.918,15.452,15.452l0,0
	C219.525,380.271,212.607,387.189,204.073,387.189z"/>
<path style="fill:#FFC82C;" d="M168.581,356.286H118.19c-8.534,0-15.452-6.918-15.452-15.452l0,0
	c0-8.534,6.918-15.452,15.452-15.452h50.391c8.534,0,15.452,6.918,15.452,15.452l0,0
	C184.032,349.368,177.114,356.286,168.581,356.286z"/>
<path style="fill:#C4D9E8;" d="M489.278,417.485H22.722c-8.366,0-15.148-6.782-15.148-15.148l0,0
	c0-8.366,6.782-15.148,15.148-15.148h233.025h233.53c8.366,0,15.148,6.782,15.148,15.148l0,0
	C504.426,410.703,497.644,417.485,489.278,417.485z"/>
<path style="fill:#B2CAD8;" d="M489.278,387.189h-77.759c8.366,0,15.148,6.782,15.148,15.148l0,0
	c0,8.366-6.782,15.148-15.148,15.148h77.759c8.366,0,15.148-6.782,15.148-15.148l0,0
	C504.426,393.971,497.644,387.189,489.278,387.189z"/>
<path style="fill:#E5F2FC;" d="M504.426,402.337c0-8.366-6.782-15.148-15.148-15.148h-233.53H22.722
	c-8.366,0-15.148,6.782-15.148,15.148h248.145H504.426z"/>
<path style="fill:#D4E9F4;" d="M489.278,387.189h-77.759c8.366,0,15.148,6.782,15.148,15.148h77.759
	C504.426,393.971,497.644,387.189,489.278,387.189z"/>
<path style="fill:#E5F2FC;" d="M256,417.485H26.257l9.485,7.314c7.154,5.516,12.51,13.03,15.39,21.592
	c3.089,9.179,11.692,15.361,21.376,15.361H256h183.492c9.684,0,18.288-6.183,21.376-15.361c2.88-8.561,8.236-16.076,15.39-21.592
	l9.485-7.314H256z"/>
<path style="fill:#D4E9F4;" d="M256,417.485H26.257l9.485,7.314c2.68,2.067,5.108,4.414,7.248,6.992h182.04h185.059
	c14.804,0,25.046,14.763,19.902,28.645c-0.033,0.088-0.063,0.175-0.092,0.26c-0.121,0.359-0.265,0.706-0.403,1.056h9.997
	c9.744,0,18.288-6.289,21.428-15.513c2.892-8.498,8.227-15.956,15.339-21.44l9.485-7.314H256z"/>
<path style="fill:#FF7B4D;" d="M273.354,319.587L273.354,319.587c2.104,2.218,3.317,5.11,3.534,8.159
	c2.361,33.217,30.056,59.432,63.875,59.432h34.312h-52.53c-31.551,0-57.128-25.577-57.128-57.128v-7.299
	C265.417,318.595,270.493,316.571,273.354,319.587z"/>
<path d="M489.278,379.615h-63.232c5.957-5.83,10.542-13.047,13.238-21.126h20.717c2.295,6.365,7.305,11.241,13.707,13.233
	c2.268,0.706,4.569,1.053,6.839,1.053c4.63,0,9.127-1.446,12.934-4.249c5.579-4.107,8.91-10.69,8.91-17.612
	c0-5.324-1.954-10.36-5.31-14.256c4.103-4.712,6.048-11.075,5.058-17.658c-1.463-9.721-9.321-17.277-19.112-18.376
	c-10.183-1.143-19.561,4.729-23.008,14.145h-25.41c-6.256-10.54-16.055-18.738-27.748-22.937c0.666-3.403,0.991-6.839,0.974-10.278
	l19.594-6.616c4.211,5.296,10.503,8.313,17.221,8.154c7.216-0.173,13.672-3.581,17.712-9.353c3.972-5.676,5.022-12.979,2.808-19.537
	c-1.704-5.045-5.165-9.191-9.591-11.809c2.38-5.777,2.187-12.429-0.856-18.348c-4.495-8.742-14.357-13.385-23.985-11.297
	c-10.019,2.176-17.021,10.738-17.276,20.762l-24.033,8.114c-3.339-2.869-7.057-5.343-11.106-7.348
	c-12.69-6.285-27.07-7.25-40.487-2.72l-34.082,11.507c-25.657-13.319-55.072-20.924-85.835-21.89
	c-4.182-0.17-7.677,3.151-7.808,7.332c-0.132,4.181,3.151,7.677,7.332,7.808c42.058,1.322,81.289,15.96,110.467,41.218
	c8.147,7.053,15.26,14.727,21.274,22.884c0.129,0.198,0.267,0.39,0.413,0.574c15.033,20.622,23.075,44.299,23.06,68.864
	c-0.002,3.24-0.151,6.504-0.439,9.759h-57.956h-25.338c-0.406,0-0.802,0.041-1.19,0.103H273.92c-4.183,0-7.574,3.391-7.574,7.574
	s3.391,7.574,7.574,7.574h105.017c0.412,0,0.816-0.039,1.211-0.103h8.845h100.286c4.177,0,7.574,3.397,7.574,7.574
	s-3.397,7.574-7.574,7.574h-3.535H26.256h-3.535c-4.177,0-7.574-3.397-7.574-7.574s3.397-7.574,7.574-7.574h66.846
	c0.703,0.065,1.414,0.103,2.134,0.103h50.391c0.698,0,1.389-0.041,2.077-0.103h9.512h50.391h7.231l25.809,0.016
	c0.001,0,0.003,0,0.004,0c4.18,0,7.572-3.388,7.574-7.57c0-0.003,0-0.007,0-0.01c0-0.003,0-0.007,0-0.01
	c0-4.183-3.391-7.574-7.574-7.574H225.71c0.898-2.459,1.389-5.112,1.389-7.878c0-12.696-10.329-23.026-23.025-23.026h-13.856
	c0.898-2.459,1.389-5.112,1.389-7.878c0-12.696-10.329-23.026-23.026-23.026c-4.183,0-7.574,3.391-7.574,7.574
	s3.391,7.574,7.574,7.574c4.344,0,7.878,3.534,7.878,7.878s-3.534,7.878-7.878,7.878h-14.898H118.19
	c-4.344,0-7.878-3.534-7.878-7.878s3.534-7.878,7.878-7.878h16.948c4.183,0,7.574-3.391,7.574-7.574s-3.391-7.574-7.574-7.574
	H118.19c-12.696,0-23.026,10.329-23.026,23.026c0,2.804,0.506,5.493,1.428,7.98h-4.89c-12.696,0-23.026,10.329-23.026,23.026
	c0,2.696,0.47,5.283,1.325,7.689l-19.716-0.012c-0.29-3.288-0.435-6.586-0.433-9.858c0.019-31.64,13.681-62.329,38.468-86.414
	c24.831-24.128,59.182-40.208,96.726-45.279c4.145-0.56,7.052-4.374,6.492-8.52c-0.56-4.144-4.369-7.05-8.52-6.492
	c-40.734,5.502-78.114,23.055-105.254,49.427c-27.746,26.959-43.038,61.503-43.06,97.269c-0.002,3.309,0.139,6.64,0.4,9.965H22.722
	C10.193,379.615,0,389.808,0,402.337s10.193,22.722,22.722,22.722h0.954l7.441,5.738c5.987,4.616,10.426,10.844,12.836,18.009
	c4.13,12.274,15.606,20.52,28.555,20.52h366.985c12.95,0,24.425-8.247,28.555-20.52c2.411-7.165,6.85-13.392,12.836-18.009
	l7.441-5.738h0.954c12.529,0,22.722-10.193,22.722-22.722C512,389.808,501.807,379.615,489.278,379.615z M461.769,329.919
	c5.754,0,10.804-3.834,12.28-9.325c0.743-2.766,3.493-5.338,7.29-4.915c2.936,0.329,5.384,2.675,5.821,5.576
	c0.53,3.522-1.565,6.152-3.874,7.195c-3.226,1.457-5.311,4.668-5.311,8.18c0,3.51,2.083,6.72,5.31,8.179
	c2.404,1.086,3.958,3.483,3.958,6.106c0,2.157-1,4.13-2.742,5.413c-1.03,0.758-3.217,1.888-6.292,0.931
	c-2.014-0.627-3.566-2.32-4.153-4.53c-1.467-5.527-6.524-9.388-12.296-9.388h-19.791c0.016-0.531,0.04-1.061,0.04-1.596
	c0-4.066-0.475-8.021-1.346-11.826L461.769,329.919L461.769,329.919z M419.965,247.305c5.452-1.841,9.01-7.09,8.651-12.763
	c-0.18-2.857,1.595-6.176,5.335-6.988c2.885-0.629,5.957,0.811,7.299,3.421c1.629,3.168,0.486,6.329-1.369,8.057
	c-2.591,2.413-3.538,6.121-2.414,9.451c1.124,3.325,4.124,5.699,7.646,6.048c2.625,0.26,4.864,2.034,5.703,4.519
	c0.69,2.044,0.374,4.233-0.866,6.005c-0.734,1.048-2.445,2.818-5.663,2.895c-2.066,0.073-4.121-1.057-5.384-2.963
	c-3.158-4.768-9.183-6.807-14.653-4.962l-18.744,6.329c-0.155-0.508-0.309-1.017-0.48-1.523c-1.289-3.819-2.993-7.422-5.045-10.779
	L419.965,247.305z M337.824,266.08c-5.327-4.612-10.964-8.89-16.86-12.838l21.716-7.332c9.583-3.237,19.854-2.547,28.92,1.943
	c3.871,1.917,7.32,4.433,10.259,7.429c0.11,0.124,0.228,0.238,0.345,0.354c3.774,3.95,6.671,8.71,8.47,14.04
	c0.819,2.427,1.382,4.892,1.702,7.369c0.012,0.113,0.03,0.225,0.047,0.338c0.456,3.813,0.316,7.654-0.408,11.436
	c-1.001-0.057-2.008-0.092-3.023-0.092h-29.645C353.123,280.686,345.933,273.1,337.824,266.08z M387.412,379.615
	c0.254-3.254,0.39-6.512,0.392-9.75c0.014-23.237-6.283-45.712-18.194-65.99h19.382c2.485,0,4.913,0.248,7.267,0.707
	c0.02,0.004,0.041,0.008,0.061,0.011c17.386,3.423,30.542,18.777,30.542,37.152c0,20.882-16.988,37.87-37.87,37.87H387.412z
	 M204.073,363.859c4.344,0,7.877,3.534,7.877,7.878c0,4.314-3.487,7.826-7.79,7.873l-51.184-0.031
	c-0.524-0.047-1.032-0.145-1.521-0.29c-0.395-0.195-0.804-0.359-1.226-0.482c-2.615-1.283-4.425-3.966-4.425-7.07
	c0-4.344,3.534-7.878,7.878-7.878h14.898L204.073,363.859L204.073,363.859z M83.824,371.84c0-4.344,3.534-7.878,7.878-7.878h40.309
	c-0.875,2.43-1.354,5.047-1.354,7.775c0,2.748,0.485,5.384,1.373,7.829l-41.977-0.026C86.498,378.78,83.824,375.617,83.824,371.84z
	 M453.69,443.975c-2.053,6.103-7.759,10.203-14.198,10.203H72.507c-6.438,0-12.144-4.101-14.198-10.203
	c-2.378-7.069-6.168-13.484-11.134-18.916h417.649C459.859,430.491,456.068,436.906,453.69,443.975z"/>
<circle cx="153.32" cy="272.74" r="7.574"/>
<circle cx="127.56" cy="294.45" r="7.574"/>
<circle cx="163.79" cy="302.02" r="7.574"/>
<path d="M187.524,184.56c0,4.183,3.391,7.574,7.574,7.574s7.574-3.391,7.574-7.574c0-3.805,1.373-5.326,4.109-8.359
	c3.38-3.747,8.009-8.878,8.009-18.506s-4.629-14.759-8.009-18.506c-2.736-3.033-4.109-4.554-4.109-8.359
	c0-3.804,1.373-5.325,4.108-8.357c3.38-3.747,8.01-8.877,8.01-18.504s-4.63-14.758-8.01-18.504
	c-2.736-3.032-4.108-4.553-4.108-8.356s1.373-5.324,4.108-8.356c3.38-3.747,8.01-8.877,8.01-18.504c0-4.183-3.391-7.574-7.574-7.574
	s-7.574,3.391-7.574,7.574c0,3.803-1.373,5.325-4.108,8.357c-3.38,3.747-8.01,8.877-8.01,18.504s4.63,14.758,8.01,18.504
	c2.736,3.032,4.108,4.553,4.108,8.356s-1.373,5.325-4.108,8.357c-3.38,3.747-8.01,8.878-8.01,18.505
	c0,9.628,4.629,14.759,8.009,18.506c2.736,3.033,4.109,4.554,4.109,8.359s-1.373,5.326-4.109,8.359
	C192.154,169.8,187.524,174.932,187.524,184.56z"/>
<path d="M243.067,184.56c0,4.183,3.391,7.574,7.574,7.574s7.574-3.391,7.574-7.574c0-3.805,1.373-5.326,4.109-8.359
	c3.38-3.747,8.009-8.878,8.009-18.506s-4.629-14.759-8.009-18.506c-2.736-3.033-4.109-4.554-4.109-8.359
	c0-3.804,1.373-5.325,4.108-8.357c3.38-3.747,8.01-8.877,8.01-18.504s-4.63-14.758-8.01-18.504
	c-2.736-3.032-4.108-4.553-4.108-8.356s1.373-5.324,4.108-8.356c3.38-3.747,8.01-8.877,8.01-18.504c0-4.183-3.391-7.574-7.574-7.574
	s-7.574,3.391-7.574,7.574c0,3.803-1.373,5.325-4.108,8.357c-3.38,3.747-8.01,8.877-8.01,18.504s4.63,14.758,8.01,18.504
	c2.736,3.032,4.108,4.553,4.108,8.356s-1.373,5.325-4.108,8.357c-3.38,3.747-8.01,8.878-8.01,18.505
	c0,9.628,4.629,14.759,8.009,18.506c2.736,3.033,4.109,4.554,4.109,8.359s-1.373,5.326-4.109,8.359
	C247.696,169.8,243.067,174.932,243.067,184.56z"/>
<g>
</g>
<g>
</g>
<g>
</g>
<g>
</g>
<g>
</g>
<g>
</g>
<g>
</g>
<g>
</g>
<g>
</g>
<g>
</g>
<g>
</g>
<g>
</g>
<g>
</g>
<g>
</g>
<g>
</g>
</svg>
