<svg id="Capa_1" enable-background="new 0 0 512 512" height="512" viewBox="0 0 512 512" width="512" xmlns="http://www.w3.org/2000/svg"><g><g><circle cx="256" cy="256" fill="#ebebeb" r="248.5"/></g><g><circle cx="256" cy="256" fill="#e2e2e2" r="211.341"/></g><g><g><g><path d="m432.612 352.612h.001z" fill="#bfbfbf"/></g><g><path d="m457.786 400.643c6.312-6.312 6.312-16.545 0-22.857l-332.498-332.499c-2.463-2.463-6.021-3.483-9.414-2.7l-6.964 1.607c-3.764.869-6.703 3.808-7.571 7.572l-1.607 6.964c-.783 3.394.237 6.952 2.7 9.414l332.499 332.499c6.31 6.312 16.544 6.312 22.855 0z" fill="#acacac"/></g><g><path d="m204.039 89.752-18.572-18.572c-3.688-3.688-9.16-4.503-13.636-2.445-2.5 1.149-5.451.627-7.46-1.253l-9.794-9.162c-4.682-4.38-11.993-4.258-16.527.275l-22.311 22.311c-4.533 4.533-4.655 11.845-.275 16.527l9.162 9.794c1.879 2.009 2.401 4.96 1.253 7.46-2.057 4.476-1.242 9.949 2.445 13.636l18.572 18.572c2.81 2.81 6.657 3.952 10.31 3.426 2.008-.289 3.697 1.399 3.407 3.407-.526 3.653.616 7.5 3.426 10.31l18.572 18.572c2.81 2.81 6.657 3.952 10.31 3.426 2.008-.289 3.697 1.4 3.407 3.407-.526 3.653.616 7.5 3.426 10.31l18.572 18.572c2.81 2.81 6.657 3.952 10.31 3.426 2.008-.289 3.697 1.4 3.407 3.407-.526 3.653.616 7.5 3.426 10.31l18.572 18.572c2.81 2.81 6.657 3.952 10.31 3.426 2.008-.289 3.697 1.4 3.407 3.407-.526 3.653.616 7.5 3.426 10.31l18.572 18.572c2.81 2.81 6.657 3.952 10.31 3.426 2.008-.289 3.697 1.4 3.407 3.407-.526 3.653.616 7.5 3.426 10.31l18.572 18.572c3.948 3.948 9.939 4.598 14.565 1.96 1.016-.579 2.293-.436 3.216.282l4.425 3.442c5.269 4.098 12.764 3.631 17.483-1.089l22.049-22.049c4.72-4.72 5.186-12.215 1.089-17.484l-3.442-4.425c-.718-.923-.862-2.2-.282-3.216 2.638-4.627 1.988-10.618-1.96-14.565l-18.572-18.572c-2.81-2.81-6.657-3.952-10.31-3.426-2.008.289-3.697-1.4-3.407-3.407.526-3.653-.616-7.5-3.426-10.31l-18.572-18.572c-2.81-2.81-6.657-3.952-10.31-3.426-2.008.289-3.697-1.399-3.407-3.407.526-3.653-.616-7.5-3.426-10.31l-18.572-18.572c-2.81-2.81-6.657-3.952-10.31-3.426-2.008.289-3.697-1.4-3.407-3.407.526-3.653-.616-7.5-3.426-10.31l-18.572-18.572c-2.81-2.81-6.657-3.952-10.31-3.426-2.008.289-3.697-1.4-3.407-3.407.526-3.653-.616-7.5-3.426-10.31l-18.572-18.572c-2.81-2.81-6.657-3.952-10.31-3.426-2.008.289-3.697-1.4-3.407-3.407.526-3.652-.616-7.499-3.426-10.309z" fill="#be694e"/></g><g><path d="m207.465 100.062c.526-3.653-.616-7.499-3.426-10.31l-18.572-18.572c-3.688-3.688-9.16-4.503-13.636-2.445-2.5 1.149-5.451.627-7.46-1.253l-9.794-9.162c-4.682-4.38-11.994-4.258-16.527.275l-13.589 13.589c1.839-1.839 4.804-1.888 6.703-.112l14.785 13.831c2.009 1.879 4.96 2.402 7.46 1.253 4.476-2.057 9.949-1.242 13.636 2.445l18.572 18.572c2.81 2.81 3.952 6.657 3.426 10.31-.289 2.008 1.4 3.697 3.407 3.407 3.653-.526 7.5.616 10.31 3.426l18.572 18.572c2.81 2.81 3.952 6.657 3.426 10.31-.289 2.008 1.4 3.697 3.407 3.407 3.653-.526 7.5.616 10.31 3.426l18.572 18.572c2.81 2.81 3.952 6.657 3.426 10.31-.289 2.008 1.4 3.697 3.407 3.407 3.653-.526 7.5.616 10.31 3.426l18.572 18.572c2.81 2.81 3.952 6.657 3.426 10.31-.289 2.008 1.4 3.697 3.407 3.407 3.653-.526 7.5.616 10.31 3.426l18.572 18.572c2.81 2.81 3.952 6.657 3.426 10.31-.289 2.008 1.4 3.697 3.407 3.407 3.653-.526 7.5.616 10.31 3.426l18.572 18.572c3.948 3.948 4.598 9.939 1.96 14.565-.579 1.016-.436 2.293.282 3.216l7.271 9.349c1.91 2.456 1.692 5.949-.507 8.149l14.011-14.011c4.72-4.72 5.186-12.215 1.089-17.483l-3.442-4.425c-.718-.923-.862-2.2-.282-3.216 2.638-4.627 1.987-10.618-1.96-14.565l-18.572-18.572c-2.81-2.81-6.657-3.952-10.31-3.426-2.008.289-3.697-1.399-3.407-3.407.526-3.653-.616-7.499-3.426-10.31l-18.572-18.572c-2.81-2.81-6.657-3.952-10.31-3.426-2.008.289-3.697-1.399-3.407-3.407.526-3.653-.616-7.499-3.426-10.31l-18.572-18.572c-2.81-2.81-6.657-3.952-10.31-3.426-2.008.289-3.697-1.399-3.407-3.407.526-3.653-.616-7.499-3.426-10.31l-18.572-18.572c-2.81-2.81-6.657-3.952-10.31-3.426-2.008.289-3.697-1.399-3.407-3.407.526-3.653-.616-7.499-3.426-10.31l-18.572-18.572c-2.81-2.81-6.657-3.952-10.31-3.426-2.008.289-3.697-1.399-3.407-3.407z" fill="#ac583e"/></g></g><g><g><path d="" fill="#bfbfbf"/></g><g><path d="m400.643 457.786c6.312-6.312 6.312-16.545 0-22.857l-332.499-332.498c-2.463-2.463-6.021-3.483-9.414-2.7l-6.964 1.607c-3.764.869-6.703 3.808-7.571 7.572l-1.607 6.964c-.783 3.394.237 6.952 2.7 9.414l332.499 332.499c6.311 6.311 16.544 6.311 22.856-.001z" fill="#acacac"/></g><g><path d="m146.895 146.895-18.572-18.572c-3.688-3.688-9.16-4.503-13.636-2.445-2.5 1.149-5.451.627-7.46-1.253l-9.794-9.162c-4.682-4.38-11.994-4.258-16.527.275l-22.311 22.311c-4.533 4.533-4.655 11.845-.275 16.527l9.162 9.794c1.879 2.009 2.401 4.96 1.253 7.46-2.057 4.476-1.242 9.949 2.445 13.636l18.572 18.572c2.81 2.81 6.657 3.952 10.31 3.426 2.008-.289 3.697 1.399 3.407 3.407-.526 3.653.616 7.5 3.426 10.31l18.572 18.572c2.81 2.81 6.657 3.952 10.31 3.426 2.008-.289 3.697 1.4 3.407 3.407-.526 3.653.616 7.5 3.426 10.31l18.572 18.572c2.81 2.81 6.657 3.952 10.31 3.426 2.008-.289 3.697 1.4 3.407 3.407-.526 3.653.616 7.5 3.426 10.31l18.572 18.572c2.81 2.81 6.657 3.952 10.31 3.426 2.008-.289 3.697 1.4 3.407 3.407-.526 3.653.616 7.5 3.426 10.31l18.572 18.572c2.81 2.81 6.657 3.952 10.31 3.426 2.008-.289 3.697 1.399 3.407 3.407-.526 3.653.616 7.5 3.426 10.31l18.572 18.572c3.948 3.948 9.939 4.598 14.565 1.96 1.016-.579 2.293-.436 3.216.282l4.425 3.442c5.269 4.098 12.764 3.631 17.483-1.089l22.049-22.049c4.72-4.72 5.186-12.215 1.088-17.483l-3.442-4.425c-.718-.923-.862-2.2-.282-3.216 2.638-4.627 1.988-10.618-1.96-14.565l-18.572-18.572c-2.81-2.81-6.657-3.952-10.31-3.426-2.008.289-3.697-1.4-3.407-3.407.526-3.653-.616-7.5-3.426-10.31l-18.572-18.572c-2.81-2.81-6.657-3.952-10.31-3.426-2.008.289-3.697-1.4-3.407-3.407.526-3.653-.616-7.5-3.426-10.31l-18.572-18.572c-2.81-2.81-6.657-3.952-10.31-3.426-2.008.289-3.697-1.4-3.407-3.407.526-3.653-.616-7.5-3.426-10.31l-18.572-18.572c-2.81-2.81-6.657-3.952-10.31-3.426-2.008.289-3.697-1.4-3.407-3.407.526-3.653-.616-7.5-3.426-10.31l-18.572-18.572c-2.81-2.81-6.657-3.952-10.31-3.426-2.008.289-3.697-1.399-3.407-3.407.528-3.653-.614-7.499-3.425-10.31z" fill="#be694e"/></g><g><path d="m150.321 157.205c.526-3.653-.616-7.499-3.426-10.31l-18.572-18.572c-3.688-3.688-9.16-4.503-13.636-2.445-2.5 1.149-5.451.627-7.46-1.253l-9.794-9.162c-4.682-4.38-11.994-4.258-16.527.275l-13.589 13.589c1.839-1.839 4.804-1.888 6.703-.112l14.785 13.831c2.009 1.879 4.96 2.402 7.46 1.253 4.476-2.057 9.949-1.242 13.636 2.445l18.572 18.572c2.81 2.81 3.952 6.657 3.426 10.31-.289 2.008 1.4 3.697 3.407 3.407 3.653-.526 7.5.616 10.31 3.426l18.572 18.572c2.81 2.81 3.952 6.657 3.426 10.31-.289 2.008 1.4 3.697 3.407 3.407 3.653-.526 7.5.616 10.31 3.426l18.572 18.572c2.81 2.81 3.952 6.657 3.426 10.31-.289 2.008 1.4 3.697 3.407 3.407 3.653-.526 7.5.616 10.31 3.426l18.572 18.572c2.81 2.81 3.952 6.657 3.426 10.31-.289 2.008 1.4 3.697 3.407 3.407 3.653-.526 7.5.616 10.31 3.426l18.572 18.572c2.81 2.81 3.952 6.657 3.426 10.31-.289 2.008 1.4 3.697 3.407 3.407 3.653-.526 7.5.616 10.31 3.426l18.572 18.572c3.948 3.948 4.598 9.939 1.96 14.565-.579 1.016-.436 2.293.282 3.216l7.271 9.349c1.91 2.456 1.692 5.949-.507 8.149l14.011-14.011c4.72-4.72 5.186-12.215 1.089-17.483l-3.442-4.425c-.718-.923-.862-2.2-.282-3.216 2.638-4.627 1.987-10.618-1.96-14.565l-18.572-18.572c-2.81-2.81-6.657-3.952-10.31-3.426-2.008.289-3.697-1.399-3.407-3.407.526-3.653-.616-7.499-3.426-10.31l-18.572-18.572c-2.81-2.81-6.657-3.952-10.31-3.426-2.008.289-3.697-1.399-3.407-3.407.526-3.653-.616-7.499-3.426-10.31l-18.572-18.572c-2.81-2.81-6.657-3.952-10.31-3.426-2.008.289-3.697-1.399-3.407-3.407.526-3.653-.616-7.499-3.426-10.31l-18.572-18.572c-2.81-2.81-6.657-3.952-10.31-3.426-2.008.289-3.697-1.399-3.407-3.407.526-3.653-.616-7.499-3.426-10.31l-18.572-18.572c-2.81-2.81-6.657-3.952-10.31-3.426-2.007.29-3.696-1.399-3.407-3.407z" fill="#ac583e"/></g></g></g><g><g><path d="m307.937 113.619c-3.998-3.998-3.47-10.586 1.057-13.972 28.921-21.635 70.095-19.309 96.381 6.978 26.287 26.287 28.612 67.46 6.978 96.381-3.386 4.527-9.974 5.055-13.972 1.057z" fill="#df646e"/></g><g><path d="m327.051 132.733c14.396-14.396 37.82-14.396 52.216 0s14.396 37.82 0 52.216z" fill="#c42430"/></g></g><g><g><g><path d="m111.299 283.487c.09-.253.175-.506.252-.756 2.753-9.011-2.319-18.548-11.33-21.302-3.377-1.032-6.824-.96-9.96.006s-6.352-.981-7.005-4.196c-.505-2.488-1.284-4.796-2.291-6.688-4.425-8.319-14.756-11.476-23.075-7.051s-11.476 14.756-7.051 23.075c1.006 1.892 2.484 3.827 4.265 5.637 2.301 2.339 2.118 6.094-.436 8.154-2.554 2.061-4.541 4.878-5.573 8.255-2.753 9.011 2.319 18.548 11.33 21.302.25.076.507.146.768.214-.087.245-.188.481-.265.732-2.753 9.011 2.319 18.548 11.33 21.302s33.42 1.176 33.42 1.176 14.951-19.358 17.705-28.369-2.319-18.548-11.33-21.302c-.25-.076-.503-.124-.754-.189z" fill="#b7e546"/></g></g></g><g><g><g><path d="m153.129 413.707c.191.152.383.301.576.441 6.934 5.038 16.639 3.501 21.677-3.432 1.888-2.598 2.847-5.584 2.946-8.567s2.725-5.172 5.684-4.781c2.29.303 4.505.316 6.43.012 8.465-1.34 14.241-9.29 12.901-17.755s-9.29-14.241-17.755-12.901c-1.925.305-4.028 1.002-6.112 1.997-2.693 1.286-5.868.016-6.883-2.791-1.016-2.807-2.85-5.35-5.448-7.238-6.934-5.038-16.639-3.501-21.677 3.432-.14.192-.276.393-.411.597-.185-.147-.358-.304-.551-.444-6.934-5.038-16.639-3.501-21.677 3.432-5.038 6.934-10.914 28.393-10.914 28.393s12.218 18.594 19.152 23.632 16.639 3.501 21.677-3.432c.139-.195.255-.397.385-.595z" fill="#b7e546"/></g></g></g><g><path d="m471.629 117.962c-25.71-40.078-61.934-72.157-104.756-92.77-3.734-1.798-8.215-.228-10.011 3.505-1.796 3.732-.228 8.214 3.505 10.011 40.318 19.407 74.426 49.613 98.636 87.353 24.858 38.749 37.997 83.681 37.997 129.939 0 42.534-10.953 83.382-31.51 119.337-.722-.994-1.504-1.958-2.4-2.854l-13.85-13.85c16.76-31.467 25.6-66.823 25.6-102.633 0-120.669-98.171-218.84-218.84-218.84-32.006 0-62.782 6.769-91.57 20.105l-4.725-4.421c-5.628-5.268-13.481-6.552-20.202-3.949l-2.499-2.499c36.156-20.564 77.091-31.396 118.996-31.396 24.866 0 49.371 3.771 72.833 11.209 3.948 1.253 8.164-.935 9.416-4.883 1.251-3.948-.935-8.164-4.883-9.416-24.93-7.903-50.96-11.91-77.366-11.91-46.365 0-91.621 12.481-131.188 36.135-3.306-1.356-6.995-1.689-10.625-.855l-6.956 1.605c-6.522 1.497-11.705 6.68-13.201 13.194l-1.609 6.975c-.18.786-.303 1.574-.375 2.362-11.831 9.884-22.781 20.834-32.633 32.631-.79.073-1.581.195-2.37.376l-6.956 1.605c-6.523 1.497-11.706 6.68-13.201 13.194l-1.609 6.975c-.831 3.623-.498 7.309.858 10.615-23.654 39.557-36.135 84.812-36.135 131.188 0 68.379 26.629 132.666 74.981 181.019 48.353 48.352 112.64 74.981 181.019 74.981s132.666-26.629 181.019-74.981c48.352-48.353 74.981-112.64 74.981-181.019 0-49.135-13.96-96.868-40.371-138.038zm-19.146 277.378c-3.377 3.379-8.874 3.378-12.251 0l-64.872-64.872 12.253-12.248 64.87 64.87c3.378 3.377 3.377 8.873 0 12.25zm-57.144 57.143c-1.636 1.636-3.812 2.537-6.125 2.537s-4.489-.901-6.125-2.538l-64.871-64.871 12.25-12.251 64.871 64.871c1.637 1.637 2.538 3.812 2.538 6.126 0 2.315-.901 4.49-2.538 6.126zm-144.55-106.621c-2.36-2.36-5.617-3.445-8.938-2.962-1.458.204-2.896-.266-3.937-1.306l-18.572-18.574c-1.04-1.039-1.516-2.474-1.305-3.935.479-3.319-.601-6.576-2.961-8.938-2.361-2.361-5.62-3.44-8.939-2.964-1.46.214-2.896-.266-3.937-1.306l-18.572-18.571c-1.041-1.04-1.516-2.476-1.306-3.938.478-3.318-.602-6.576-2.962-8.937s-5.616-3.441-8.938-2.963c-1.461.215-2.897-.265-3.937-1.306l-18.571-18.57c-1.041-1.041-1.517-2.476-1.306-3.937.472-3.271-.636-6.613-2.963-8.939-2.362-2.361-5.62-3.446-8.938-2.961-1.459.209-2.896-.267-3.937-1.308l-18.571-18.571c-1.041-1.04-1.516-2.475-1.306-3.938.478-3.318-.602-6.576-2.962-8.937-2.361-2.36-5.616-3.446-8.938-2.962-1.46.204-2.896-.266-3.937-1.307l-18.572-18.572c-1.362-1.361-1.737-3.452-.934-5.2 2.424-5.274 1.407-11.443-2.59-15.716l-9.161-9.792c-1.626-1.738-1.582-4.418.101-6.101l22.311-22.312c1.683-1.683 4.363-1.726 6.1-.103l9.794 9.163c4.273 3.996 10.442 5.014 15.715 2.59 1.746-.804 3.833-.43 5.195.929.001 0 .001.001.002.002l18.579 18.579c1.038 1.041 1.512 2.473 1.302 3.932-.479 3.319.601 6.576 2.961 8.938 2.361 2.361 5.616 3.448 8.939 2.963 1.458-.206 2.896.266 3.937 1.307l18.573 18.573c1.04 1.039 1.515 2.474 1.305 3.937-.478 3.318.602 6.576 2.962 8.937s5.615 3.447 8.938 2.962c1.462-.207 2.896.266 3.937 1.307l18.567 18.567c.002.002.005.004.007.007 1.038 1.041 1.513 2.474 1.303 3.934-.479 3.319.601 6.576 2.961 8.938 2.361 2.361 5.617 3.448 8.939 2.963 1.457-.206 2.896.266 3.937 1.307l18.571 18.571c1.041 1.04 1.517 2.475 1.306 3.936-.472 3.271.636 6.613 2.963 8.939 2.362 2.361 5.621 3.438 8.936 2.962 1.461-.211 2.898.266 3.938 1.307l18.571 18.57c1.041 1.041 1.517 2.476 1.306 3.938-.478 3.32.603 6.578 2.964 8.938 2.361 2.361 5.617 3.436 8.936 2.961 1.458-.213 2.893.264 3.933 1.302.002.002.004.005.007.007l9.284 9.284 9.284 9.285c1.467 1.466 1.774 3.747.748 5.547-2.08 3.646-1.735 8.174.877 11.535l3.442 4.425c1.772 2.278 1.569 5.535-.472 7.575l-22.05 22.051c-2.041 2.041-5.297 2.242-7.576.47l-4.426-3.441c-1.897-1.476-4.167-2.228-6.442-2.228-1.751 0-3.504.446-5.092 1.351-1.799 1.026-4.081.719-5.547-.748l-18.572-18.572c-1.04-1.04-1.516-2.475-1.305-3.938.481-3.318-.599-6.575-2.959-8.936zm89.112 17.718c2.694-6.677 1.827-14.525-2.828-20.51l-1.761-2.265c.531-1.446.873-2.936 1.05-4.437 1.506-.178 3.001-.522 4.45-1.056l2.257 1.753c3.753 2.926 8.244 4.365 12.719 4.365 2.659 0 5.313-.51 7.804-1.517l47.825 47.825c-7.234 8.515-15.163 16.444-23.678 23.679zm66.447-165.066c-.443.593-1.028.719-1.337.74-.351.026-.871-.039-1.326-.494l-14.267-14.267c12.274-17.331 10.666-41.551-4.847-57.062-8.379-8.38-19.535-12.995-31.412-12.995-9.331 0-18.21 2.86-25.654 8.145l-14.265-14.265c-.455-.454-.52-.972-.494-1.325.022-.31.148-.894.741-1.337 26.105-19.529 63.168-16.908 86.354 6.054.151.151.302.302.453.453 22.96 23.185 25.582 60.247 6.054 86.353zm-27.768-24.859-40.236-40.236c4.445-2.595 9.52-3.983 14.815-3.983 7.87 0 15.259 3.055 20.805 8.602 9.639 9.639 11.176 24.355 4.616 35.617zm-229.124-109.858 9.791 9.161c4.262 3.986 10.422 5.012 15.717 2.596 1.75-.807 3.842-.432 5.203.93l18.57 18.57c1.038 1.038 1.512 2.47 1.294 3.973-.462 3.32.628 6.573 2.992 8.925 2.359 2.348 5.611 3.421 8.922 2.94 1.459-.208 2.893.263 3.929 1.3l18.571 18.581c1.044 1.044 1.522 2.478 1.312 3.932-.474 3.267.631 6.606 2.957 8.934 2.328 2.329 5.675 3.438 8.932 2.967 1.47-.209 2.909.267 3.95 1.31l18.569 18.568c1.039 1.039 1.514 2.472 1.301 3.937-.479 3.321.601 6.58 2.963 8.942s5.624 3.439 8.946 2.962c1.11-.163 2.222.076 3.14.666 3.484 2.238 8.124 1.229 10.364-2.256 2.239-3.484 1.229-8.125-2.256-10.363-2.505-1.61-5.332-2.612-8.254-2.959-.525-4.316-2.473-8.41-5.596-11.535l-18.57-18.568c-3.122-3.123-7.219-5.073-11.545-5.601-.526-4.316-2.477-8.412-5.604-11.539l-18.572-18.582c-3.125-3.125-7.224-5.074-11.542-5.598-.523-4.319-2.472-8.416-5.598-11.542l-18.57-18.57c-.797-.797-1.659-1.506-2.562-2.141 21.659-7.688 44.37-11.577 67.79-11.577 35.649 0 69.184 9.209 98.369 25.358-17.937-.259-35.503 5.377-49.867 16.123-3.919 2.932-6.368 7.405-6.717 12.274-.347 4.837 1.42 9.577 4.849 13.006v.001l90.445 90.444c3.145 3.145 7.393 4.892 11.807 4.892.398 0 .797-.014 1.197-.043 4.869-.349 9.343-2.797 12.276-6.717 10.745-14.364 16.387-31.924 16.124-49.865 16.148 29.184 25.357 62.718 25.357 98.366 0 31.812-7.508 63.229-21.742 91.49l-41.052-41.052c2.69-6.675 1.823-14.524-2.834-20.522l-1.759-2.254c2.6-7.078.919-15.191-4.539-20.634l-18.572-18.582c-3.127-3.126-7.225-5.075-11.542-5.598-.523-4.319-2.472-8.417-5.598-11.542l-18.57-18.57c-3.123-3.122-7.219-5.072-11.543-5.6-.112-.928-.292-1.851-.537-2.764-1.075-4-5.189-6.37-9.19-5.295-4 1.075-6.371 5.189-5.295 9.19.167.62.206 1.257.12 1.865-.474 3.267.631 6.606 2.957 8.934 2.328 2.33 5.675 3.437 8.935 2.968 1.464-.213 2.906.268 3.948 1.309l18.57 18.57c1.038 1.038 1.512 2.47 1.299 3.935-.479 3.321.601 6.58 2.963 8.942 2.361 2.361 5.624 3.441 8.949 2.961 1.46-.209 2.89.263 3.927 1.3l18.579 18.589c1.462 1.459 1.767 3.734.734 5.545-2.052 3.612-1.723 8.116.889 11.539l3.438 4.404c1.774 2.285 1.572 5.547-.467 7.586l-22.051 22.042c-2.042 2.043-5.294 2.249-7.576.47l-4.409-3.424c-3.354-2.624-7.888-2.974-11.563-.885-1.793 1.026-4.067.716-5.535-.752l-4.643-4.643-13.931-13.932c-.001-.001-.003-.003-.005-.004-1.038-1.044-1.513-2.471-1.301-3.928.479-3.32-.602-6.58-2.964-8.941-2.362-2.36-5.62-3.439-8.948-2.96-1.451.211-2.885-.268-3.929-1.312l-18.57-18.57c-1.038-1.038-1.512-2.471-1.3-3.935.479-3.318-.6-6.574-2.958-8.934-2.327-2.327-5.671-3.431-8.934-2.963-1.468.205-2.907-.268-3.948-1.309l-.001-.001-18.569-18.569c-1.041-1.04-1.517-2.479-1.31-3.935.479-3.321-.601-6.58-2.962-8.942-2.362-2.362-5.625-3.446-8.949-2.961-1.45.205-2.878-.266-3.922-1.305-.001-.001-.001-.002-.002-.002l-18.571-18.57-.004-.004c-1.038-1.038-1.512-2.471-1.3-3.93.474-3.267-.631-6.606-2.957-8.934-2.328-2.33-5.674-3.44-8.933-2.968-1.471.211-2.909-.269-3.95-1.309l-18.57-18.57c-1.041-1.04-1.517-2.479-1.31-3.936.472-3.274-.637-6.618-2.966-8.946-2.327-2.325-5.668-3.432-8.931-2.957-1.462.211-2.896-.262-3.934-1.301l-.004-.004s0 0 0-.001l-18.572-18.572c-.002-.002-.004-.004-.006-.006-1.358-1.361-1.732-3.444-.927-5.19 2.426-5.274 1.411-11.443-2.587-15.718l-9.171-9.802c-1.622-1.733-1.575-4.409.108-6.092l22.315-22.315c1.681-1.68 4.359-1.723 6.098-.096zm-42.417-3.38 1.609-6.973c.22-.959.982-1.72 1.948-1.942l6.955-1.604c.887-.205 1.796.055 2.435.693l7.734 7.734-12.251 12.25-7.735-7.734c-.638-.638-.897-1.547-.695-2.424zm-9.186 13.756 8.189 8.189c-1.776 4.587-1.734 9.691.143 14.262-3.293 3.098-6.489 6.292-9.565 9.56-4.571-1.875-9.673-1.917-14.259-.144l-8.19-8.189c7.326-8.411 15.251-16.334 23.682-23.678zm-47.958 43.388 1.609-6.974c.22-.958.981-1.719 1.948-1.941l6.955-1.604c.886-.204 1.796.055 2.435.693l7.732 7.732-12.25 12.251-7.732-7.732c-.639-.638-.898-1.548-.697-2.425zm35.693 308.851c-45.519-45.519-70.588-106.04-70.588-170.412 0-41.916 10.832-82.851 31.395-118.997l2.502 2.502c-2.6 6.722-1.314 14.572 3.946 20.197l4.422 4.726c-13.336 28.788-20.105 59.566-20.105 91.572 0 50.256 17.532 99.377 49.367 138.313 31.388 38.391 75.174 65.245 123.292 75.618.533.114 1.064.17 1.588.17 3.457 0 6.566-2.405 7.324-5.922.873-4.049-1.702-8.039-5.751-8.912-23.867-5.145-46.591-14.648-67.038-27.812 3.204-.822 6.158-2.295 8.695-4.347 9.474 3.603 20.575.599 26.812-7.985 2.184-3.005 3.59-6.447 4.133-10.076 2.123.122 4.145.036 6.033-.262 12.536-1.985 21.12-13.799 19.135-26.335s-13.804-21.119-26.335-19.137c-1.886.299-3.835.841-5.819 1.616-1.638-3.284-4.039-6.124-7.044-8.307-4.974-3.614-11.06-5.075-17.13-4.114-4.035.639-7.744 2.296-10.843 4.801-3.718-1.424-7.76-1.853-11.796-1.216-6.073.962-11.408 4.23-15.022 9.205-4.299 5.917-8.546 18.825-10.734 26.14l-5.028.796c-.964-1.128-1.917-2.266-2.858-3.416-11.38-13.918-20.785-29.238-28.071-45.474 5.08 1.552 13.593 1.957 21.103 1.957 3.837 0 7.404-.106 10.125-.219l4.338 8.156c1.348 2.534 3.944 3.979 6.628 3.979 1.188 0 2.394-.283 3.516-.88 3.657-1.945 5.045-6.487 3.1-10.144l-4.338-8.156c4.775-6.486 13.67-19.193 16.015-26.869 3.352-10.971-1.385-22.519-10.79-28.202.546-10.972-6.383-21.359-17.356-24.713-4.011-1.225-8.213-1.402-12.272-.532-.64-2.462-1.495-4.707-2.552-6.693-3.081-5.793-8.233-10.038-14.507-11.956-6.273-1.917-12.918-1.276-18.711 1.805-.478.254-.94.527-1.395.808 1.501-16.973 5.097-33.513 10.762-49.479.636.903 1.344 1.765 2.142 2.562l18.572 18.572c3.125 3.125 7.223 5.075 11.542 5.6.525 4.32 2.475 8.417 5.601 11.543l18.571 18.571c3.125 3.125 7.223 5.075 11.542 5.601.525 4.319 2.475 8.417 5.601 11.543l18.572 18.571c3.125 3.125 7.223 5.075 11.542 5.6.525 4.32 2.476 8.419 5.601 11.544l18.571 18.57c3.125 3.126 7.223 5.076 11.542 5.601.525 4.32 2.476 8.419 5.601 11.542l18.571 18.573c3.125 3.125 7.223 5.075 11.542 5.6.525 4.32 2.476 8.418 5.601 11.542l18.572 18.573c5.457 5.457 13.57 7.133 20.641 4.539l2.264 1.761c3.755 2.921 8.245 4.358 12.72 4.358 2.66 0 5.314-.51 7.804-1.516l41.04 41.04c-28.262 14.237-59.679 21.744-91.491 21.744-3.183 0-6.391-.078-9.534-.231-4.134-.183-7.654 2.988-7.857 7.125-.202 4.138 2.988 7.655 7.125 7.857 3.386.165 6.839.249 10.266.249 35.81 0 71.166-8.84 102.633-25.6l13.849 13.849c.887.887 1.834 1.691 2.828 2.417-35.948 20.547-76.786 31.494-119.31 31.494-64.372 0-124.892-25.068-170.412-70.588zm-25.137-159.458c-1.286-1.308-2.348-2.693-2.991-3.9-2.476-4.654-.703-10.455 3.952-12.931 2.255-1.2 4.841-1.451 7.284-.703 2.442.746 4.448 2.399 5.647 4.654.642 1.208 1.197 2.861 1.562 4.658.734 3.617 2.964 6.765 6.118 8.637 3.136 1.863 6.942 2.313 10.444 1.234 1.813-.559 3.737-.56 5.562-.002 5.042 1.54 7.89 6.896 6.348 11.944-.045.146-.096.295-.149.443-.701 1.984-.536 4.172.455 6.028.991 1.857 2.716 3.212 4.755 3.735l.507.122c4.99 1.574 7.799 6.898 6.268 11.913-1.089 3.563-5.251 10.244-9.54 16.456l-7.338-13.797c-1.944-3.655-6.486-5.043-10.144-3.1-3.657 1.945-5.045 6.487-3.1 10.144l7.338 13.797c-7.548.084-15.414-.199-18.978-1.289-5.015-1.532-7.859-6.838-6.375-11.855l.025-.067c.054-.14.106-.28.157-.422.705-1.979.547-4.162-.434-6.019-.981-1.856-2.695-3.218-4.727-3.751-.156-.041-.311-.081-.481-.134-2.442-.746-4.448-2.398-5.647-4.653s-1.449-4.842-.703-7.283c.558-1.825 1.633-3.419 3.11-4.61 2.852-2.301 4.606-5.709 4.815-9.352.211-3.659-1.153-7.268-3.74-9.897zm79.923 101.626c1.645 1.314 3.765 1.876 5.845 1.55s3.926-1.512 5.089-3.267c.079-.119.158-.236.227-.332 2.599-3.576 7.623-4.374 11.202-1.771 1.293.939 2.263 2.227 2.804 3.721 1.198 3.313 3.748 5.978 6.995 7.309 3.264 1.338 6.971 1.229 10.173-.301 1.448-.691 2.887-1.174 4.052-1.357 4.37-.695 8.483 2.299 9.175 6.666s-2.299 8.482-6.666 9.174c-1.168.186-2.686.172-4.276-.039-3.515-.462-7.078.576-9.767 2.857-2.677 2.27-4.278 5.591-4.395 9.111-.052 1.589-.577 3.113-1.517 4.406-2.598 3.578-7.624 4.372-11.184 1.787-.111-.081-.221-.167-.331-.255-1.648-1.312-3.772-1.87-5.852-1.538s-3.925 1.522-5.083 3.282l-.249.389c-2.614 3.51-7.591 4.274-11.142 1.693-2.449-1.78-6.579-6.77-10.509-12.037l15.395-2.438c4.091-.648 6.883-4.49 6.235-8.581-.648-4.092-4.493-6.894-8.581-6.234l-15.395 2.438c2.111-6.224 4.496-12.246 6.276-14.695 2.582-3.554 7.557-4.364 11.147-1.812-.007-.004-.01-.006.002.004zm286.038 57.832c-4.667 4.667-9.5 9.106-14.47 13.338-1.095-3.788-3.13-7.26-5.995-10.125l-7.575-7.575c8.475-7.281 16.399-15.205 23.679-23.678l7.576 7.576c2.921 2.92 6.423 4.91 10.136 5.981-4.237 4.975-8.68 9.812-13.351 14.483z"/><path d="m159.295 122.35c1.154.642 2.403.945 3.636.945 2.635 0 5.192-1.392 6.563-3.858l7.143-12.856c2.012-3.621.707-8.187-2.914-10.198-3.621-2.013-8.187-.707-10.199 2.913l-7.143 12.856c-2.011 3.62-.707 8.186 2.914 10.198z"/><path d="m194.91 157.965c1.154.642 2.403.945 3.636.945 2.635 0 5.192-1.392 6.563-3.858l7.143-12.856c2.012-3.621.707-8.187-2.914-10.198-3.62-2.013-8.187-.707-10.199 2.913l-7.143 12.856c-2.011 3.621-.706 8.186 2.914 10.198z"/><path d="m230.525 193.581c1.154.641 2.403.944 3.636.944 2.635 0 5.192-1.392 6.563-3.858l7.143-12.857c2.012-3.621.707-8.188-2.914-10.199-3.621-2.01-8.187-.706-10.199 2.914l-7.143 12.857c-2.011 3.621-.706 8.187 2.914 10.199z"/><path d="m266.141 229.196c1.154.641 2.403.944 3.635.944 2.636 0 5.192-1.392 6.563-3.858l7.143-12.857c2.012-3.621.707-8.188-2.914-10.199-3.622-2.012-8.187-.707-10.198 2.914l-7.143 12.857c-2.012 3.621-.707 8.188 2.914 10.199z"/><path d="m301.755 264.812c1.154.641 2.403.944 3.636.944 2.635 0 5.192-1.392 6.563-3.858l7.143-12.857c2.012-3.621.707-8.188-2.914-10.199-3.623-2.01-8.187-.706-10.199 2.914l-7.143 12.857c-2.011 3.62-.706 8.187 2.914 10.199z"/><path d="m337.371 300.427c1.154.641 2.403.944 3.636.944 2.635 0 5.192-1.392 6.563-3.858l7.143-12.857c2.012-3.621.707-8.188-2.914-10.199-3.621-2.01-8.187-.706-10.199 2.914l-7.143 12.857c-2.012 3.621-.707 8.187 2.914 10.199z"/><path d="m116.579 153.523c-3.623-2.012-8.188-.707-10.198 2.914l-7.143 12.857c-2.012 3.621-.707 8.188 2.914 10.199 1.154.641 2.403.944 3.635.944 2.636 0 5.192-1.392 6.563-3.858l7.143-12.857c2.012-3.62.707-8.187-2.914-10.199z"/><path d="m152.195 189.139c-3.623-2.01-8.187-.706-10.199 2.914l-7.143 12.857c-2.012 3.621-.707 8.188 2.914 10.199 1.154.641 2.403.944 3.636.944 2.635 0 5.192-1.392 6.563-3.858l7.143-12.857c2.011-3.621.706-8.188-2.914-10.199z"/><path d="m187.81 224.754c-3.623-2.01-8.187-.706-10.199 2.914l-7.143 12.857c-2.012 3.621-.707 8.188 2.914 10.199 1.154.641 2.403.944 3.636.944 2.635 0 5.192-1.392 6.563-3.858l7.143-12.857c2.011-3.621.707-8.187-2.914-10.199z"/><path d="m223.425 260.369c-3.621-2.01-8.187-.706-10.199 2.914l-7.143 12.857c-2.012 3.621-.707 8.188 2.914 10.199 1.154.641 2.403.944 3.636.944 2.635 0 5.192-1.392 6.563-3.858l7.143-12.857c2.012-3.621.707-8.187-2.914-10.199z"/><path d="m261.954 306.184c2.012-3.621.707-8.188-2.914-10.199-3.622-2.011-8.187-.706-10.198 2.914l-7.143 12.857c-2.012 3.621-.707 8.188 2.914 10.199 1.154.641 2.403.944 3.635.944 2.636 0 5.192-1.392 6.563-3.858z"/><path d="m280.227 357.57c1.154.641 2.403.944 3.636.944 2.635 0 5.192-1.392 6.563-3.858l7.143-12.857c2.012-3.621.707-8.188-2.914-10.199-3.623-2.01-8.188-.706-10.199 2.914l-7.143 12.857c-2.011 3.621-.707 8.188 2.914 10.199z"/><path d="m424.925 263.212c4.142 0 7.5-3.357 7.5-7.5v-8.082c0-4.143-3.358-7.5-7.5-7.5s-7.5 3.357-7.5 7.5v8.082c0 4.142 3.358 7.5 7.5 7.5z"/><path d="m255.327 428.228c1.465 1.464 3.384 2.196 5.303 2.196s3.839-.732 5.304-2.197c2.929-2.929 2.928-7.678 0-10.606l-5.714-5.714c-2.93-2.928-7.678-2.929-10.607.001-2.929 2.929-2.928 7.678 0 10.606z"/><path d="m246.394 71.944c-2.93-2.928-7.678-2.929-10.607.001-2.929 2.929-2.928 7.678 0 10.606l5.714 5.714c1.465 1.464 3.384 2.196 5.303 2.196s3.839-.732 5.304-2.197c2.929-2.929 2.928-7.678 0-10.606z"/><path d="m278.101 73.194-5.714 5.714c-2.929 2.929-2.929 7.678 0 10.606 1.465 1.465 3.384 2.197 5.304 2.197s3.839-.732 5.303-2.196l5.714-5.714c2.929-2.929 2.929-7.678 0-10.606-2.93-2.928-7.678-2.929-10.607-.001z"/><path d="m217.336 415.881-5.714 5.715c-2.929 2.929-2.928 7.678 0 10.606 1.465 1.464 3.384 2.196 5.303 2.196s3.839-.732 5.304-2.197l5.714-5.715c2.929-2.929 2.928-7.678 0-10.606-2.93-2.928-7.678-2.929-10.607.001z"/></g></g></svg>