<svg id="Capa_1" enable-background="new 0 0 511.453 511.453" height="512" viewBox="0 0 511.453 511.453" width="512" xmlns="http://www.w3.org/2000/svg"><g><g><g id="XMLID_245_"><g><path d="m297.996 300.588h-87l-23.958 27.401 18.66 154.543 20.518 21.426h58.02l24.278-10.43 16.8-142.573z" fill="#a6e7f0"/><path d="m371.346 300.588-29.287 29.896-29.664 155.876 20.431 17.599h29.4c16.79 0 31.66-10.82 36.85-26.79l42.89-132.14 13.79-44.44h-84.41z" fill="#a6e7f0"/><g fill="#6bd9e7"><path d="m328.825 401.301c8.104 8.104 18.88 12.568 30.342 12.568 23.666 0 42.92-19.254 42.92-42.92v-70.36h-30.74l-29.287 29.896-13.437 70.605c.069.068.132.141.202.211z"/><path d="m205.474 480.673.224 1.859 20.518 21.426h58.02l24.278-10.43 1.515-12.855z"/><path d="m397.383 480.673h-83.906l-1.082 5.687 20.431 17.599h29.4c15.532 0 29.414-9.263 35.517-23.292-.12 0-.239.006-.36.006z"/></g><path d="m371.346 300.588-17.88 92.56-20.64 110.81h-48.59l11.07-158.93 2.69-44.44z" fill="#f9f7f8"/><path d="m161.201 311.721-20.605-11.133h-85.9l56.68 176.58c5.19 15.97 20.06 26.79 36.85 26.79h29.41l17.536-45.349z" fill="#a6e7f0"/><path d="m183.383 480.673c-16.79 0-31.66-10.82-36.85-26.79l-49.205-153.295h-42.632l56.68 176.58c5.19 15.97 20.06 26.79 36.85 26.79h29.41l9.004-23.285z" fill="#6bd9e7"/><path d="m215.146 345.028 11.07 158.93h-48.58l-29.62-158.93-7.42-44.44h70.4z" fill="#f9f7f8"/><path d="m285.858 480.673-1.622 23.285h48.59l4.338-23.285z" fill="#efedef"/><path d="m183.383 480.673c-3.562 0-7.035-.492-10.35-1.411l4.603 24.696h48.58l-1.622-23.285z" fill="#efedef"/></g></g><g><path d="m443.919 265.986c16.305 5.23 28.11 20.51 28.11 38.552 0 22.36-18.126 40.486-40.486 40.486h-351.633c-22.36 0-40.486-18.126-40.486-40.486 0-17.759 11.439-32.836 27.347-38.294l121.788-22.58h215.628z" fill="#fdd79b"/></g><g><g id="XMLID_244_"><g><path d="m297.996 300.588-1.921 31.734c7.064-2.881 13.837-6.491 20.171-10.814v49.441c0 11.462 4.467 22.241 12.578 30.352 5.848 5.848 13.091 9.788 20.975 11.535l3.667-19.688 17.88-92.56z" fill="#efedef"/><path d="m443.919 265.986-39.734-22.322h-158.958-56.669l-99.083 18.37-22.705 4.21c-15.908 5.458-27.347 20.535-27.347 38.294 0 22.36 18.126 40.486 40.486 40.486h56.669c-9.309 0-17.867-7.566-24.673-16.51-8.813-11.58-.3-28.199 14.244-27.728 10.965.355 20.759.672 20.759.672 7.35.238 14.576 1.656 21.477 4.214 6.911 2.562 13.316 6.196 19.042 10.808 19.151 15.411 43.229 23.898 67.798 23.898 21.751 0 43.117-6.651 61.02-18.871v23.516h85.84v-44.643c0-.093.074-.17.167-.173l11.739-.38c14.811-.479 29.088-6.146 40.224-15.977 2.461-2.179 4.727-4.546 6.807-7.055-4.64-4.927-10.502-8.692-17.103-10.809z" fill="#fccd7f"/><path d="m437.846 200.688c13.21 9.69 19.92 25.94 17.38 42.13-1.62 10.4-6.84 19.48-14.27 26.06-7.43 6.56-17.09 10.62-27.61 10.96l-11.74.38c-10.88.35-19.52 9.27-19.52 20.16v70.57c0 12.66-10.26 22.92-22.92 22.92-6.32 0-12.06-2.57-16.2-6.71-4.15-4.15-6.72-9.88-6.72-16.21v-58.61c0-3.37-1.1-6.64-3.14-9.32-3.04-3.99-7.63-6.09-12.28-6.09-3.32 0-6.66 1.07-9.47 3.27-.29.23-.58.47-.87.7-16.13 12.98-35.7 19.48-55.26 19.48s-39.13-6.5-55.26-19.48c-7.45-6-15.78-10.7-24.63-13.98s-18.23-5.14-27.78-5.45l-50.45-1.63c-21.04-.68-38.63-16.22-41.88-37.02-.36-2.27-.53-4.54-.53-6.8 0-13.82 6.55-27 17.91-35.33l35.25-25.85c6.97-5.12 12.28-12.17 15.25-20.29 5.7-15.59 14.59-29.59 25.92-41.23 11.32-11.64 25.08-20.92 40.51-27.04l19.7-7.82 40.32-10.55 51.66 10.55 19.7 7.82c30.86 12.25 55.03 37.09 66.43 68.27 1.48 4.06 3.56 7.85 6.12 11.27 2.58 3.42 5.64 6.46 9.13 9.02z" fill="#ffbee7"/></g></g></g><path d="m381.437 373.158c-6.32 0-12.06-2.57-16.2-6.71-4.15-4.15-6.72-9.88-6.72-16.21v-58.255c0-3.206-.861-6.388-2.675-9.032-3.024-4.407-7.851-6.733-12.745-6.733-3.32 0-6.66 1.07-9.47 3.27-.29.23-.58.47-.87.7-2.115 1.702-4.289 3.291-6.515 4.769-15.956 10.59-37.059 9.831-52.02-2.124-.078-.062-.156-.125-.234-.187-7.45-6-15.78-10.7-24.63-13.98s-18.23-5.14-27.78-5.45l-50.45-1.63c-21.04-.68-38.63-16.22-41.88-37.02-.36-2.27-.53-4.54-.53-6.8 0-13.82 6.55-27 17.91-35.33l35.25-25.85c6.97-5.12 12.28-12.17 15.25-20.29.046-.125.092-.25.138-.375 3.615-9.773 15.234-13.76 24.16-8.384 9.881 5.952 21.445 9.379 33.8 9.379 31.279 0 57.511-21.949 64.149-51.249l-18.159-7.208-51.66-10.55-40.32 10.55-19.7 7.82c-15.43 6.12-29.19 15.4-40.51 27.04-11.33 11.64-20.22 25.64-25.92 41.23-2.97 8.12-8.28 15.17-15.25 20.29l-35.25 25.85c-11.36 8.33-17.91 21.51-17.91 35.33 0 2.26.17 4.53.53 6.8 3.25 20.8 20.84 36.34 41.88 37.02l50.45 1.63c9.55.31 18.93 2.17 27.78 5.45s17.18 7.98 24.63 13.98c16.13 12.98 35.7 19.48 55.26 19.48s39.13-6.5 55.26-19.48c.26-.207.521-.42.781-.629.03-.024.059-.048.089-.071 2.81-2.2 6.15-3.27 9.47-3.27 4.894 0 9.721 2.326 12.745 6.733 1.814 2.643 2.675 5.826 2.675 9.032v58.255c0 6.33 2.57 12.06 6.72 16.21 4.14 4.14 9.88 6.71 16.2 6.71 11.919 0 21.707-9.103 22.813-20.732-.181.003-.36.021-.542.021z" fill="#feaee1"/><circle cx="255.226" cy="71.128" fill="#ee6161" r="45.788"/></g><g><path d="m98.204 189.42c1.54 0 3.093-.473 4.429-1.453l9.663-7.085c8.188-6.004 14.361-14.219 17.851-23.757 10.662-29.143 33.319-52.423 62.161-63.872l12.485-4.956c7.163 20.982 27.057 36.119 50.433 36.119s43.271-15.137 50.433-36.119l12.485 4.956c5.677 2.254 11.23 5.026 16.505 8.241 1.219.743 2.565 1.096 3.896 1.096 2.53 0 4.999-1.28 6.412-3.598 2.155-3.537 1.035-8.152-2.502-10.308-5.997-3.654-12.313-6.807-18.776-9.373l-15.219-6.041c.028-.711.054-1.424.054-2.142 0-21.651-12.987-40.314-31.573-48.645 1.798-2.699 3.876-5.24 6.221-7.585l2.096-2.096c2.929-2.929 2.929-7.678 0-10.606-2.929-2.929-7.678-2.929-10.606 0l-2.096 2.096c-4.218 4.218-7.76 8.927-10.608 13.987-2.203-.279-4.443-.439-6.721-.439-29.383 0-53.288 23.905-53.288 53.288 0 .718.026 1.43.054 2.142l-15.219 6.041c-32.811 13.024-58.584 39.507-70.714 72.659-2.47 6.751-6.839 12.565-12.634 16.815l-9.663 7.086c-3.34 2.449-4.063 7.143-1.613 10.483 1.47 2.004 3.746 3.066 6.054 3.066zm157.022-156.58c.254 0 .504.014.757.019-1.465 5.425-2.238 11.074-2.238 16.845v13.39c0 4.142 3.358 7.5 7.5 7.5s7.5-3.358 7.5-7.5v-13.39c0-4.671.658-9.238 1.908-13.608 13.448 5.946 22.861 19.406 22.861 35.031 0 21.112-17.176 38.288-38.288 38.288s-38.288-17.176-38.288-38.288c.001-21.111 17.177-38.287 38.288-38.287z"/><path d="m479.53 304.538c0-17.448-9.305-33.098-23.938-41.533 3.514-5.676 5.964-12.104 7.049-19.029 2.982-19.037-4.818-37.941-20.357-49.336l-35.256-25.855c-5.796-4.25-10.165-10.063-12.634-16.814-5.672-15.504-14.235-29.51-25.452-41.628-2.813-3.04-7.558-3.223-10.599-.41-3.04 2.813-3.224 7.559-.41 10.599 9.86 10.653 17.388 22.965 22.374 36.594 3.49 9.538 9.663 17.752 17.851 23.756l35.255 25.854c10.998 8.066 16.519 21.446 14.409 34.919-2.697 17.221-17.299 30.128-34.721 30.69l-11.733.378c-15.016.485-26.779 12.634-26.779 27.657v70.566c0 8.502-6.917 15.418-15.418 15.418s-15.419-6.917-15.419-15.418v-58.609c0-4.979-1.66-9.903-4.675-13.866-3.745-4.921-9.185-8.065-15.318-8.853-6.123-.789-12.168.875-17.024 4.68-.32.251-.638.503-.953.757-14.275 11.49-32.229 17.818-50.555 17.818s-36.279-6.328-50.555-17.818c-16.065-12.932-36.264-20.419-56.877-21.084l-50.442-1.627c-17.421-.562-32.024-13.469-34.721-30.69-2.095-13.375 3.36-26.703 14.235-34.78 3.325-2.47 4.019-7.168 1.549-10.493s-7.168-4.018-10.493-1.549c-15.364 11.413-23.07 30.243-20.11 49.144 1.113 7.107 3.67 13.688 7.334 19.472-14.198 8.553-23.222 24.035-23.222 41.09 0 20.091 12.416 37.327 29.973 44.465l42.35 130.484c6.206 19.12 23.88 31.966 43.982 31.966h213.996c20.102 0 37.776-12.846 43.982-31.966l16.355-50.393c1.279-3.94-.879-8.17-4.818-9.449-3.942-1.278-8.17.879-9.449 4.818l-16.355 50.393c-4.192 12.917-16.134 21.597-29.714 21.597h-20.376l17.721-95.099c16.589-.215 30.019-13.769 30.019-30.408v-18.422h41.955c.034 0 .067-.002.1-.003l-13.464 41.484c-1.279 3.94.879 8.17 4.818 9.449.77.25 1.55.368 2.317.368 3.163 0 6.103-2.016 7.132-5.187l15.962-49.181c18.161-6.84 31.119-24.39 31.119-44.916zm-432.606 0c0-12.621 7.197-23.977 18.273-29.498 8.62 7.367 19.67 11.91 31.673 12.298l50.442 1.627c17.379.561 34.41 6.874 47.955 17.777 16.931 13.628 38.225 21.133 59.96 21.133s43.029-7.505 59.961-21.134c.266-.214.533-.426.8-.635 1.668-1.309 3.751-1.879 5.858-1.608 2.12.272 3.999 1.359 5.292 3.059 1.04 1.366 1.612 3.065 1.612 4.783v25.187h-248.84c-18.189-.003-32.986-14.8-32.986-32.989zm186.289 191.915-10.027-143.929h64.082l-10.027 143.929zm-49.35 0-26.819-143.929h51.106l10.027 143.929zm-65.349-21.596-39.713-122.361c.37.008.737.028 1.108.028h61.876l26.819 143.929h-20.377c-13.579 0-25.521-8.679-29.713-21.596zm173.764 21.596 10.027-143.929h26.446v18.422c0 11.645 6.581 21.777 16.216 26.888l-18.377 98.619zm139.265-158.929h-41.955v-37.144c0-6.88 5.387-12.443 12.262-12.665l11.733-.378c12.174-.393 23.37-5.057 32.043-12.611 11.453 5.386 18.903 16.873 18.903 29.811.001 18.19-14.797 32.987-32.986 32.987z"/><path d="m188.659 168.592c-3.169-2.669-7.9-2.262-10.568.906s-2.263 7.9.906 10.568l9.46 7.966c1.407 1.185 3.122 1.763 4.827 1.763 2.136 0 4.257-.908 5.741-2.669 2.668-3.168 2.263-7.9-.906-10.568z"/><path d="m248.71 164.641-5.674 9.958c-2.05 3.599-.795 8.179 2.804 10.229 1.172.667 2.447.985 3.706.985 2.607 0 5.14-1.361 6.523-3.789l5.674-9.958c2.05-3.599.795-8.179-2.804-10.229s-8.177-.795-10.229 2.804z"/><path d="m321.749 154.942c4.142 0 7.5-3.358 7.5-7.5v-8.465c0-4.142-3.358-7.5-7.5-7.5s-7.5 3.358-7.5 7.5v8.465c0 4.142 3.358 7.5 7.5 7.5z"/><path d="m313.382 183.253-8.962-9.958c-2.771-3.08-7.513-3.329-10.592-.558s-3.329 7.513-.558 10.592l8.962 9.958c1.481 1.646 3.525 2.483 5.577 2.483 1.788 0 3.582-.635 5.015-1.925 3.08-2.771 3.329-7.513.558-10.592z"/><path d="m301.014 228.664h-14.119c-4.142 0-7.5 3.358-7.5 7.5s3.358 7.5 7.5 7.5h14.119c4.142 0 7.5-3.358 7.5-7.5s-3.358-7.5-7.5-7.5z"/><path d="m220.192 218.16-5.536 7.469c-2.466 3.328-1.769 8.025 1.559 10.492 1.343.995 2.908 1.475 4.46 1.475 2.294 0 4.56-1.049 6.031-3.034l5.536-7.469c2.466-3.328 1.769-8.025-1.559-10.492s-8.024-1.769-10.491 1.559z"/><path d="m151.868 213.7c-3.557-2.126-8.161-.969-10.287 2.586s-.968 8.16 2.586 10.287l8.807 5.268c1.207.721 2.533 1.064 3.843 1.064 2.551 0 5.039-1.302 6.444-3.651 2.126-3.555.968-8.16-2.586-10.287z"/><path d="m351.965 221.216c1.153.641 2.403.945 3.635.945 2.636 0 5.192-1.392 6.563-3.859l4.979-8.962c2.012-3.621.707-8.187-2.914-10.198-3.62-2.012-8.187-.708-10.198 2.914l-4.979 8.962c-2.012 3.62-.707 8.186 2.914 10.198z"/></g></g></svg>