<svg height="512pt" viewBox="0 0 512 512" width="512pt" xmlns="http://www.w3.org/2000/svg"><path d="m256 7.5c-137.242188 0-248.5 111.257812-248.5 248.5s111.257812 248.5 248.5 248.5 248.5-111.257812 248.5-248.5-111.257812-248.5-248.5-248.5zm-42.371094 314.15625c-13.6875 0-24.785156-11.097656-24.785156-24.789062 0-13.691407 11.097656-24.789063 24.785156-24.789063 13.691406 0 24.789063 11.097656 24.789063 24.789063 0 13.691406-11.097657 24.789062-24.789063 24.789062zm0-81.734375c-13.6875 0-24.785156-11.097656-24.785156-24.789063 0-13.691406 11.097656-24.789062 24.785156-24.789062 13.691406 0 24.789063 11.097656 24.789063 24.789062 0 13.691407-11.097657 24.789063-24.789063 24.789063zm84.742188 81.734375c-13.691406 0-24.789063-11.097656-24.789063-24.789062 0-13.691407 11.097657-24.789063 24.789063-24.789063 13.6875 0 24.785156 11.097656 24.785156 24.789063 0 13.691406-11.097656 24.789062-24.785156 24.789062zm0-81.734375c-13.691406 0-24.789063-11.097656-24.789063-24.789063 0-13.691406 11.097657-24.789062 24.789063-24.789062 13.6875 0 24.785156 11.097656 24.785156 24.789062 0 13.691407-11.097656 24.789063-24.785156 24.789063zm0 0" fill="#ff8383"/><path d="m256 50.746094c-113.359375 0-205.253906 91.894531-205.253906 205.253906s91.894531 205.253906 205.253906 205.253906 205.253906-91.894531 205.253906-205.253906-91.894531-205.253906-205.253906-205.253906zm-42.371094 270.910156c-13.6875 0-24.785156-11.097656-24.785156-24.789062 0-13.691407 11.097656-24.789063 24.785156-24.789063 13.691406 0 24.789063 11.097656 24.789063 24.789063 0 13.691406-11.097657 24.789062-24.789063 24.789062zm0-81.734375c-13.6875 0-24.785156-11.097656-24.785156-24.789063 0-13.691406 11.097656-24.789062 24.785156-24.789062 13.691406 0 24.789063 11.097656 24.789063 24.789062 0 13.691407-11.097657 24.789063-24.789063 24.789063zm84.742188 81.734375c-13.691406 0-24.789063-11.097656-24.789063-24.789062 0-13.691407 11.097657-24.789063 24.789063-24.789063 13.6875 0 24.785156 11.097656 24.785156 24.789063 0 13.691406-11.097656 24.789062-24.785156 24.789062zm0-81.734375c-13.691406 0-24.789063-11.097656-24.789063-24.789063 0-13.691406 11.097657-24.789062 24.789063-24.789062 13.6875 0 24.785156 11.097656 24.785156 24.789062 0 13.691407-11.097656 24.789063-24.785156 24.789063zm0 0" fill="#fc7371"/><path d="m256 50.746094c-10.148438 0-20.117188.75-29.871094 2.171875 99.199219 14.464843 175.386719 99.871093 175.386719 203.082031s-76.1875 188.617188-175.386719 203.082031c9.753906 1.421875 19.722656 2.171875 29.871094 2.171875 113.359375 0 205.253906-91.894531 205.253906-205.253906s-91.894531-205.253906-205.253906-205.253906zm0 0" fill="#d84444"/><path d="m256 512c-68.378906 0-132.667969-26.628906-181.019531-74.980469-48.351563-48.351562-74.980469-112.640625-74.980469-181.019531s26.628906-132.667969 74.980469-181.019531c48.351562-48.351563 112.640625-74.980469 181.019531-74.980469s132.667969 26.628906 181.019531 74.980469c48.351563 48.351562 74.980469 112.640625 74.980469 181.019531s-26.628906 132.667969-74.980469 181.019531c-48.351562 48.351563-112.640625 74.980469-181.019531 74.980469zm0-497c-64.375 0-124.894531 25.066406-170.414062 70.585938-45.519532 45.519531-70.585938 106.039062-70.585938 170.414062s25.066406 124.894531 70.585938 170.414062c45.519531 45.519532 106.039062 70.585938 170.414062 70.585938s124.894531-25.066406 170.414062-70.585938c45.519532-45.519531 70.585938-106.039062 70.585938-170.414062s-25.066406-124.894531-70.585938-170.414062c-45.519531-45.519532-106.039062-70.585938-170.414062-70.585938zm42.371094 314.15625c-17.804688 0-32.289063-14.484375-32.289063-32.289062 0-17.804688 14.484375-32.289063 32.289063-32.289063 17.804687 0 32.289062 14.484375 32.289062 32.289063-.003906 17.804687-14.488281 32.289062-32.289062 32.289062zm0-49.578125c-9.535156 0-17.289063 7.757813-17.289063 17.289063s7.753907 17.289062 17.289063 17.289062c9.53125 0 17.289062-7.753906 17.289062-17.289062-.003906-9.53125-7.757812-17.289063-17.289062-17.289063zm-84.742188 49.578125c-17.804687 0-32.289062-14.484375-32.289062-32.289062 0-17.804688 14.484375-32.289063 32.289062-32.289063 17.804688 0 32.289063 14.484375 32.289063 32.289063 0 17.804687-14.484375 32.289062-32.289063 32.289062zm0-49.578125c-9.53125 0-17.289062 7.757813-17.289062 17.289063s7.757812 17.289062 17.289062 17.289062c9.535156 0 17.289063-7.753906 17.289063-17.289062 0-9.53125-7.753907-17.289063-17.289063-17.289063zm84.742188-32.15625c-17.804688 0-32.289063-14.484375-32.289063-32.289063 0-17.804687 14.484375-32.289062 32.289063-32.289062 17.804687 0 32.289062 14.484375 32.289062 32.289062-.003906 17.804688-14.488281 32.289063-32.289062 32.289063zm0-49.578125c-9.535156 0-17.289063 7.753906-17.289063 17.289062 0 9.53125 7.753907 17.289063 17.289063 17.289063 9.53125 0 17.289062-7.757813 17.289062-17.289063-.003906-9.53125-7.757812-17.289062-17.289062-17.289062zm-84.742188 49.578125c-17.804687 0-32.289062-14.484375-32.289062-32.289063 0-17.804687 14.484375-32.289062 32.289062-32.289062 17.804688 0 32.289063 14.484375 32.289063 32.289062 0 17.804688-14.484375 32.289063-32.289063 32.289063zm0-49.578125c-9.53125 0-17.289062 7.753906-17.289062 17.289062 0 9.53125 7.757812 17.289063 17.289062 17.289063 9.535156 0 17.289063-7.757813 17.289063-17.289063s-7.753907-17.289062-17.289063-17.289062zm0 0"/><path d="m256 468.753906c-117.3125 0-212.753906-95.441406-212.753906-212.753906 0-51.074219 18.367187-100.457031 51.722656-139.050781 2.710938-3.132813 7.445312-3.476563 10.582031-.769531 3.132813 2.707031 3.476563 7.445312.769531 10.578124-31 35.871094-48.074218 81.769532-48.074218 129.242188 0 109.042969 88.710937 197.753906 197.753906 197.753906 47.472656 0 93.371094-17.070312 129.242188-48.070312 3.132812-2.707032 7.871093-2.363282 10.578124.769531 2.707032 3.132813 2.363282 7.871094-.769531 10.578125-38.597656 33.355469-87.976562 51.722656-139.050781 51.722656zm155.351562-71.109375c-1.734374 0-3.480468-.597656-4.898437-1.824219-3.136719-2.707031-3.480469-7.445312-.769531-10.578124 31-35.871094 48.070312-81.769532 48.070312-129.242188 0-109.042969-88.710937-197.753906-197.753906-197.753906-47.394531 0-93.238281 17.023437-129.082031 47.933594-3.136719 2.707031-7.871094 2.355468-10.578125-.78125-2.703125-3.136719-2.355469-7.871094.78125-10.578126 38.566406-33.257812 87.886718-51.574218 138.878906-51.574218 117.3125 0 212.753906 95.441406 212.753906 212.753906 0 51.074219-18.367187 100.457031-51.722656 139.050781-1.484375 1.714844-3.574219 2.59375-5.679688 2.59375zm-112.980468-68.488281c-17.804688 0-32.289063-14.484375-32.289063-32.289062 0-17.804688 14.484375-32.289063 32.289063-32.289063 17.804687 0 32.289062 14.484375 32.289062 32.289063-.003906 17.804687-14.484375 32.289062-32.289062 32.289062zm0-49.578125c-9.535156 0-17.289063 7.757813-17.289063 17.289063s7.753907 17.289062 17.289063 17.289062c9.53125 0 17.289062-7.757812 17.289062-17.289062s-7.757812-17.289063-17.289062-17.289063zm-84.742188 49.578125c-17.804687 0-32.289062-14.484375-32.289062-32.289062 0-17.804688 14.484375-32.289063 32.289062-32.289063 17.804688 0 32.289063 14.484375 32.289063 32.289063 0 17.804687-14.484375 32.289062-32.289063 32.289062zm0-49.578125c-9.53125 0-17.289062 7.757813-17.289062 17.289063s7.757812 17.289062 17.289062 17.289062c9.535156 0 17.289063-7.757812 17.289063-17.289062s-7.753907-17.289063-17.289063-17.289063zm84.742188-32.15625c-17.804688 0-32.289063-14.484375-32.289063-32.289063 0-17.804687 14.484375-32.289062 32.289063-32.289062 17.804687 0 32.289062 14.484375 32.289062 32.289062-.003906 17.804688-14.484375 32.289063-32.289062 32.289063zm0-49.578125c-9.535156 0-17.289063 7.757812-17.289063 17.289062s7.753907 17.289063 17.289063 17.289063c9.53125 0 17.289062-7.757813 17.289062-17.289063s-7.757812-17.289062-17.289062-17.289062zm-84.742188 49.578125c-17.804687 0-32.289062-14.484375-32.289062-32.289063 0-17.804687 14.484375-32.289062 32.289062-32.289062 17.804688 0 32.289063 14.484375 32.289063 32.289062 0 17.804688-14.484375 32.289063-32.289063 32.289063zm0-49.578125c-9.53125 0-17.289062 7.757812-17.289062 17.289062s7.757812 17.289063 17.289062 17.289063c9.535156 0 17.289063-7.757813 17.289063-17.289063s-7.753907-17.289062-17.289063-17.289062zm0 0"/></svg>