<svg id="Capa_1" enable-background="new 0 0 512 512" height="512" viewBox="0 0 512 512" width="512" xmlns="http://www.w3.org/2000/svg"><g><g><g><path d="m173.517 391.882h94.553v52.575h-94.553z" fill="#6e61b6"/></g><g><path d="m173.517 391.882h33.93v52.575h-33.93z" fill="#6354b1"/></g><path d="m398.905 369.817c0-13.683 5.279-26.192 13.896-35.597h-400.067l-5.234 1v42.661c0 8.284 6.716 15 15 15h376.405z" fill="#54469c"/><g><path d="m50 377.882v-42.662l5.234-1h-42.5l-5.234 1v42.661c0 8.284 6.716 15 15 15h42.5c-8.284.001-15-6.715-15-14.999z" fill="#463b84"/></g><g><path d="m295.181 443.457h-148.774c-12.959 0-23.464 10.505-23.464 23.464v12.017c0 1.657 1.343 3 3 3h189.703c1.657 0 3-1.343 3-3v-12.017c-.001-12.959-10.506-23.464-23.465-23.464z" fill="#54469c"/></g><g><path d="m173.297 478.938v-12.017c0-12.959 10.505-23.464 23.464-23.464h-50.355c-12.959 0-23.464 10.505-23.464 23.464v12.017c0 1.657 1.343 3 3 3h50.355c-1.656 0-3-1.344-3-3z" fill="#463b84"/></g><path d="m356.676 163c-2.761 0-5-2.239-5-5v-60.871h-329.176c-8.284 0-15 6.716-15 15v223.091h404.422c5.918-6.791 13.529-12.068 22.166-15.15v-157.07z" fill="#eaf6ff"/><g><path d="m65 97.129h-42.5c-8.284 0-15 6.716-15 15v223.091h42.5v-223.091c0-8.284 6.716-15 15-15z" fill="#d8ecfe"/></g><path d="m365.922 211.709c-7.316 0-14.155 2.042-19.979 5.587l11.566 18.268c1.265 1.997-.17 4.605-2.535 4.605h-26.207c-.86 3.196-1.326 6.553-1.326 10.021 0 21.252 17.229 38.481 38.481 38.481s38.481-17.229 38.481-38.481c-.001-21.252-17.229-38.481-38.481-38.481z" fill="#fed402"/><g fill="#fac600"><path d="m356.544 234.041c4.339-9.366 12.336-16.692 22.157-20.15-4-1.408-8.298-2.182-12.78-2.182-7.316 0-14.155 2.042-19.979 5.587z"/><path d="m353 250.19c0-3.468.465-6.825 1.326-10.021h-25.559c-.86 3.196-1.326 6.553-1.326 10.021 0 21.252 17.229 38.481 38.481 38.481 4.481 0 8.78-.774 12.78-2.182-14.969-5.271-25.702-19.528-25.702-36.299z"/></g><g><g><path d="m451.703 481.938c-29.039 0-52.798-23.759-52.798-52.797v-59.323c0-29.039 23.759-52.797 52.797-52.797 29.039 0 52.797 23.759 52.797 52.797v59.323c.001 29.038-23.758 52.797-52.796 52.797z" fill="#eaf6ff"/></g><g><path d="m432.405 429.14v-59.323c0-23.188 15.157-42.996 36.048-50.041-5.271-1.777-10.9-2.756-16.75-2.756-29.039 0-52.797 23.759-52.797 52.797v59.323c0 29.039 23.759 52.797 52.797 52.797 5.85 0 11.479-.979 16.75-2.756-20.891-7.045-36.048-26.853-36.048-50.041z" fill="#d8ecfe"/></g><g><path d="m451.703 389.759c-8.191 0-14.831-6.64-14.831-14.831v-11.408c0-8.191 6.64-14.831 14.831-14.831 8.191 0 14.831 6.64 14.831 14.831v11.408c-.001 8.191-6.641 14.831-14.831 14.831z" fill="#0ed290"/></g></g><path d="m230.017 240.169c-2.364 0-3.799-2.607-2.535-4.605l44.49-70.27h-100.952c-1.657 0-3 1.343-3 3v117.376c0 1.657 1.343 3 3 3h117.376c1.657 0 3-1.343 3-3v-45.501z" fill="#0ed290"/><g><path d="m202 285.671v-117.376c0-1.657 1.343-3 3-3h-33.98c-1.657 0-3 1.343-3 3v117.376c0 1.657 1.343 3 3 3h33.98c-1.657 0-3-1.343-3-3z" fill="#00c285"/></g><g><path d="m289.961 136.883-62.478 98.682c-1.265 1.997.171 4.605 2.535 4.605h124.957c2.364 0 3.799-2.607 2.535-4.605l-62.478-98.682c-1.179-1.861-3.893-1.861-5.071 0z" fill="#fd4755"/></g><g><path d="m261.47 235.565 48.019-75.844-14.459-22.837c-1.178-1.86-3.892-1.86-5.069 0l-62.478 98.682c-1.265 1.997.171 4.605 2.535 4.605h33.988c-2.365-.002-3.8-2.609-2.536-4.606z" fill="#fb2b3a"/></g><g><path d="m7.5 298.329h33.481c2.761 0 5-2.239 5-5v-121.437h-38.481z" fill="#6e61b6"/></g><g><path d="m45.981 171.892h-38.481v-32.984h33.481c2.761 0 5 2.239 5 5z" fill="#463b84"/></g><g><g><path d="m356.676 163h142.824c2.761 0 5-2.239 5-5v-77.368h-152.824v77.368c0 2.761 2.239 5 5 5z" fill="#ffe5c2"/></g><g><path d="m385.176 158v-77.368h-33.5v77.368c0 2.761 2.239 5 5 5h33.5c-2.761 0-5-2.239-5-5z" fill="#fed2a4"/></g><g><path d="m504.5 80.632h-152.824v-22.487c0-2.761 2.239-5 5-5h142.824c2.761 0 5 2.239 5 5z" fill="#6e61b6"/></g><g><path d="m390.176 53.145h-33.5c-2.761 0-5 2.239-5 5v22.486h33.5v-22.486c0-2.761 2.239-5 5-5z" fill="#6354b1"/></g></g></g><g><g><g><path d="m43.683 32.34-1-2.277h-25.183c-5.523 0-10 4.477-10 10v18.481c0 5.523 4.477 10 10 10h25.182l1-2.35v-33.854z" fill="#fd4755"/></g><g><path d="m17.5 52c-5.523 0-10-4.477-10-10v16.543c0 5.523 4.477 10 10 10h25.182l1-2.35v-16.543l-1 2.35z" fill="#fb2b3a"/></g><g><path d="m259.589 46.554-37.696-16.492-1 2.017v34.155l1 2.309 37.696-16.492c2.397-1.048 2.397-4.448 0-5.497z" fill="#54469c"/></g><g><path d="m259.589 46.554-12.625-5.523-25.071 10.969v16.543l37.696-16.492c2.397-1.048 2.397-4.448 0-5.497z" fill="#463b84"/></g></g><g><path d="m42.682 30.063h179.211v38.481h-179.211z" fill="#fed402"/></g><g><path d="m67.789 52v-21.937h-25.107v38.48h179.211v-16.543z" fill="#fac600"/></g></g><g><path d="m135.036 157.795h-54.973c-4.143 0-7.5 3.358-7.5 7.5s3.357 7.5 7.5 7.5h54.973c4.143 0 7.5-3.358 7.5-7.5s-3.357-7.5-7.5-7.5z"/><path d="m135.036 181.983h-54.973c-4.143 0-7.5 3.358-7.5 7.5s3.357 7.5 7.5 7.5h54.973c4.143 0 7.5-3.358 7.5-7.5s-3.357-7.5-7.5-7.5z"/><path d="m135.036 206.171h-54.973c-4.143 0-7.5 3.358-7.5 7.5s3.357 7.5 7.5 7.5h54.973c4.143 0 7.5-3.358 7.5-7.5s-3.357-7.5-7.5-7.5z"/><path d="m135.036 242.453h-54.973c-4.143 0-7.5 3.358-7.5 7.5s3.357 7.5 7.5 7.5h54.973c4.143 0 7.5-3.358 7.5-7.5s-3.357-7.5-7.5-7.5z"/><path d="m135.036 266.641h-54.973c-4.143 0-7.5 3.358-7.5 7.5s3.357 7.5 7.5 7.5h54.973c4.143 0 7.5-3.358 7.5-7.5s-3.357-7.5-7.5-7.5z"/><path d="m108.649 290.829h-28.586c-4.143 0-7.5 3.358-7.5 7.5s3.357 7.5 7.5 7.5h28.586c4.143 0 7.5-3.358 7.5-7.5s-3.357-7.5-7.5-7.5z"/><path d="m301.367 132.871c-1.936-3.058-5.252-4.883-8.872-4.883-3.619 0-6.936 1.825-8.871 4.883l-15.781 24.925h-96.823c-5.79 0-10.5 4.71-10.5 10.5v117.375c0 5.79 4.71 10.5 10.5 10.5h117.375c5.79 0 10.5-4.71 10.5-10.5v-38.001h21.116c-.046.834-.071 1.675-.071 2.521 0 25.354 20.627 45.981 45.981 45.981s45.98-20.627 45.98-45.981-20.627-45.981-45.98-45.981c-6.101 0-11.926 1.198-17.257 3.366zm-17.471 148.3h-108.375v-108.376h82.826l-37.201 58.757c-2.048 3.234-2.173 7.326-.327 10.68 1.847 3.354 5.371 5.437 9.199 5.437h53.878zm-45.704-48.502 54.304-85.77 54.303 85.77zm125.654-1.117-6.954-10.984c2.86-.874 5.888-1.359 9.031-1.359 17.083 0 30.98 13.898 30.98 30.981s-13.897 30.981-30.98 30.981-30.981-13.898-30.981-30.981c0-.849.038-1.689.106-2.521h19.928c3.827 0 7.352-2.083 9.198-5.437 1.845-3.353 1.72-7.445-.328-10.68z"/><path d="m481.917 109.218c0-4.142-3.357-7.5-7.5-7.5h-92.657c-4.143 0-7.5 3.358-7.5 7.5s3.357 7.5 7.5 7.5h92.657c4.143 0 7.5-3.358 7.5-7.5z"/><path d="m381.76 125.5c-4.143 0-7.5 3.358-7.5 7.5s3.357 7.5 7.5 7.5h27.677c4.143 0 7.5-3.358 7.5-7.5s-3.357-7.5-7.5-7.5z"/><path d="m437.113 140.5h37.304c4.143 0 7.5-3.358 7.5-7.5s-3.357-7.5-7.5-7.5h-37.304c-4.143 0-7.5 3.358-7.5 7.5s3.358 7.5 7.5 7.5z"/><path d="m485 170.5h14.5c6.893 0 12.5-5.607 12.5-12.5v-99.854c0-6.893-5.607-12.5-12.5-12.5h-142.824c-6.893 0-12.5 5.607-12.5 12.5v31.483h-321.676c-12.406 0-22.5 10.093-22.5 22.5v265.753c0 12.407 10.094 22.5 22.5 22.5h143.518v35.575h-19.61c-17.074 0-30.965 13.891-30.965 30.964v12.017c0 5.79 4.71 10.5 10.5 10.5h189.703c5.79 0 10.5-4.71 10.5-10.5v-12.017c0-17.074-13.891-30.964-30.965-30.964h-19.61v-35.575h115.835v28.758c0 33.248 27.049 60.297 60.297 60.297s60.297-27.049 60.297-60.297v-59.323c0-33.248-27.05-60.297-60.298-60.297-3.448 0-6.823.307-10.114.865v-139.885h8.412c4.143 0 7.5-3.358 7.5-7.5s-3.357-7.5-7.5-7.5h-90.824v-67.368h137.824v67.368h-12c-4.143 0-7.5 3.358-7.5 7.5s3.357 7.5 7.5 7.5zm-470-24.092h23.48v17.984h-23.48zm0 32.984h23.48v111.437h-23.48zm280.181 271.565c8.803 0 15.965 7.162 15.965 15.964v7.517h-180.704v-7.517c0-8.803 7.162-15.964 15.965-15.964zm-114.163-15v-35.575h79.553v35.575zm263.354-72.437c0-4.042 3.288-7.331 7.33-7.331s7.331 3.289 7.331 7.331v11.409c0 4.042-3.289 7.331-7.331 7.331s-7.33-3.289-7.33-7.331zm-.17-38.368v17.337c-8.634 3.089-14.83 11.348-14.83 21.031v11.409c0 9.683 6.196 17.942 14.83 21.031v11.231c0 4.142 3.357 7.5 7.5 7.5s7.5-3.358 7.5-7.5v-11.231c8.635-3.088 14.831-11.348 14.831-21.031v-11.409c0-9.683-6.196-17.943-14.831-21.031v-17.337c21.419 3.585 37.798 22.243 37.798 44.665v59.323c0 24.977-20.32 45.297-45.298 45.297-24.977 0-45.297-20.32-45.297-45.297v-59.323c0-22.421 16.379-41.079 37.797-44.665zm-17.614-154.652v144.52c-6.765 3.113-12.857 7.436-17.998 12.7h-245.59c-4.143 0-7.5 3.358-7.5 7.5s3.357 7.5 7.5 7.5h234.862c-4.12 8.153-6.457 17.354-6.457 27.097v15.565h-368.905c-4.136 0-7.5-3.364-7.5-7.5v-35.162h113c4.143 0 7.5-3.358 7.5-7.5s-3.357-7.5-7.5-7.5h-113v-21.891h25.98c6.893 0 12.5-5.607 12.5-12.5v-121.437-27.984c0-6.893-5.607-12.5-12.5-12.5h-25.98v-19.279c0-4.136 3.364-7.5 7.5-7.5h321.676v53.371c0 6.893 5.607 12.5 12.5 12.5zm-67.412-97.368v-12.486h137.824v12.486z"/><path d="m207.051 369.597h27.486c4.143 0 7.5-3.358 7.5-7.5s-3.357-7.5-7.5-7.5h-27.486c-4.143 0-7.5 3.358-7.5 7.5s3.357 7.5 7.5 7.5z"/><path d="m17.5 76.043h204.394c.793 0 1.557-.125 2.275-.353l38.426-16.767c3.822-1.671 6.293-5.447 6.293-9.619.001-4.172-2.469-7.948-6.292-9.621l-37.697-16.491c-.92-.403-1.935-.63-3.004-.63h-103.895c-4.143 0-7.5 3.358-7.5 7.5s3.357 7.5 7.5 7.5h96.394v23.481h-164.211v-23.48h32.817c4.143 0 7.5-3.358 7.5-7.5s-3.357-7.5-7.5-7.5h-65.5c-9.649 0-17.5 7.851-17.5 17.5v18.481c0 9.649 7.851 17.499 17.5 17.499zm211.894-34.513 17.766 7.772-17.766 7.773zm-214.394-1.467c0-1.378 1.121-2.5 2.5-2.5h17.683v23.481h-17.683c-1.379 0-2.5-1.122-2.5-2.5z"/></g></g></svg>