<svg id="Capa_1" enable-background="new 0 0 512 512" viewBox="0 0 512 512" xmlns="http://www.w3.org/2000/svg"><g><g><g><path d="m386.33 71.378v418.702c0 7.97-6.46 14.42-14.42 14.42h-231.82c-7.96 0-14.42-6.45-14.42-14.42v-418.702c0-7.97 6.46-14.42 14.42-14.42h231.82c7.96 0 14.42 6.45 14.42 14.42z" fill="#dcf5f8"/><path d="m371.91 56.958h-34.015c7.96 0 14.42 6.45 14.42 14.42v418.702c0 7.97-6.46 14.42-14.42 14.42h34.015c7.96 0 14.42-6.45 14.42-14.42v-418.702c0-7.97-6.46-14.42-14.42-14.42z" fill="#c8effe"/><path d="m386.33 442.96v47.12c0 7.97-6.46 14.42-14.42 14.42h-231.82c-7.96 0-14.42-6.45-14.42-14.42v-47.12z" fill="#8d9ca8"/><path d="m352.315 442.96v47.12c0 7.97-6.46 14.42-14.42 14.42h34.015c7.96 0 14.42-6.45 14.42-14.42v-47.12z" fill="#7a8c98"/><g><path d="m268.134 481.23h-24.268c-4.142 0-7.5-3.358-7.5-7.5s3.358-7.5 7.5-7.5h24.268c4.143 0 7.5 3.358 7.5 7.5s-3.358 7.5-7.5 7.5z"/></g></g><path d="m306.422 411.202h-100.845c-12.36 0-22.38-10.02-22.38-22.38 0-12.36 10.02-22.38 22.38-22.38h100.845c12.36 0 22.38 10.02 22.38 22.38 0 12.36-10.019 22.38-22.38 22.38z" fill="#62dbfb"/><g><path d="m105.031 144.41c-16.676 0-30.194-13.518-30.194-30.194v-68.823c0-20.928 16.965-37.893 37.893-37.893h22.494v106.716c.001 16.676-13.517 30.194-30.193 30.194z" fill="#62dbfb"/><path d="m165.419 144.41c-16.676 0-30.194-13.518-30.194-30.194v-106.716h60.387v106.716c.001 16.676-13.518 30.194-30.193 30.194z" fill="#6c7fd8"/><path d="m225.806 144.41c-16.676 0-30.194-13.518-30.194-30.194v-106.716h60.388v106.716c0 16.676-13.518 30.194-30.194 30.194z" fill="#62dbfb"/><path d="m286.194 144.41c-16.676 0-30.194-13.518-30.194-30.194v-106.716h60.387v106.716c0 16.676-13.518 30.194-30.193 30.194z" fill="#6c7fd8"/><path d="m346.581 144.41c-16.676 0-30.194-13.518-30.194-30.194v-106.716h60.387v106.716c.001 16.676-13.517 30.194-30.193 30.194z" fill="#62dbfb"/><path d="m406.969 144.41c-16.676 0-30.194-13.518-30.194-30.194v-106.716h22.494c20.928 0 37.893 16.965 37.893 37.893v68.823c0 16.676-13.518 30.194-30.193 30.194z" fill="#6c7fd8"/></g><g><path d="m112.731 7.5c-4.018 0-7.887.63-11.521 1.789v104.927c0 10.367-5.226 19.511-13.186 24.948 4.844 3.309 10.699 5.246 17.008 5.246 16.675 0 30.194-13.518 30.194-30.194v-106.716z" fill="#01d0fb"/><path d="m161.597 7.5v106.716c0 10.367-5.227 19.511-13.186 24.948 4.844 3.309 10.699 5.246 17.008 5.246 16.676 0 30.194-13.518 30.194-30.194v-106.716z" fill="#4f66d0"/><path d="m221.985 7.5v106.716c0 10.367-5.227 19.511-13.186 24.948 4.844 3.309 10.699 5.246 17.008 5.246 16.675 0 30.194-13.518 30.194-30.194v-106.716z" fill="#01d0fb"/><path d="m282.372 7.5v106.716c0 10.367-5.227 19.511-13.186 24.948 4.844 3.309 10.699 5.246 17.008 5.246 16.676 0 30.194-13.518 30.194-30.194v-106.716z" fill="#4f66d0"/><path d="m342.76 7.5v106.716c0 10.367-5.227 19.511-13.186 24.948 4.844 3.309 10.699 5.246 17.008 5.246 16.675 0 30.194-13.518 30.194-30.194v-106.716z" fill="#01d0fb"/><path d="m399.269 7.5h-22.494v1.789c15.293 4.876 26.372 19.194 26.372 36.104v68.823c0 10.367-5.226 19.511-13.186 24.948 4.844 3.309 10.699 5.246 17.008 5.246 16.676 0 30.194-13.518 30.194-30.194v-68.823c-.001-20.928-16.966-37.893-37.894-37.893z" fill="#4f66d0"/></g><g><path d="m301.072 281.507h-75.657c-5.774 0-10.719-4.135-11.742-9.818l-10.879-60.46h123.456c7.589 0 12.766 7.681 9.917 14.715l-17.771 43.887c-2.857 7.057-9.71 11.676-17.324 11.676z" fill="#cb97e7"/></g></g><g><path d="m243.866 481.23h24.268c4.143 0 7.5-3.358 7.5-7.5s-3.357-7.5-7.5-7.5h-24.268c-4.142 0-7.5 3.358-7.5 7.5s3.358 7.5 7.5 7.5z"/><path d="m205.578 358.942c-16.476 0-29.88 13.404-29.88 29.88s13.404 29.88 29.88 29.88h100.845c16.476 0 29.88-13.404 29.88-29.88s-13.404-29.88-29.88-29.88zm115.725 29.88c0 8.205-6.675 14.88-14.88 14.88h-100.845c-8.205 0-14.88-6.675-14.88-14.88s6.675-14.88 14.88-14.88h100.845c8.205 0 14.88 6.675 14.88 14.88z"/><path d="m399.269 0h-286.538c-25.03 0-45.393 20.363-45.393 45.394v68.823c0 20.785 16.909 37.694 37.693 37.694 4.619 0 9.045-.839 13.139-2.367v340.536c0 1.133.086 2.246.253 3.334 1.61 10.51 10.713 18.586 21.667 18.586h231.82c12.087 0 21.92-9.833 21.92-21.92v-47.12c0-4.142-3.357-7.5-7.5-7.5h-253.16v-296.199c.718-.806 1.407-1.638 2.055-2.504 6.88 9.193 17.854 15.153 30.194 15.153s23.313-5.96 30.193-15.153c6.88 9.193 17.854 15.153 30.194 15.153s23.314-5.96 30.194-15.153c6.88 9.193 17.854 15.153 30.193 15.153 12.34 0 23.314-5.96 30.194-15.153 6.88 9.193 17.854 15.153 30.193 15.153s23.313-5.96 30.193-15.153c.648.866 1.337 1.698 2.056 2.504v268.659c0 4.142 3.357 7.5 7.5 7.5s7.5-3.358 7.5-7.5v-258.376c4.093 1.527 8.519 2.367 13.139 2.367 20.784 0 37.693-16.909 37.693-37.694v-68.823c.001-25.031-20.362-45.394-45.392-45.394zm-20.439 450.46v39.62c0 3.815-3.104 6.92-6.92 6.92h-231.82c-3.815 0-6.92-3.104-6.92-6.92v-39.62zm-273.799-313.55c-12.513 0-22.693-10.181-22.693-22.694v-68.822c0-16.76 13.634-30.394 30.393-30.394h14.994v99.216c0 12.513-10.18 22.694-22.694 22.694zm60.388 0c-12.514 0-22.694-10.181-22.694-22.694v-99.216h45.387v99.216c0 12.513-10.18 22.694-22.693 22.694zm60.387 0c-12.514 0-22.694-10.181-22.694-22.694v-99.216h45.388v99.216c0 12.513-10.18 22.694-22.694 22.694zm60.387 0c-12.513 0-22.693-10.181-22.693-22.694v-99.216h45.388v99.216c0 12.513-10.181 22.694-22.695 22.694zm60.388 0c-12.513 0-22.693-10.181-22.693-22.694v-99.216h45.387v99.216c-.001 12.513-10.181 22.694-22.694 22.694zm83.081-22.694c0 12.513-10.181 22.694-22.693 22.694-12.514 0-22.694-10.181-22.694-22.694v-99.216h14.994c16.759 0 30.394 13.634 30.394 30.394v68.822z"/><path d="m341.342 211.757c-3.388-5.027-9.03-8.028-15.092-8.028h-87.984c-4.142 0-7.5 3.358-7.5 7.5s3.358 7.5 7.5 7.5h87.984c1.48 0 2.298.884 2.653 1.412.355.527.868 1.616.312 2.988l-17.771 43.887c-1.719 4.247-5.79 6.991-10.372 6.991h-75.657c-2.146 0-3.98-1.533-4.361-3.646l-12.705-70.338c-2.969-16.06-16.978-27.716-33.31-27.716-4.142 0-7.5 3.358-7.5 7.5s3.358 7.5 7.5 7.5c9.1 0 16.906 6.495 18.56 15.443l12.692 70.268c.929 5.162 3.84 9.531 7.861 12.392l-5.299 10.616c-2.581 5.17-2.307 11.191.732 16.105s8.304 7.849 14.083 7.849h14.399v3.933c0 4.142 3.358 7.5 7.5 7.5s7.5-3.358 7.5-7.5v-3.933h29.461v3.933c0 4.142 3.357 7.5 7.5 7.5s7.5-3.358 7.5-7.5v-3.933h13.774c4.143 0 7.5-3.358 7.5-7.5s-3.357-7.5-7.5-7.5h-87.634c-.718 0-1.117-.402-1.325-.739s-.39-.874-.069-1.516l6.848-13.718h71.95c10.723 0 20.252-6.422 24.276-16.361l17.771-43.888c2.276-5.618 1.611-11.974-1.777-17.001z"/></g></g><g/><g/><g/><g/><g/><g/><g/><g/><g/><g/><g/><g/><g/><g/><g/></svg>