<svg id="Capa_1" enable-background="new 0 0 512 512" height="512" viewBox="0 0 512 512" width="512" xmlns="http://www.w3.org/2000/svg"><g><circle cx="342.885" cy="342.467" fill="#b3e59f" r="161.615"/><path d="m342.885 180.852c-6.477 0-12.861.393-19.138 1.133 80.235 9.468 142.477 77.701 142.477 160.481s-62.242 151.014-142.477 160.482c6.278.741 12.662 1.133 19.138 1.133 89.257 0 161.615-72.357 161.615-161.615s-72.358-161.614-161.615-161.614z" fill="#95d6a4"/><circle cx="169.115" cy="169.533" fill="#ffe07d" r="161.615"/><path d="m169.115 7.918c-6.477 0-12.861.393-19.138 1.133 80.235 9.468 142.477 77.701 142.477 160.481s-62.241 151.014-142.477 160.482c6.278.741 12.662 1.133 19.138 1.133 89.257 0 161.615-72.357 161.615-161.615s-72.358-161.614-161.615-161.614z" fill="#ffd064"/><g><path d="m500.19 280.268c-1.525-3.854-5.887-5.738-9.733-4.214-3.852 1.524-5.738 5.882-4.214 9.733 7.137 18.036 10.757 37.105 10.757 56.68 0 84.979-69.136 154.115-154.114 154.115-84.979 0-154.115-69.136-154.115-154.115 0-1.648.033-3.305.086-4.959 9.172-1.065 18.195-2.875 27-5.402-.277 3.444-.419 6.906-.419 10.361 0 70.275 57.173 127.448 127.448 127.448 70.274 0 127.447-57.173 127.447-127.448s-57.173-127.449-127.448-127.449c-3.658 0-7.321.157-10.964.468 2.473-8.802 4.233-17.835 5.253-27.029 1.905-.069 3.813-.106 5.711-.106 53.045 0 101.715 26.774 130.193 71.621 1.429 2.25 3.856 3.48 6.338 3.48 1.375 0 2.767-.378 4.014-1.17 3.497-2.22 4.531-6.854 2.311-10.352-31.245-49.204-84.649-78.58-142.855-78.58-1.563 0-3.133.029-4.702.072.029-1.295.047-2.591.047-3.891 0-93.25-75.865-169.115-169.115-169.115-53.962 0-104.302 25.593-136.206 68.875-2.458 3.334-1.747 8.029 1.587 10.487s8.029 1.748 10.487-1.587c28.213-38.275 73.444-62.775 124.132-62.775 84.979 0 154.115 69.136 154.115 154.115 0 40.643-15.69 78.996-44.182 107.995-2.903 2.954-2.861 7.703.094 10.605 1.46 1.436 3.358 2.15 5.256 2.15 1.941 0 3.882-.749 5.35-2.244 16.245-16.534 28.687-35.844 36.902-56.834 5.354-.773 10.797-1.188 16.235-1.188 62.004 0 112.447 50.444 112.447 112.448s-50.443 112.448-112.447 112.448-112.449-50.441-112.449-112.444c0-5.262.388-10.532 1.112-15.716 11.995-4.771 23.474-10.942 34.24-18.455 3.397-2.371 4.229-7.046 1.858-10.442s-7.046-4.229-10.443-1.858c-25.92 18.091-56.381 27.653-88.089 27.653-84.979-.001-154.115-69.137-154.115-154.116 0-23.302 5.07-45.69 15.069-66.546 1.791-3.734.215-8.214-3.52-10.005-3.734-1.792-8.215-.215-10.005 3.521-10.978 22.894-16.544 47.466-16.544 73.03 0 93.25 75.865 169.115 169.115 169.115 1.577 0 3.151-.029 4.722-.072-.029 1.298-.067 2.598-.067 3.891 0 93.25 75.865 169.115 169.115 169.115s169.114-75.865 169.114-169.115c.001-21.473-3.973-42.399-11.809-62.199z"/><path d="m169.115 296.981c70.275 0 127.448-57.173 127.448-127.448s-57.173-127.448-127.448-127.448-127.448 57.173-127.448 127.448 57.173 127.448 127.448 127.448zm0-239.896c62.004 0 112.448 50.444 112.448 112.448s-50.444 112.448-112.448 112.448-112.448-50.444-112.448-112.448 50.444-112.448 112.448-112.448z"/><path d="m135.001 222.997c10.091 6.602 16.956 8.514 25.911 8.981v8.83c0 4.143 3.358 7.5 7.5 7.5s7.5-3.357 7.5-7.5v-9.414c17.627-3.326 27.922-17.798 30.194-31.316 2.903-17.27-6.133-32.285-23.021-38.255-2.356-.833-4.769-1.708-7.173-2.62v-37.821c6.203 1.376 9.909 4.527 10.225 4.804 3.046 2.763 7.756 2.556 10.55-.472 2.808-3.045 2.616-7.79-.428-10.599-.446-.41-7.996-7.206-20.346-8.966v-7.892c0-4.143-3.358-7.5-7.5-7.5s-7.5 3.357-7.5 7.5v8.467c-1.245.266-2.512.582-3.808.972-11.106 3.346-19.406 12.855-21.661 24.816-2.053 10.896 1.429 21.396 9.088 27.402 4.132 3.241 9.289 6.209 16.38 9.352v47.695c-6.334-.415-10.599-1.874-17.699-6.519-3.466-2.267-8.115-1.298-10.382 2.171-2.268 3.468-1.296 8.116 2.17 10.384zm18.788-74.883c-3.235-2.538-4.617-7.451-3.604-12.821.926-4.913 4.236-10.841 10.728-13.051v30.372c-2.692-1.432-5.123-2.93-7.124-4.5zm24.297 27.852c14.77 5.221 13.858 17.872 13.228 21.626-1.25 7.436-6.488 15.343-15.402 18.303v-40.708c.717.258 1.43.515 2.174.779z"/><path d="m297.654 337.315c-4.143 0-7.5 3.357-7.5 7.5s3.357 7.5 7.5 7.5h21.57l.425 3.658c1.592 14.243.521 19.826-10.512 34.634l-10.754 13.521c-1.784 2.244-2.134 5.31-.899 7.897s3.836 4.246 6.703 4.271l83.862.742h.067c4.111 0 7.462-3.314 7.499-7.434.036-4.142-3.292-7.529-7.434-7.566l-68.489-.605 1.258-1.581c.048-.062.096-.123.142-.185 12.805-17.167 15.572-26.493 13.46-45.394l-.228-1.959h22.226c4.143 0 7.5-3.357 7.5-7.5s-3.357-7.5-7.5-7.5h-25.568c-2.7-3.885-12.525-18.941-12.467-32.259 0-.01-.001-.02-.001-.03s.001-.019.001-.029c-.028-7.825 3.514-13.801 10.526-17.761 10.115-5.708 25.877-5.771 35.139-.14 7.323 4.451 12.683 10.589 14.336 16.417 1.13 3.984 5.282 6.298 9.262 5.168 3.984-1.13 6.299-5.276 5.168-9.262-2.699-9.516-10.344-18.679-20.974-25.141-13.859-8.427-35.487-8.473-50.306-.104-11.717 6.617-18.157 17.538-18.148 30.758 0 .02-.003.039-.003.058 0 .012.001.025.001.037 0 .007-.001.014-.001.021 0 .008.001.016.001.024-.027 11.952 5.284 24.069 9.828 32.241h-15.69z"/><path d="m362.929 58.458h45.896v57.461l-17.225-14.344c-3.184-2.649-7.912-2.218-10.563.964-2.65 3.184-2.219 7.912.964 10.563l29.524 24.586c1.391 1.157 3.095 1.736 4.8 1.736 1.704 0 3.409-.579 4.799-1.736l29.525-24.586c3.184-2.65 3.615-7.38.965-10.562-2.651-3.186-7.381-3.614-10.562-.965l-17.227 14.345v-64.962c0-4.143-3.357-7.5-7.5-7.5h-53.396c-4.143 0-7.5 3.357-7.5 7.5s3.358 7.5 7.5 7.5z"/><path d="m149.07 454.379h-45.896v-57.461l17.225 14.344c3.182 2.649 7.912 2.219 10.562-.964 2.651-3.184 2.219-7.912-.964-10.563l-29.524-24.586c-2.781-2.314-6.818-2.315-9.599 0l-29.524 24.585c-3.183 2.65-3.615 7.38-.964 10.562 1.483 1.782 3.617 2.701 5.767 2.701 1.692 0 3.394-.569 4.795-1.736l17.226-14.344v64.961c0 4.143 3.358 7.5 7.5 7.5h53.396c4.142 0 7.5-3.357 7.5-7.5s-3.358-7.499-7.5-7.499z"/></g></g></svg>