<svg id="Capa_1" enable-background="new 0 0 512 512" height="512" viewBox="0 0 512 512" width="512" xmlns="http://www.w3.org/2000/svg"><path d="m94.353 378.453c-4.785-.029-9.886-.044-15.347-.044-15.239 0-29.191 6.755-34.821 23.434-19.156 0-34.686 15.53-34.686 34.686s15.529 34.686 34.686 34.686h50.167v-92.762z" fill="#89c627"/><path d="m417.647 378.453c4.785-.029 9.886-.044 15.347-.044 15.239 0 29.191 6.755 34.821 23.434 19.156 0 34.686 15.53 34.686 34.686s-15.529 34.686-34.686 34.686c-9.809 0-37.626 0-50.167 0v-92.762z" fill="#89c627"/><path d="m436.235 469.544h-230.878v-318.869c0-7.189 5.828-13.017 13.017-13.017h204.844c7.189 0 13.017 5.828 13.017 13.017z" fill="#688b96"/><path d="m393.825 232.638h-80.325v-49.5h80.325c3.687 0 6.675 2.989 6.675 6.675v36.15c0 3.686-2.989 6.675-6.675 6.675z" fill="#97e4f9"/><path d="m393.825 324.451h-80.325v-49.5h80.325c3.687 0 6.675 2.989 6.675 6.675v36.15c0 3.686-2.989 6.675-6.675 6.675z" fill="#97e4f9"/><path d="m393.825 416.264h-80.325v-49.5h80.325c3.687 0 6.675 2.989 6.675 6.675v36.15c0 3.687-2.989 6.675-6.675 6.675z" fill="#97e4f9"/><path d="m423.218 137.658h-35.735c7.189 0 13.017 5.828 13.017 13.017v318.869h35.735v-318.869c0-7.19-5.828-13.017-13.017-13.017z" fill="#557981"/><path d="m321.742 469.544h-232.771v-448.74c0-7.189 5.828-13.017 13.017-13.017h206.736c7.189 0 13.017 5.828 13.017 13.017v448.74z" fill="#daeaef"/><path d="m308.725 7.787h-35.681c7.189 0 13.017 5.828 13.017 13.017v448.74h35.681v-448.74c0-7.189-5.828-13.017-13.017-13.017z" fill="#c9e2e7"/><path d="m494.129 458.788h-476.258c-5.728 0-10.371 4.643-10.371 10.371v24.682c0 5.728 4.643 10.371 10.371 10.371h476.258c5.728 0 10.371-4.643 10.371-10.371v-24.682c0-5.727-4.643-10.371-10.371-10.371z" fill="#0e80ac"/><path d="m234.368 361.517h-58.861c-2.405 0-4.354 1.949-4.354 4.354v92.917h67.569v-92.917c0-2.405-1.95-4.354-4.354-4.354z" fill="#557981"/><g fill="#97e4f9"><path d="m217.475 79.584h-25.076c-2.405 0-4.354-1.949-4.354-4.354v-25.076c0-2.405 1.949-4.354 4.354-4.354h25.076c2.405 0 4.354 1.949 4.354 4.354v25.076c.001 2.405-1.949 4.354-4.354 4.354z"/><path d="m281.736 79.584h-25.076c-2.405 0-4.354-1.949-4.354-4.354v-25.076c0-2.405 1.949-4.354 4.354-4.354h25.076c2.405 0 4.354 1.949 4.354 4.354v25.076c0 2.405-1.95 4.354-4.354 4.354z"/><path d="m217.475 158.514h-25.076c-2.405 0-4.354-1.949-4.354-4.354v-25.076c0-2.405 1.949-4.354 4.354-4.354h25.076c2.405 0 4.354 1.949 4.354 4.354v25.076c.001 2.404-1.949 4.354-4.354 4.354z"/><path d="m281.736 158.514h-25.076c-2.405 0-4.354-1.949-4.354-4.354v-25.076c0-2.405 1.949-4.354 4.354-4.354h25.076c2.405 0 4.354 1.949 4.354 4.354v25.076c0 2.404-1.95 4.354-4.354 4.354z"/><path d="m217.475 237.443h-25.076c-2.405 0-4.354-1.949-4.354-4.354v-25.076c0-2.405 1.949-4.354 4.354-4.354h25.076c2.405 0 4.354 1.949 4.354 4.354v25.076c.001 2.404-1.949 4.354-4.354 4.354z"/><path d="m281.736 237.443h-25.076c-2.405 0-4.354-1.949-4.354-4.354v-25.076c0-2.405 1.949-4.354 4.354-4.354h25.076c2.405 0 4.354 1.949 4.354 4.354v25.076c0 2.404-1.95 4.354-4.354 4.354z"/><path d="m217.475 316.372h-25.076c-2.405 0-4.354-1.949-4.354-4.354v-25.076c0-2.405 1.949-4.354 4.354-4.354h25.076c2.405 0 4.354 1.949 4.354 4.354v25.076c.001 2.405-1.949 4.354-4.354 4.354z"/><path d="m281.736 316.372h-25.076c-2.405 0-4.354-1.949-4.354-4.354v-25.076c0-2.405 1.949-4.354 4.354-4.354h25.076c2.405 0 4.354 1.949 4.354 4.354v25.076c0 2.405-1.95 4.354-4.354 4.354z"/><path d="m153.215 79.584h-25.076c-2.405 0-4.354-1.949-4.354-4.354v-25.076c0-2.405 1.949-4.354 4.354-4.354h25.076c2.405 0 4.354 1.949 4.354 4.354v25.076c0 2.405-1.949 4.354-4.354 4.354z"/><path d="m153.215 158.514h-25.076c-2.405 0-4.354-1.949-4.354-4.354v-25.076c0-2.405 1.949-4.354 4.354-4.354h25.076c2.405 0 4.354 1.949 4.354 4.354v25.076c0 2.404-1.949 4.354-4.354 4.354z"/><path d="m153.215 237.443h-25.076c-2.405 0-4.354-1.949-4.354-4.354v-25.076c0-2.405 1.949-4.354 4.354-4.354h25.076c2.405 0 4.354 1.949 4.354 4.354v25.076c0 2.404-1.949 4.354-4.354 4.354z"/><path d="m153.215 316.372h-25.076c-2.405 0-4.354-1.949-4.354-4.354v-25.076c0-2.405 1.949-4.354 4.354-4.354h25.076c2.405 0 4.354 1.949 4.354 4.354v25.076c0 2.405-1.949 4.354-4.354 4.354z"/></g><path d="m192.399 87.084h25.076c6.537 0 11.854-5.317 11.854-11.854v-25.076c0-6.536-5.318-11.854-11.854-11.854h-25.076c-6.537 0-11.854 5.318-11.854 11.854v25.076c0 6.537 5.318 11.854 11.854 11.854zm3.146-33.784h18.785v18.784h-18.785z"/><path d="m256.66 87.084h25.076c6.536 0 11.854-5.317 11.854-11.854v-25.076c0-6.536-5.318-11.854-11.854-11.854h-25.076c-6.537 0-11.854 5.318-11.854 11.854v25.076c-.001 6.537 5.317 11.854 11.854 11.854zm3.145-33.784h18.785v18.784h-18.785z"/><path d="m180.545 154.159c0 6.536 5.318 11.854 11.854 11.854h25.076c6.537 0 11.854-5.318 11.854-11.854v-25.076c0-6.536-5.318-11.854-11.854-11.854h-25.076c-6.537 0-11.854 5.317-11.854 11.854zm15-21.93h18.785v18.784h-18.785z"/><path d="m244.805 154.159c0 6.536 5.318 11.854 11.854 11.854h25.076c6.536 0 11.854-5.318 11.854-11.854v-25.076c0-6.536-5.318-11.854-11.854-11.854h-25.075c-6.537 0-11.854 5.317-11.854 11.854v25.076zm15-21.93h18.785v18.784h-18.785z"/><path d="m180.545 233.089c0 6.536 5.318 11.854 11.854 11.854h25.076c6.537 0 11.854-5.318 11.854-11.854v-25.076c0-6.536-5.318-11.854-11.854-11.854h-25.076c-6.537 0-11.854 5.318-11.854 11.854zm15-21.931h18.785v18.785h-18.785z"/><path d="m244.805 233.089c0 6.536 5.318 11.854 11.854 11.854h25.076c6.536 0 11.854-5.318 11.854-11.854v-25.076c0-6.536-5.318-11.854-11.854-11.854h-25.075c-6.537 0-11.854 5.318-11.854 11.854v25.076zm15-21.931h18.785v18.785h-18.785z"/><path d="m180.545 312.018c0 6.536 5.318 11.854 11.854 11.854h25.076c6.537 0 11.854-5.318 11.854-11.854v-25.075c0-6.536-5.318-11.854-11.854-11.854h-25.076c-6.537 0-11.854 5.318-11.854 11.854zm15-21.93h18.785v18.784h-18.785z"/><path d="m244.805 312.018c0 6.536 5.318 11.854 11.854 11.854h25.076c6.536 0 11.854-5.318 11.854-11.854v-25.075c0-6.536-5.318-11.854-11.854-11.854h-25.075c-6.537 0-11.854 5.318-11.854 11.854v25.075zm15-21.93h18.785v18.784h-18.785z"/><path d="m128.139 87.084h25.076c6.537 0 11.854-5.317 11.854-11.854v-25.076c0-6.536-5.318-11.854-11.854-11.854h-25.076c-6.537 0-11.854 5.318-11.854 11.854v25.076c0 6.537 5.318 11.854 11.854 11.854zm3.146-33.784h18.785v18.784h-18.785z"/><path d="m116.285 154.159c0 6.536 5.318 11.854 11.854 11.854h25.076c6.537 0 11.854-5.318 11.854-11.854v-25.076c0-6.536-5.318-11.854-11.854-11.854h-25.076c-6.537 0-11.854 5.317-11.854 11.854zm15-21.93h18.785v18.784h-18.785z"/><path d="m116.285 233.089c0 6.536 5.318 11.854 11.854 11.854h25.076c6.537 0 11.854-5.318 11.854-11.854v-25.076c0-6.536-5.318-11.854-11.854-11.854h-25.076c-6.537 0-11.854 5.318-11.854 11.854zm15-21.931h18.785v18.785h-18.785z"/><path d="m116.285 312.018c0 6.536 5.318 11.854 11.854 11.854h25.076c6.537 0 11.854-5.318 11.854-11.854v-25.075c0-6.536-5.318-11.854-11.854-11.854h-25.076c-6.537 0-11.854 5.318-11.854 11.854zm15-21.93h18.785v18.784h-18.785z"/><path d="m505.525 455.406c2.914-5.824 4.475-12.288 4.475-18.877 0-21.504-16.175-39.301-36.995-41.868-5.609-11.984-15.918-19.936-29.271-22.675v-98.783c0-4.143-3.357-7.5-7.5-7.5s-7.5 3.357-7.5 7.5v178.085h-99.492v-27.524h64.583c7.816 0 14.175-6.358 14.175-14.175v-36.149c0-7.816-6.358-14.176-14.175-14.176h-64.583v-27.313h64.583c7.816 0 14.175-6.359 14.175-14.176v-36.149c0-7.816-6.358-14.175-14.175-14.175h-64.583v-27.313h64.583c7.816 0 14.175-6.358 14.175-14.175v-36.149c0-7.816-6.358-14.176-14.175-14.176h-64.583v-30.48h93.976c3.042 0 5.517 2.476 5.517 5.518v87.466c0 4.143 3.357 7.5 7.5 7.5s7.5-3.357 7.5-7.5v-87.466c0-11.313-9.204-20.518-20.517-20.518h-93.976v-109.353c0-11.313-9.204-20.518-20.518-20.518h-206.736c-11.313 0-20.517 9.204-20.517 20.518v66.229c0 4.143 3.358 7.5 7.5 7.5s7.5-3.357 7.5-7.5v-66.229c0-3.042 2.475-5.518 5.517-5.518h206.736c3.042 0 5.518 2.476 5.518 5.518v430.483h-68.021v-85.417c0-6.536-5.318-11.854-11.854-11.854h-58.861c-6.536 0-11.854 5.317-11.854 11.854v85.417h-67.181v-329.192c0-4.143-3.358-7.5-7.5-7.5s-7.5 3.357-7.5 7.5v248.814c-.813-.001-1.634-.001-2.465-.001-18.646 0-32.964 8.583-40.019 23.753-20.818 2.569-36.987 20.365-36.987 41.867 0 6.588 1.56 13.053 4.475 18.877-3.953 3.281-6.475 8.227-6.475 13.753v24.683c0 9.854 8.017 17.871 17.871 17.871h476.258c9.854 0 17.871-8.017 17.871-17.871v-24.683c0-5.526-2.522-10.472-6.475-13.753zm-112.525-81.142v34.5h-63.758v-34.5zm0-91.813v34.5h-63.758v-34.5zm0-91.813v34.5h-63.758v-34.5zm50.734 196.788c6.801 2.09 13.594 6.805 16.974 16.816 1.029 3.049 3.889 5.102 7.106 5.102 14.99 0 27.186 12.195 27.186 27.186 0 5.253-1.541 10.383-4.372 14.759h-46.894zm-265.081-18.408h52.569v82.271h-52.569zm-134.467 40.326c3.218 0 6.077-2.053 7.106-5.102 5.115-15.152 17.895-18.333 27.715-18.333.831 0 1.652 0 2.465.001v65.378h-60.1c-2.831-4.376-4.372-9.505-4.372-14.759 0-14.99 12.195-27.185 27.186-27.185zm452.814 84.498c0 1.583-1.288 2.871-2.871 2.871h-476.258c-1.583 0-2.871-1.288-2.871-2.871v-24.683c0-1.543 1.226-2.796 2.754-2.859h.01c.087-.002.176-.007.264-.012h475.944c.088.005.177.01.266.012h.009c1.528.063 2.754 1.316 2.754 2.859v24.683z"/></svg>