<svg id="Capa_1" enable-background="new 0 0 512 512" height="512" viewBox="0 0 512 512" width="512" xmlns="http://www.w3.org/2000/svg"><g><g><path d="m369.896 41.721c-43.003 0-81.204 20.229-105.827 51.635-2.066 2.635-5.067 3.954-8.068 3.954s-6.002-1.318-8.068-3.954c-24.623-31.405-62.824-51.635-105.827-51.635-74.342 0-127.106 60.264-127.106 134.604 0 121.504 167.091 250.283 223.589 288.775 5.261 3.584 11.337 5.179 17.411 5.179 6.074-.001 12.15-1.595 17.411-5.179 56.498-38.492 231.089-167.271 231.089-288.775 0-74.34-60.264-134.604-134.604-134.604z" fill="#e5646e"/><path d="m348.087 266.173c-7.08 0-13.322-4.644-15.357-11.426l-12.832-42.779c-2.294-7.648-13.138-7.606-15.373.059l-39.968 137.032c-2.309 7.916-13.628 7.608-15.502-.423l-42.484-182.076c-1.855-7.952-13.022-8.363-15.458-.57l-27.791 88.932c-2.092 6.693-8.29 11.251-15.303 11.251h-66.533c-20.789-34.084-34.226-69.595-34.226-104.563 0-46.23 21.65-87.332 55.285-113.958-55.03 16.9-95.045 68.103-95.045 128.673 0 121.504 174.591 250.283 231.088 288.775 5.262 3.584 11.337 5.179 17.411 5.179s12.15-1.595 17.411-5.179c1.798-1.225 3.72-2.545 5.748-3.949-41.254-29.403-109.415-82.422-161.194-144.595-8.705-10.453-1.261-26.334 12.342-26.334h17.71c17.529 0 33.025-11.392 38.255-28.123l1.475-4.719c2.436-7.793 13.602-7.382 15.458.57l22.434 96.15c3.349 14.402 15.543 24.36 30.343 24.767l.903.014c14.124.222 26.655-9.023 30.61-22.584l21.089-72.301c1.622-5.561 8.507-7.71 12.832-3.856 7.137 6.36 16.512 10.082 26.667 10.082h113.602c5.505-7.918 10.618-15.944 15.268-24.048h-128.865z" fill="#db4655"/></g><path d="m504.5 258.672h-156.413c-3.797 0-7.081-2.443-8.172-6.081l-12.832-42.779c-1.986-6.621-7.952-11.058-14.859-11.058-.021 0-.042 0-.062 0-6.933.026-12.896 4.516-14.836 11.171l-39.968 137.033c-.076.263-.109.388-.509.371-.398-.011-.426-.132-.488-.398l-42.484-182.076c-1.611-6.905-7.454-11.719-14.539-11.98-7.078-.276-13.266 4.11-15.381 10.877l-27.792 88.932c-1.119 3.581-4.392 5.987-8.144 5.987h-108.601c-16.192-29.276-24.42-56.964-24.42-82.346 0-70.085 57.019-127.104 127.104-127.104 39.207 0 75.628 17.773 99.925 48.762 3.401 4.338 8.494 6.827 13.971 6.827s10.569-2.488 13.971-6.827c24.296-30.989 60.718-48.762 99.925-48.762 70.085 0 127.104 57.018 127.104 127.104 0 17.328-3.838 35.842-11.409 55.03-1.521 3.853.371 8.209 4.224 9.729 3.852 1.52 8.209-.371 9.729-4.224 8.265-20.948 12.456-41.315 12.456-60.535 0-78.356-63.748-142.104-142.104-142.104-43.846 0-84.57 19.867-111.729 54.507-.738.941-1.674 1.082-2.166 1.082s-1.428-.141-2.166-1.082c-27.16-34.64-67.883-54.507-111.729-54.507-78.358 0-142.106 63.747-142.106 142.104 0 25.797 7.543 53.451 22.412 82.348h-14.912c-4.142 0-7.5 3.358-7.5 7.5s3.358 7.5 7.5 7.5h140.52c10.348 0 19.375-6.636 22.461-16.513l27.792-88.932c.079-.251.119-.378.511-.362.394.015.424.143.484.398l42.484 182.076c1.626 6.973 7.529 11.79 14.687 11.985.15.004.299.006.449.006 6.965 0 12.907-4.442 14.87-11.172l39.968-137.033c.069-.238.108-.37.493-.372h.006c.379 0 .419.131.49.368l12.832 42.779c3.009 10.031 12.067 16.771 22.54 16.771h115.605c-52.713 83.324-152.655 156.718-194.503 185.229-3.723 2.536-8.284 3.877-13.188 3.878-4.906-.001-9.467-1.342-13.19-3.878-35.829-24.41-125.162-89.36-180.72-165.072-2.451-3.341-7.146-4.06-10.484-1.61-3.339 2.451-4.06 7.145-1.61 10.484 56.933 77.584 147.9 143.749 184.369 168.594 6.222 4.239 13.702 6.48 21.635 6.481 7.931-.001 15.412-2.243 21.633-6.481 43.958-29.948 150.842-108.566 203.652-197.625h23.214c4.142 0 7.5-3.358 7.5-7.5s-3.358-7.5-7.5-7.5z"/></g></svg>