<svg id="Capa_1" enable-background="new 0 0 512 512" height="512" viewBox="0 0 512 512" width="512" xmlns="http://www.w3.org/2000/svg"><g><g><path d="m178.869 7.5h154.009c5.662 0 10.209 4.693 9.993 10.35-.847 22.167 1.581 66.005 30.154 109.332 33.478 50.764 82.115 69.391 102.684 75.49 4.143 1.229 7.026 4.96 7.168 9.279.908 27.653-1.494 74.166-23.618 125.815-25.898 60.457-65.534 96.937-86.187 113.564h-234.148c-20.652-16.628-60.289-53.107-86.187-113.564-22.202-51.83-24.542-98.487-23.608-126.104.142-4.186 2.856-7.837 6.825-9.175 22.005-7.419 78.432-31.049 110.896-91.813 19.556-36.604 22.408-71.692 22.021-93.034-.101-5.578 4.419-10.14 9.998-10.14z" fill="#335e80"/><path d="m482.878 211.952c-.142-4.319-3.025-8.05-7.168-9.279-20.569-6.1-69.206-24.726-102.684-75.49-28.573-43.327-31.001-87.165-30.154-109.332.216-5.658-4.331-10.35-9.993-10.35h-30c5.662 0 10.209 4.693 9.993 10.35-.847 22.167 1.581 66.005 30.154 109.332 33.478 50.764 82.115 69.391 102.684 75.49 4.143 1.229 7.026 4.959 7.168 9.279.908 27.653-1.494 74.166-23.618 125.815-25.898 60.457-65.534 96.937-86.187 113.564h30c20.652-16.628 60.289-53.107 86.187-113.564 22.124-51.65 24.526-98.163 23.618-125.815z" fill="#235170"/><path d="m369.314 127c-3.973 6.233-8.436 12.063-13.329 17.483 3.327 3.928 6.736 7.604 10.193 11.054 5.164-5.623 9.907-11.648 14.176-18.068-.001-.001-.001-.001-.002-.002-1.285-1.682-2.54-3.379-3.776-5.111-1.756-2.462-3.459-5.006-5.087-7.57-.845.562-1.594 1.302-2.175 2.214z" fill="#fcea9d"/><g><g><path d="m255.999 418.43c-27.004 0-48.974-21.969-48.974-48.974 0-23.588 37.365-67.88 46.82-78.711 1.141-1.307 3.167-1.307 4.308 0 9.456 10.831 46.82 55.123 46.82 78.711 0 27.005-21.97 48.974-48.974 48.974z" fill="#ffe179"/><path d="m258.153 290.745c-1.141-1.307-3.167-1.307-4.308 0-2.611 2.991-7.354 8.54-12.846 15.492 14.399 18.227 33.974 46.144 33.974 63.219 0 21.773-14.286 40.265-33.974 46.615 4.73 1.526 9.769 2.359 15 2.359 27.004 0 48.974-21.969 48.974-48.974 0-23.588-37.364-67.88-46.82-78.711z" fill="#fbd268"/><circle cx="255.999" cy="369.456" fill="#f58a97" r="21.252"/><path d="m255.999 348.204c-4.783 0-9.182 1.599-12.733 4.266 7.493 3.285 12.733 10.758 12.733 19.463 0 6.954-3.355 13.108-8.518 16.985 2.609 1.144 5.487 1.789 8.518 1.789 11.737 0 21.252-9.515 21.252-21.252-.001-11.736-9.515-21.251-21.252-21.251z" fill="#f07281"/></g><circle cx="255.999" cy="195.764" fill="#f58a97" r="16.086"/><path d="m255.999 179.678c-2.71 0-5.26.677-7.5 1.861 5.104 2.697 8.586 8.052 8.586 14.226s-3.482 11.529-8.586 14.226c2.24 1.184 4.79 1.861 7.5 1.861 8.884 0 16.086-7.202 16.086-16.086s-7.202-16.088-16.086-16.088z" fill="#f07281"/></g><g><g><g><path d="m345.999 330.707c-24.813 0-45-20.187-45-45 0-20.878 31.857-59.718 41.963-71.514 1.598-1.866 4.476-1.866 6.074 0 10.106 11.796 41.963 50.636 41.963 71.514 0 24.814-20.187 45-45 45z" fill="#ffe179"/><path d="m349.036 214.194c-1.598-1.866-4.476-1.866-6.074 0-2.742 3.2-7.089 8.401-11.963 14.684 13.089 16.875 30 41.616 30 56.83 0 19.555-12.541 36.228-30 42.42 4.695 1.665 9.742 2.58 15 2.58 24.813 0 45-20.187 45-45 0-20.878-31.857-59.719-41.963-71.514z" fill="#fbd268"/><circle cx="345.999" cy="285.708" fill="#f58a97" r="15"/><path d="m345.999 270.708c-2.735 0-5.292.744-7.5 2.023 4.479 2.595 7.5 7.428 7.5 12.977s-3.021 10.382-7.5 12.977c2.208 1.279 4.765 2.023 7.5 2.023 8.284 0 15-6.716 15-15 0-8.285-6.716-15-15-15z" fill="#f07281"/></g><circle cx="345.999" cy="165.764" fill="#f58a97" r="16.086"/><path d="m345.999 149.678c-2.71 0-5.26.677-7.5 1.861 5.104 2.697 8.586 8.052 8.586 14.226s-3.482 11.529-8.586 14.226c2.24 1.184 4.79 1.861 7.5 1.861 8.884 0 16.086-7.202 16.086-16.086s-7.202-16.088-16.086-16.088z" fill="#f07281"/></g><g><g><path d="m165.999 330.707c-24.813 0-45-20.187-45-45 0-20.878 31.857-59.718 41.963-71.514 1.598-1.866 4.476-1.866 6.074 0 10.106 11.796 41.963 50.636 41.963 71.514 0 24.814-20.187 45-45 45z" fill="#ffe179"/><path d="m169.036 214.194c-1.598-1.866-4.476-1.866-6.074 0-2.742 3.2-7.089 8.401-11.963 14.684 13.089 16.875 30 41.616 30 56.83 0 19.555-12.541 36.228-30 42.42 4.695 1.665 9.742 2.58 15 2.58 24.813 0 45-20.187 45-45 0-20.878-31.857-59.719-41.963-71.514z" fill="#fbd268"/><circle cx="165.999" cy="285.708" fill="#f58a97" r="15"/><path d="m165.999 270.708c-2.735 0-5.292.744-7.5 2.023 4.479 2.595 7.5 7.428 7.5 12.977s-3.021 10.382-7.5 12.977c2.208 1.279 4.765 2.023 7.5 2.023 8.284 0 15-6.716 15-15 0-8.285-6.716-15-15-15z" fill="#f07281"/></g><circle cx="165.999" cy="165.764" fill="#f58a97" r="16.086"/><path d="m165.999 149.678c-2.71 0-5.26.677-7.5 1.861 5.104 2.697 8.586 8.052 8.586 14.226s-3.482 11.529-8.586 14.226c2.24 1.184 4.79 1.861 7.5 1.861 8.884 0 16.086-7.202 16.086-16.086s-7.202-16.088-16.086-16.088z" fill="#f07281"/></g></g><path d="m416.212 504.5h-320.427c-5.523 0-10-4.477-10-10v-40c0-5.523 4.477-10 10-10h320.427c5.523 0 10 4.477 10 10v40c0 5.523-4.477 10-10 10z" fill="#ffe179"/><path d="m416.212 444.5h-30c5.523 0 10 4.477 10 10v40c0 5.523-4.477 10-10 10h30c5.523 0 10-4.477 10-10v-40c0-5.523-4.477-10-10-10z" fill="#fbd268"/></g><path d="m323.499 285.707c0 12.406 10.093 22.5 22.5 22.5s22.5-10.094 22.5-22.5-10.093-22.5-22.5-22.5-22.5 10.094-22.5 22.5zm30 0c0 4.136-3.364 7.5-7.5 7.5s-7.5-3.364-7.5-7.5 3.364-7.5 7.5-7.5 7.5 3.365 7.5 7.5zm-210 0c0 12.406 10.093 22.5 22.5 22.5s22.5-10.094 22.5-22.5-10.093-22.5-22.5-22.5-22.5 10.094-22.5 22.5zm30 0c0 4.136-3.364 7.5-7.5 7.5s-7.5-3.364-7.5-7.5 3.364-7.5 7.5-7.5 7.5 3.365 7.5 7.5zm292.654 55.017c17.296-40.367 25.672-84.981 24.222-129.016-.244-7.552-5.279-14.072-12.534-16.229-80.905-24.048-130.575-97.734-127.478-177.339.38-9.775-7.744-18.183-17.484-18.141h-154.01c-9.651-.056-17.674 8.135-17.499 17.776.241 13.192-.901 26.39-3.393 39.227-.79 4.066 1.867 8.003 5.933 8.792 4.067.794 8.003-1.866 8.792-5.933 2.692-13.867 3.925-28.119 3.665-42.357-.027-1.499.902-2.454 2.501-2.505h154.01c1.644.064 2.554 1.036 2.496 2.565-.884 23.323 2.009 69.044 31.234 113.494-3.245 4.704-6.775 9.177-10.559 13.372-3.051-1.443-6.457-2.254-10.05-2.254-13.005 0-23.586 10.581-23.586 23.586 0 1.734.204 3.419.561 5.048-16.465 9.234-32.698 13.666-45.255 15.759-3.591-8.451-11.974-14.392-21.72-14.392-9.743 0-18.125 5.939-21.718 14.387-12.546-2.086-28.775-6.511-45.258-15.747.358-1.63.562-3.318.562-5.054 0-13.005-10.581-23.586-23.586-23.586-3.591 0-6.994.81-10.044 2.251-4.188-4.648-8.073-9.64-11.612-14.923 3.266-4.942 6.311-10.041 9.12-15.301 3.311-6.194 6.31-12.641 8.917-19.16 1.537-3.847-.334-8.211-4.181-9.748-3.846-1.539-8.21.335-9.748 4.18-2.401 6.009-5.167 11.949-8.218 17.66-30.736 57.543-84.838 80.883-106.658 88.242-6.899 2.312-11.699 8.754-11.943 16.029-1.486 44.149 6.886 88.865 24.212 129.315 18.393 42.927 43.949 74.704 65.78 96.276h-15.839c-9.649 0-17.5 7.851-17.5 17.5v40c0 9.649 7.851 17.5 17.5 17.5h320.427c9.649 0 17.5-7.851 17.5-17.5v-40c0-9.649-7.851-17.5-17.5-17.5h-15.839c21.831-21.57 47.386-53.347 65.78-96.274zm-120.154-183.546c4.734 0 8.586 3.852 8.586 8.586s-3.852 8.587-8.586 8.587-8.586-3.853-8.586-8.587 3.851-8.586 8.586-8.586zm37.5 128.529c0 20.678-16.822 37.5-37.5 37.5s-37.5-16.822-37.5-37.5c0-11.562 14.623-36.252 37.5-63.5 22.876 27.247 37.5 51.938 37.5 63.5zm-127.5-98.529c4.734 0 8.586 3.852 8.586 8.586s-3.852 8.587-8.586 8.587-8.586-3.853-8.586-8.587 3.851-8.586 8.586-8.586zm41.474 182.277c0 22.869-18.605 41.475-41.474 41.475s-41.474-18.605-41.474-41.475c0-9.869 10.876-33.783 41.162-69.359.104.004.207.016.313.016s.208-.011.313-.016c30.283 35.575 41.16 59.49 41.16 69.359zm-131.474-212.277c4.734 0 8.586 3.852 8.586 8.586s-3.852 8.587-8.586 8.587-8.586-3.853-8.586-8.587 3.851-8.586 8.586-8.586zm37.5 128.529c0 20.678-16.822 37.5-37.5 37.5s-37.5-16.822-37.5-37.5c0-11.562 14.623-36.252 37.5-63.5 22.876 27.247 37.5 51.938 37.5 63.5zm133.72 166.293h78.993c1.378 0 2.5 1.121 2.5 2.5v40c0 1.379-1.122 2.5-2.5 2.5h-320.427c-1.378 0-2.5-1.121-2.5-2.5v-40c0-1.379 1.122-2.5 2.5-2.5h206.434c4.142 0 7.5-3.357 7.5-7.5s-3.358-7.5-7.5-7.5h-168.649c-22.653-20.048-53.124-53.608-73.937-102.184-16.465-38.439-24.421-80.939-23.009-122.905.035-1.049.726-1.978 1.731-2.314 12.931-4.361 32.689-12.558 53.385-26.837 16.746-11.555 31.221-25.076 43.294-40.385 3.151 4.348 6.519 8.501 10.085 12.434-1.726 3.276-2.708 7.002-2.708 10.955 0 10.384 6.748 19.216 16.086 22.357v19.977c-.435.375-.854.772-1.233 1.215-38.081 44.449-43.767 66.942-43.767 76.394 0 28.948 23.551 52.5 52.5 52.5s52.5-23.552 52.5-52.5c0-9.451-5.686-31.944-43.766-76.392-.38-.443-.799-.841-1.234-1.217v-19.978c2.891-.973 5.533-2.493 7.804-4.434 19.004 10.723 37.699 15.661 51.841 17.891 1.979 7.769 7.821 14.009 15.355 16.543v67.38c-.1.105-.208.202-.304.312-14.634 16.762-48.67 58.466-48.67 83.644 0 31.141 25.334 56.475 56.474 56.475s56.474-25.334 56.474-56.475c0-25.178-34.037-66.882-48.67-83.644-.096-.11-.204-.207-.304-.312v-67.378c7.534-2.534 13.376-8.775 15.355-16.544 18.393-2.9 36.097-9.012 51.836-17.894 2.272 1.943 4.915 3.465 7.809 4.438v19.977c-.435.375-.854.772-1.233 1.215-38.081 44.449-43.767 66.942-43.767 76.394 0 28.948 23.551 52.5 52.5 52.5s52.5-23.552 52.5-52.5c0-9.451-5.686-31.944-43.766-76.392-.38-.443-.799-.841-1.234-1.217v-19.978c9.339-3.141 16.086-11.973 16.086-22.357 0-3.951-.981-7.675-2.706-10.95 3.151-3.472 6.147-7.111 8.97-10.902 32.546 41.533 74.418 59.037 97.723 65.948 1.048.312 1.775 1.249 1.811 2.338.961 29.188-2.252 74.155-23.018 122.618-20.812 48.576-51.283 82.136-73.936 102.184h-41.208c-4.142 0-7.5 3.357-7.5 7.5s3.358 7.5 7.5 7.5zm-38.507 15h-85.427c-4.142 0-7.5 3.357-7.5 7.5s3.358 7.5 7.5 7.5h85.427c4.142 0 7.5-3.357 7.5-7.5s-3.358-7.5-7.5-7.5zm-71.465-97.545c0 15.854 12.898 28.752 28.751 28.752s28.751-12.898 28.751-28.752-12.898-28.751-28.751-28.751-28.751 12.898-28.751 28.751zm42.503 0c0 7.583-6.169 13.752-13.751 13.752s-13.751-6.169-13.751-13.752c0-7.582 6.169-13.751 13.751-13.751s13.751 6.169 13.751 13.751z"/></g></svg>