<svg id="Capa_1" enable-background="new 0 0 512.032 512.032" height="512" viewBox="0 0 512.032 512.032" width="512" xmlns="http://www.w3.org/2000/svg"><g><g><ellipse cx="181.048" cy="186.423" fill="#d4ef7b" rx="196.395" ry="128.258" transform="matrix(.707 -.707 .707 .707 -78.793 182.622)"/><path d="m338.75 76.406-1.14.519c-1.503.681-2.983 1.401-4.337 2.364l-114.472 80.553c-5.261 3.664-9.496-.086-10.278-.892-.798-.791-4.58-5.026-.892-10.278l80.545-114.457c.971-1.37 1.691-2.849 2.669-4.994l.231-.494c-54.554-22.461-136.676 2.959-200.72 67.004-76.697 76.697-98.268 179.477-48.18 229.564 50.087 50.088 152.867 28.517 229.563-48.18 64.042-64.041 89.462-146.157 67.011-200.709z" fill="#b8eb7c"/><path d="m268.517 20.359c3.575-5.081.277-12.274-5.926-12.62-54.147-3.019-120.772 25.193-175.069 79.49-63.185 63.185-91.044 143.058-75.46 200.534 2.406 8.872 2.987 18.371-.062 27.043-3.946 11.227-1.483 24.177 7.502 33.162s21.935 5.372 33.162 1.425c8.672-3.048 18.171-2.467 27.042-.062 57.476 15.585 137.351-6.198 200.536-69.383 54.297-54.297 82.509-120.922 79.49-175.069-.346-6.203-7.54-9.501-12.62-5.926l-227.563 160.138c-7.352 5.174-16.342-3.817-11.169-11.169z" fill="#ffe09c"/><path d="m112.445 335.575c-9.243-.09-18.138-1.123-26.442-3.379-14.858-4.024-28.745-3.82-41.31.587-2.943 1.026-6.02.352-8.181-1.808-2.176-2.184-2.857-5.253-1.824-8.196 4.415-12.549 4.611-26.444.587-41.31-13.778-50.805 14.052-122.035 69.249-177.239 46.852-46.845 107.378-74.763 155.896-72.364l8.097-11.507c3.575-5.081.277-12.275-5.926-12.621-54.147-3.019-120.772 25.193-175.07 79.49-63.183 63.185-91.043 143.058-75.458 200.535 2.405 8.872 2.986 18.371-.063 27.043-3.945 11.228-1.482 24.177 7.502 33.162 8.986 8.985 21.935 11.448 33.161 7.502 8.672-3.049 18.171-2.467 27.043-.062 10.922 2.962 22.661 4.335 34.934 4.215" fill="#ffd18d"/><ellipse cx="307.847" cy="368.245" fill="#b8eb7c" rx="196.395" ry="128.258"/><path d="m353.337 360.346 137.887-23.978c1.636-.282 3.178-.806 5.401-1.636l.691-.25c-22.698-54.449-98.902-94.496-189.469-94.496-108.466 0-196.395 57.423-196.395 128.258s87.929 128.258 196.395 128.258c90.569 0 166.774-40.049 189.471-94.5l-1.397-.504c-1.519-.571-3.061-1.096-4.681-1.378l-137.895-23.978c-6.325-1.096-6.646-6.771-6.646-7.899s.321-6.801 6.638-7.897z" fill="#98db7c"/><path d="m487.122 312.669c6.121-1.065 8.875-8.483 4.734-13.114-36.153-40.423-103.213-67.585-180.001-67.585-89.357 0-165.535 36.779-195.157 88.441-4.573 7.975-10.878 15.102-19.166 19.079-10.729 5.149-18.144 16.047-18.144 28.754s7.415 23.605 18.144 28.753c8.288 3.977 14.593 11.104 19.166 19.078 29.622 51.662 105.801 88.443 195.158 88.443 76.788 0 143.847-27.162 180.001-67.585 4.142-4.631 1.387-12.05-4.734-13.114l-274.146-47.678c-8.857-1.54-8.857-14.255 0-15.795z" fill="#ffd18d"/><path d="m487.122 423.82-13.874-2.413c-32.562 35.984-95.152 59.064-161.393 59.064-78.063 0-148.11-30.687-174.296-76.349-7.648-13.355-17.621-23.046-29.614-28.8-2.826-1.354-4.509-4-4.509-7.077s1.683-5.715 4.501-7.069c11.985-5.754 21.95-15.437 29.622-28.8 3.491-6.083 7.961-12.102 13.277-17.88 8.744-9.48 9.022-23.675.75-33.187-14.713 11.591-26.653 24.741-34.888 39.103-4.573 7.975-10.878 15.102-19.166 19.079-10.729 5.149-18.144 16.047-18.144 28.754s7.415 23.605 18.144 28.753c8.288 3.977 14.594 11.104 19.166 19.078 29.622 51.662 105.801 88.443 195.158 88.443 76.787 0 143.848-27.162 180.001-67.585 4.14-4.631 1.387-12.05-4.735-13.114z" fill="#fbbd80"/></g><g><path d="m502.104 418.672-5.571-.969c10.159-15.584 15.499-32.548 15.499-49.617 0-17.321-5.208-33.973-15.473-49.621l5.544-.964c2.544-.443 4.683-2.164 5.659-4.555s.653-5.117-.855-7.213c-17.427-24.233-44.672-44.683-78.79-59.139-34.647-14.681-74.827-22.44-116.197-22.44-44.397 0-87.021 8.841-123.263 25.567-35.903 16.569-63.093 39.651-78.63 66.749-4.423 7.714-9.781 13.12-15.924 16.068-13.83 6.636-22.421 20.257-22.421 35.548s8.591 28.913 22.421 35.549c6.144 2.948 11.501 8.354 15.924 16.068 15.537 27.098 42.727 50.18 78.63 66.749 36.243 16.726 78.867 25.567 123.263 25.567 41.37 0 81.55-7.76 116.197-22.44 34.117-14.456 61.362-34.906 78.79-59.139 1.508-2.097 1.831-4.822.855-7.213s-3.114-4.113-5.658-4.555zm-190.184 78.347c-83.901 0-159.806-34.069-188.88-84.777-5.961-10.398-13.514-17.844-22.448-22.13-8.58-4.117-13.91-12.557-13.91-22.025s5.33-17.908 13.91-22.025c8.933-4.286 16.486-11.732 22.448-22.13 29.074-50.708 104.979-84.777 188.88-84.777 72.531 0 139.563 25.48 175.135 65.739l-200.496 34.866c-4.081.71-6.813 4.593-6.104 8.674.71 4.08 4.59 6.814 8.674 6.104l191.086-33.232c11.149 14.763 16.816 30.493 16.816 46.779 0 16.302-5.661 32.025-16.811 46.78l-268.987-46.78 45.793-7.964c4.081-.71 6.813-4.593 6.104-8.674-.71-4.08-4.593-6.814-8.674-6.104l-88.28 15.353c-3.592.625-6.215 3.743-6.215 7.389s2.623 6.764 6.215 7.389l320.878 55.805c-35.57 40.259-102.603 65.74-175.134 65.74z"/><path d="m43.294 350.148c-6.987.433-13.822-2.146-18.764-7.086-6.695-6.695-8.894-16.432-5.738-25.41 3.286-9.348 3.361-19.953.225-31.522-15.298-56.414 14.284-134.178 73.611-193.505 51.288-51.287 116.71-80.659 170.324-77.354l-187.435 266.354c-2.098 2.982-1.748 7.042.831 9.62 2.578 2.579 6.636 2.929 9.62.83l266.347-187.429c1.711 28.168-5.565 60.398-20.982 92.179-1.808 3.727-.252 8.213 3.475 10.021 3.728 1.807 8.213.252 10.021-3.475 19.034-39.237 26.47-79.497 20.938-113.363-.417-2.549-2.115-4.705-4.496-5.705-2.381-1.001-5.109-.706-7.222.781l-4.624 3.254c-3.836-18.203-12.055-33.974-24.125-46.044-12.247-12.247-27.704-20.34-46.028-24.147l3.238-4.602c1.486-2.112 1.781-4.841.78-7.222-1-2.381-3.156-4.08-5.705-4.496-29.457-4.812-63.183-.007-97.53 13.896-34.88 14.118-68.779 37.043-98.032 66.296-31.393 31.393-55.281 67.784-69.082 105.239-13.671 37.103-16.576 72.65-8.401 102.798 2.327 8.582 2.361 16.193.102 22.622-5.087 14.472-1.53 30.179 9.283 40.991 7.401 7.401 17.434 11.528 27.844 11.528.819 0 1.641-.026 2.463-.077 4.134-.259 7.275-3.82 7.017-7.954-.26-4.136-3.833-7.276-7.955-7.018zm271.397-297.247c11.527 11.527 18.642 26.648 21.191 44.966l-223.28 157.123 157.121-223.276c18.324 2.555 33.453 9.671 44.968 21.187z"/></g></g></svg>