<svg id="Capa_1" enable-background="new 0 0 512 512" height="512" viewBox="0 0 512 512" width="512" xmlns="http://www.w3.org/2000/svg"><g><g><path d="m494.734 251.301c-16.482-12.124-51.455-34.341-86.428-34.341-7.761 0-15.488.959-22.958 2.413l-59.407-22.278c-35.367-13.263-73.508-17.386-110.892-11.987l-200.679 28.981c-3.944.57-6.87 3.949-6.87 7.934v42.401c0 10.025 6.218 18.998 15.605 22.518l48.524 18.197h416.839c8.854 0 16.032-7.178 16.032-16.032v-18.444c0-7.663-3.594-14.822-9.766-19.362z" fill="#e5646e"/><path d="m408.306 224.976c-32.321 0-59.682 23.235-63.642 55.269l-172.558-.072c-7.055-.003-13.192-4.653-15.309-11.383-8.225-26.142-32.764-43.814-61.12-43.814-25.43 0-48.735 15.425-58.812 38.647-.589 1.357-2.142 2.008-3.525 1.482-1.078-.41-1.791-1.444-1.791-2.597l-.001-49.742v-1.158l-17.178 2.481c-3.944.569-6.87 3.949-6.87 7.934v42.401c0 10.025 6.218 18.998 15.605 22.518l48.524 18.197h416.839c8.854 0 16.032-7.178 16.032-16.032v-8.016h-19.759c-7.057 0-13.197-4.651-15.316-11.382-8.227-26.142-32.764-44.733-61.119-44.733z" fill="#db4655"/><circle cx="95.677" cy="289.105" fill="#5d5360" r="40.081"/><circle cx="408.306" cy="289.105" fill="#5d5360" r="40.081"/><path d="m161.024 209.109c2.101 5.131 6.767 8.992 12.548 9.818l141.693 20.242c7.889 1.127 15.93-.07 23.083-3.582 5.349-2.626 12.539-5.86 20.861-8.893l25.58-7.53-58.847-22.068c-35.366-13.263-73.508-17.385-110.892-11.987l-59.531 8.597z" fill="#8bb3ea"/></g><g><path d="m96.042 278.062-11.336 11.336c-2.929 2.929-2.929 7.678 0 10.606 1.464 1.464 3.384 2.197 5.303 2.197s3.839-.732 5.303-2.197l11.336-11.336c2.929-2.929 2.929-7.678 0-10.606-2.928-2.929-7.677-2.929-10.606 0z"/><path d="m407.941 278.062c-2.929-2.929-7.678-2.929-10.606 0-2.929 2.929-2.929 7.678 0 10.606l11.336 11.336c1.464 1.464 3.384 2.197 5.303 2.197s3.839-.732 5.303-2.197c2.929-2.929 2.929-7.678 0-10.606z"/><path d="m499.19 245.197c-18.178-13.374-54.156-35.809-90.883-35.809-8.21 0-16.399.95-24.262 2.475l-54.645-21.026c-36.964-14.218-77.222-18.741-116.418-13.079l-206.554 29.828c-3.69.533-6.428 3.695-6.428 7.423v48.675c0 13.601 8.669 25.628 21.572 29.929l28.668 9.556c6.034 19.355 24.121 33.444 45.437 33.444 17.679 0 33.125-9.699 41.328-24.048h229.973c8.203 14.349 23.649 24.048 41.328 24.048s33.125-9.699 41.328-24.048h38.833c12.976 0 23.532-10.557 23.532-23.532v-18.443c.001-10-4.788-19.492-12.809-25.393zm-403.513 76.417c-17.965 0-32.581-14.616-32.581-32.581s14.616-32.581 32.581-32.581 32.581 14.616 32.581 32.581-14.615 32.581-32.581 32.581zm312.63 0c-17.965 0-32.581-14.616-32.581-32.581s14.616-32.581 32.581-32.581 32.581 14.616 32.581 32.581-14.617 32.581-32.581 32.581zm80.161-24.048h-33.362c.504-2.77.781-5.619.781-8.532 0-26.236-21.345-47.581-47.581-47.581-17.679 0-33.125 9.699-41.328 24.048h-173.162c-4.42 0-8.576-1.722-11.702-4.847l-17.004-17.004c-2.929-2.929-7.678-2.929-10.606 0-2.929 2.929-2.929 7.678 0 10.606l17.004 17.004c5.959 5.959 13.881 9.241 22.308 9.241h167.691c-.504 2.77-.781 5.619-.781 8.532s.277 5.762.781 8.532h-219.03c.504-2.77.781-5.619.781-8.532 0-26.236-21.345-47.581-47.581-47.581-25.441 0-46.281 20.072-47.521 45.211l-21.841-7.281c-6.768-2.255-11.315-8.564-11.315-15.698v-42.181l137.307-19.829v1.309c0 11.635 8.686 21.65 20.204 23.296l11.274 1.61c.36.051.717.076 1.07.076 3.672 0 6.881-2.7 7.416-6.44.585-4.101-2.264-7.899-6.364-8.485l-11.273-1.61c-4.176-.597-7.326-4.228-7.326-8.446v-3.475l47.819-6.906c36.661-5.295 74.315-1.065 108.889 12.233l35.593 13.69c-9.969 3.457-18.49 7.272-24.566 10.255-5.743 2.82-12.215 3.82-18.717 2.89l-99.346-14.192c-4.103-.582-7.899 2.264-8.485 6.364-.585 4.101 2.264 7.899 6.364 8.485l99.346 14.192c9.498 1.355 18.99-.122 27.45-4.275 13.583-6.669 40.306-17.858 66.653-17.858 32.444 0 65.297 20.607 81.994 32.892.09.066.175.138.263.206h-10.112c-4.142 0-7.5 3.358-7.5 7.5s3.358 7.5 7.5 7.5h16.547v16.548c0 4.705-3.828 8.533-8.532 8.533z"/></g></g></svg>