<svg id="Capa_1" enable-background="new 0 0 512 512" height="512" viewBox="0 0 512 512" width="512" xmlns="http://www.w3.org/2000/svg"><path d="m7.5 110.537h497v34.346h-497z" fill="#8f818f"/><path d="m470.154 110.537h34.346v34.346h-34.346z" fill="#786e79"/><path d="m23.663 144.882h464.675v359.618h-464.675z" fill="#eaeaea"/><path d="m201.451 395.402h109.098v108.087h-109.098z" fill="#97e4f9"/><path d="m23.663 144.882v18.183h436.39c5.579 0 10.102 4.523 10.102 10.102v331.333h18.183v-359.618z" fill="#cbcbcb"/><path d="m86.293 7.5h339.415v103.037h-339.415z" fill="#fcb143"/><g fill="#97e4f9"><path d="m58.008 185.289h30.305v60.61h-30.305z"/><path d="m240.848 185.289h30.305v60.61h-30.305z"/><path d="m179.901 185.289h30.305v60.61h-30.305z"/><path d="m118.955 185.289h30.305v60.61h-30.305z"/><path d="m423.687 185.289h30.305v60.61h-30.305z"/><path d="m301.794 185.289h30.305v60.61h-30.305z"/><path d="m362.741 185.289h30.305v60.61h-30.305z"/><path d="m58.008 290.346h30.305v60.61h-30.305z"/><path d="m240.848 290.346h30.305v60.61h-30.305z"/><path d="m179.901 290.346h30.305v60.61h-30.305z"/><path d="m118.955 290.346h30.305v60.61h-30.305z"/><path d="m423.687 290.346h30.305v60.61h-30.305z"/><path d="m301.794 290.346h30.305v60.61h-30.305z"/><path d="m362.741 290.346h30.305v60.61h-30.305z"/><path d="m58.008 395.402h30.305v60.61h-30.305z"/><path d="m118.955 395.402h30.305v60.61h-30.305z"/><path d="m423.687 395.402h30.305v60.61h-30.305z"/><path d="m362.741 395.402h30.305v60.61h-30.305z"/></g><path d="m504.5 103.037h-71.292v-95.537c0-4.142-3.358-7.5-7.5-7.5h-38.114c-4.142 0-7.5 3.358-7.5 7.5s3.358 7.5 7.5 7.5h30.614v88.037h-324.416v-88.037h258.708c4.142 0 7.5-3.358 7.5-7.5s-3.358-7.5-7.5-7.5h-266.208c-4.142 0-7.5 3.358-7.5 7.5v95.537h-71.292c-4.142 0-7.5 3.358-7.5 7.5v34.346c0 4.142 3.358 7.5 7.5 7.5h8.663v352.117c0 4.142 3.358 7.5 7.5 7.5h48.837c4.142 0 7.5-3.358 7.5-7.5s-3.358-7.5-7.5-7.5h-41.337v-344.618h392.379c4.142 0 7.5-3.358 7.5-7.5s-3.358-7.5-7.5-7.5h-408.542v-19.346h71.292 339.415 71.293v19.346h-38.5c-4.142 0-7.5 3.358-7.5 7.5s3.358 7.5 7.5 7.5h22.337v344.618h-162.788v-101.598c0-4.142-3.358-7.5-7.5-7.5h-109.098c-4.142 0-7.5 3.358-7.5 7.5v101.598h-86.389c-4.142 0-7.5 3.358-7.5 7.5s3.358 7.5 7.5 7.5h380.775c4.142 0 7.5-3.358 7.5-7.5v-352.118h8.663c4.142 0 7.5-3.358 7.5-7.5v-34.346c0-4.141-3.358-7.499-7.5-7.499zm-201.451 393.963h-39.549v-94.098h39.549zm-94.098-94.098h39.549v94.098h-39.549z"/><path d="m148.923 91.772c4.142 0 7.5-3.358 7.5-7.5v-50.508c0-4.142-3.358-7.5-7.5-7.5s-7.5 3.358-7.5 7.5v17.754h-21.366v-17.754c0-4.142-3.358-7.5-7.5-7.5s-7.5 3.358-7.5 7.5v50.508c0 4.142 3.358 7.5 7.5 7.5s7.5-3.358 7.5-7.5v-17.754h21.366v17.754c0 4.143 3.358 7.5 7.5 7.5z"/><path d="m175.187 26.264c-4.142 0-7.5 3.358-7.5 7.5v50.508c0 4.142 3.358 7.5 7.5 7.5h36.366c4.142 0 7.5-3.358 7.5-7.5v-50.508c0-4.142-3.358-7.5-7.5-7.5zm28.866 50.508h-21.366v-35.508h21.366z"/><path d="m336.813 41.264c4.142 0 7.5-3.358 7.5-7.5s-3.358-7.5-7.5-7.5h-36.366c-4.142 0-7.5 3.358-7.5 7.5v50.508c0 4.142 3.358 7.5 7.5 7.5h36.366c4.142 0 7.5-3.358 7.5-7.5s-3.358-7.5-7.5-7.5h-28.866v-10.254h16.744c4.142 0 7.5-3.358 7.5-7.5s-3.358-7.5-7.5-7.5h-16.744v-10.254z"/><path d="m355.577 33.764v50.508c0 4.142 3.358 7.5 7.5 7.5h36.366c4.142 0 7.5-3.358 7.5-7.5s-3.358-7.5-7.5-7.5h-28.866v-43.008c0-4.142-3.358-7.5-7.5-7.5s-7.5 3.358-7.5 7.5z"/><path d="m256 91.772c4.142 0 7.5-3.358 7.5-7.5v-43.008h10.683c4.142 0 7.5-3.358 7.5-7.5s-3.358-7.5-7.5-7.5h-36.366c-4.142 0-7.5 3.358-7.5 7.5s3.358 7.5 7.5 7.5h10.683v43.008c0 4.143 3.358 7.5 7.5 7.5z"/><path d="m88.313 177.789h-30.305c-4.142 0-7.5 3.358-7.5 7.5v60.61c0 4.142 3.358 7.5 7.5 7.5h30.305c4.142 0 7.5-3.358 7.5-7.5v-60.61c0-4.143-3.358-7.5-7.5-7.5zm-7.5 60.609h-15.305v-45.61h15.305z"/><path d="m240.848 253.398h30.305c4.142 0 7.5-3.358 7.5-7.5v-60.61c0-4.142-3.358-7.5-7.5-7.5h-30.305c-4.142 0-7.5 3.358-7.5 7.5v60.61c0 4.143 3.358 7.5 7.5 7.5zm7.5-60.609h15.305v45.61h-15.305z"/><path d="m179.901 253.398h30.305c4.142 0 7.5-3.358 7.5-7.5v-60.61c0-4.142-3.358-7.5-7.5-7.5h-30.305c-4.142 0-7.5 3.358-7.5 7.5v60.61c0 4.143 3.358 7.5 7.5 7.5zm7.5-60.609h15.305v45.61h-15.305z"/><path d="m118.955 253.398h30.305c4.142 0 7.5-3.358 7.5-7.5v-60.61c0-4.142-3.358-7.5-7.5-7.5h-30.305c-4.142 0-7.5 3.358-7.5 7.5v60.61c0 4.143 3.358 7.5 7.5 7.5zm7.5-60.609h15.305v45.61h-15.305z"/><path d="m423.687 253.398h30.305c4.142 0 7.5-3.358 7.5-7.5v-60.61c0-4.142-3.358-7.5-7.5-7.5h-30.305c-4.142 0-7.5 3.358-7.5 7.5v60.61c0 4.143 3.358 7.5 7.5 7.5zm7.5-60.609h15.305v45.61h-15.305z"/><path d="m301.794 253.398h30.305c4.142 0 7.5-3.358 7.5-7.5v-60.61c0-4.142-3.358-7.5-7.5-7.5h-30.305c-4.142 0-7.5 3.358-7.5 7.5v60.61c0 4.143 3.358 7.5 7.5 7.5zm7.5-60.609h15.305v45.61h-15.305z"/><path d="m362.741 253.398h30.305c4.142 0 7.5-3.358 7.5-7.5v-60.61c0-4.142-3.358-7.5-7.5-7.5h-30.305c-4.142 0-7.5 3.358-7.5 7.5v60.61c0 4.143 3.358 7.5 7.5 7.5zm7.5-60.609h15.305v45.61h-15.305z"/><path d="m88.313 282.846h-30.305c-4.142 0-7.5 3.358-7.5 7.5v60.609c0 4.142 3.358 7.5 7.5 7.5h30.305c4.142 0 7.5-3.358 7.5-7.5v-60.609c0-4.142-3.358-7.5-7.5-7.5zm-7.5 60.609h-15.305v-45.609h15.305z"/><path d="m233.348 350.955c0 4.142 3.358 7.5 7.5 7.5h30.305c4.142 0 7.5-3.358 7.5-7.5v-60.609c0-4.142-3.358-7.5-7.5-7.5h-30.305c-4.142 0-7.5 3.358-7.5 7.5zm15-53.109h15.305v45.609h-15.305z"/><path d="m172.401 350.955c0 4.142 3.358 7.5 7.5 7.5h30.305c4.142 0 7.5-3.358 7.5-7.5v-60.609c0-4.142-3.358-7.5-7.5-7.5h-30.305c-4.142 0-7.5 3.358-7.5 7.5zm15-53.109h15.305v45.609h-15.305z"/><path d="m111.455 350.955c0 4.142 3.358 7.5 7.5 7.5h30.305c4.142 0 7.5-3.358 7.5-7.5v-60.609c0-4.142-3.358-7.5-7.5-7.5h-30.305c-4.142 0-7.5 3.358-7.5 7.5zm15-53.109h15.305v45.609h-15.305z"/><path d="m416.187 350.955c0 4.142 3.358 7.5 7.5 7.5h30.305c4.142 0 7.5-3.358 7.5-7.5v-60.609c0-4.142-3.358-7.5-7.5-7.5h-30.305c-4.142 0-7.5 3.358-7.5 7.5zm15-53.109h15.305v45.609h-15.305z"/><path d="m294.294 350.955c0 4.142 3.358 7.5 7.5 7.5h30.305c4.142 0 7.5-3.358 7.5-7.5v-60.609c0-4.142-3.358-7.5-7.5-7.5h-30.305c-4.142 0-7.5 3.358-7.5 7.5zm15-53.109h15.305v45.609h-15.305z"/><path d="m355.241 350.955c0 4.142 3.358 7.5 7.5 7.5h30.305c4.142 0 7.5-3.358 7.5-7.5v-60.609c0-4.142-3.358-7.5-7.5-7.5h-30.305c-4.142 0-7.5 3.358-7.5 7.5zm15-53.109h15.305v45.609h-15.305z"/><path d="m88.313 387.902h-30.305c-4.142 0-7.5 3.358-7.5 7.5v60.61c0 4.142 3.358 7.5 7.5 7.5h30.305c4.142 0 7.5-3.358 7.5-7.5v-60.61c0-4.142-3.358-7.5-7.5-7.5zm-7.5 60.61h-15.305v-45.61h15.305z"/><path d="m111.455 456.012c0 4.142 3.358 7.5 7.5 7.5h30.305c4.142 0 7.5-3.358 7.5-7.5v-60.61c0-4.142-3.358-7.5-7.5-7.5h-30.305c-4.142 0-7.5 3.358-7.5 7.5zm15-53.11h15.305v45.61h-15.305z"/><path d="m416.187 456.012c0 4.142 3.358 7.5 7.5 7.5h30.305c4.142 0 7.5-3.358 7.5-7.5v-60.61c0-4.142-3.358-7.5-7.5-7.5h-30.305c-4.142 0-7.5 3.358-7.5 7.5zm15-53.11h15.305v45.61h-15.305z"/><path d="m355.241 456.012c0 4.142 3.358 7.5 7.5 7.5h30.305c4.142 0 7.5-3.358 7.5-7.5v-60.61c0-4.142-3.358-7.5-7.5-7.5h-30.305c-4.142 0-7.5 3.358-7.5 7.5zm15-53.11h15.305v45.61h-15.305z"/></svg>