<?xml version="1.0" encoding="iso-8859-1"?>
<!-- Generator: Adobe Illustrator 19.0.0, SVG Export Plug-In . SVG Version: 6.00 Build 0)  -->
<svg version="1.1" id="Capa_1" xmlns="http://www.w3.org/2000/svg" xmlns:xlink="http://www.w3.org/1999/xlink" x="0px" y="0px"
	 viewBox="0 0 512 512" style="enable-background:new 0 0 512 512;" xml:space="preserve">
<path style="fill:#00B8FA;" d="M136.511,318.152l-52.768,43.466l250.549,41.812c9.125,1.706,18.446,2.57,27.708,2.57
	c82.71,0,150-67.29,150-150l-256-60L0,256L136.511,318.152z"/>
<path style="fill:#5CD4FF;" d="M362,106c-9.26,0-18.582,0.865-27.706,2.57L139.19,141.123l29.37,24.193L35.635,212.333l26.89,15.2
	L0,256h512C512,173.29,444.71,106,362,106z"/>
<path style="fill:#EFF6F9;" d="M343.472,323.142l1.046,0.505C354.634,328.526,365.563,331,377,331c41.355,0,75-33.645,75-75l-128-30
	l-128,30L343.472,323.142z"/>
<path style="fill:#FFFFFF;" d="M377,181c-11.437,0-22.366,2.474-32.484,7.354L196,256h256C452,214.645,418.355,181,377,181z"/>
<g>
</g>
<g>
</g>
<g>
</g>
<g>
</g>
<g>
</g>
<g>
</g>
<g>
</g>
<g>
</g>
<g>
</g>
<g>
</g>
<g>
</g>
<g>
</g>
<g>
</g>
<g>
</g>
<g>
</g>
</svg>
