<?xml version="1.0" encoding="iso-8859-1"?>
<!-- Generator: Adobe Illustrator 19.0.0, SVG Export Plug-In . SVG Version: 6.00 Build 0)  -->
<svg version="1.1" id="Capa_1" xmlns="http://www.w3.org/2000/svg" xmlns:xlink="http://www.w3.org/1999/xlink" x="0px" y="0px"
	 viewBox="0 0 512 512" style="enable-background:new 0 0 512 512;" xml:space="preserve">
<g>
	<path style="fill:#00B8FA;" d="M295.114,288.892c37.291,15.772,61.386,52.124,61.386,92.608c0,55.416-45.084,100.5-100.5,100.5
		l-30,15l30,15c71.958,0,130.5-58.542,130.5-130.5c0-52.563-31.283-99.761-79.683-120.232L256,239.705h-30l30,32.59L295.114,288.892
		z"/>
	<path style="fill:#00B8FA;" d="M412.162,156.162c-9.995,0-19.79,1.487-29.115,4.322c2.275-9.716,3.453-19.76,3.453-29.984
		C386.5,58.542,327.958,0,256,0l-30,15l30,15c55.416,0,100.5,45.084,100.5,100.5c0,26.078-9.881,50.659-27.86,69.446l-14.469-14.469
		l-20.079,70.271l70.271-20.079l-14.51-14.51c3.083-3.189,5.985-6.507,8.701-9.944c13.318-15.922,32.852-25.054,53.608-25.054
		C450.671,186.162,482,217.491,482,256s-31.329,69.838-69.838,69.838v30C467.213,355.838,512,311.051,512,256
		S467.213,156.162,412.162,156.162z"/>
</g>
<g>
	<path style="fill:#5CD4FF;" d="M125.5,130.5c0,52.563,31.283,99.761,79.683,120.232L256,272.295v-32.59l-39.114-16.597
		C179.595,207.336,155.5,170.984,155.5,130.5C155.5,75.084,200.584,30,256,30V0C184.042,0,125.5,58.542,125.5,130.5z"/>
	<path style="fill:#5CD4FF;" d="M155.5,381.5c0-26.078,9.881-50.659,27.86-69.446l14.469,14.469l20.079-70.271l-70.271,20.079
		l14.51,14.51c-3.083,3.189-5.985,6.507-8.701,9.944c-13.318,15.923-32.852,25.054-53.608,25.054C61.329,325.838,30,294.509,30,256
		s31.329-69.838,69.838-69.838v-30C44.787,156.162,0,200.949,0,256s44.787,99.838,99.838,99.838c9.995,0,19.79-1.487,29.115-4.322
		c-2.275,9.716-3.453,19.76-3.453,29.984c0,71.958,58.542,130.5,130.5,130.5v-30C200.584,482,155.5,436.916,155.5,381.5z"/>
</g>
<g>
</g>
<g>
</g>
<g>
</g>
<g>
</g>
<g>
</g>
<g>
</g>
<g>
</g>
<g>
</g>
<g>
</g>
<g>
</g>
<g>
</g>
<g>
</g>
<g>
</g>
<g>
</g>
<g>
</g>
</svg>
