<svg clip-rule="evenodd" fill-rule="evenodd" stroke-linejoin="round" stroke-miterlimit="2" viewBox="0 0 510 510" xmlns="http://www.w3.org/2000/svg"><g id="Artboard361"><g><path d="m118.718 33.136c0 4.415-3.585 8-8 8-4.416 0-8-3.585-8-8v-14.136c0-4.415 3.584-8 8-8 4.415 0 8 3.585 8 8zm-46.332 8.13c2.205 3.826.889 8.721-2.937 10.926-3.825 2.205-8.721.889-10.926-2.936l-7.058-12.246c-2.204-3.825-.889-8.721 2.937-10.926 3.825-2.205 8.721-.889 10.926 2.936zm-36.046 30.207c3.823 2.209 5.133 7.107 2.923 10.929-2.209 3.823-7.107 5.133-10.93 2.923l-12.245-7.078c-3.823-2.209-5.133-7.107-2.923-10.929 2.209-3.823 7.107-5.133 10.929-2.923zm126.547-22.209c-2.21 3.823-7.107 5.133-10.93 2.923-3.823-2.209-5.132-7.107-2.923-10.929l7.078-12.246c2.21-3.823 7.107-5.133 10.93-2.923 3.822 2.209 5.132 7.107 2.923 10.93zm30.22 36.058c-3.822 2.213-8.72.906-10.932-2.915s-.906-8.719 2.915-10.932l12.226-7.078c3.821-2.212 8.719-.906 10.931 2.916 2.213 3.821.906 8.719-2.915 10.931z" fill="#ffe177"/><path d="m72.792 358.955c1.785 4.038-.045 8.766-4.083 10.551-4.039 1.785-8.767-.045-10.552-4.083-10.52-23.802-16.366-50.125-16.366-77.803 0-15.914 1.933-31.38 5.576-46.176 1.055-4.287 5.393-6.911 9.68-5.856 4.287 1.056 6.911 5.393 5.856 9.68-3.341 13.571-5.112 27.756-5.112 42.352 0 25.376 5.356 49.512 15.001 71.335zm221.534 95.128c4.155-1.493 8.741.669 10.234 4.824s-.669 8.741-4.824 10.234c-20.349 7.31-42.277 11.296-65.128 11.296-17.443 0-34.347-2.323-50.421-6.673-4.262-1.153-6.786-5.55-5.633-9.812 1.154-4.262 5.55-6.786 9.812-5.632 14.742 3.989 30.245 6.117 46.242 6.117 20.953 0 41.06-3.651 59.718-10.354zm108.266-221.761c-1.381-4.194.902-8.72 5.096-10.102 4.193-1.381 8.72.902 10.101 5.095 6.251 18.975 9.635 39.248 9.635 60.305 0 8.996-.618 17.849-1.813 26.519-.603 4.374-4.643 7.436-9.017 6.833s-7.436-4.644-6.833-9.017c1.097-7.956 1.663-16.08 1.663-24.335 0-19.309-3.1-37.899-8.832-55.298zm-186.015-120.609c-4.392.445-8.321-2.759-8.766-7.152-.446-4.393 2.759-8.321 7.152-8.767 6.46-.655 13.013-.991 19.645-.991 43.511 0 83.675 14.444 115.956 38.793 3.525 2.659 4.229 7.679 1.57 11.204s-7.679 4.229-11.204 1.57c-29.599-22.326-66.427-35.567-106.322-35.567-6.087 0-12.102.308-18.031.91z" fill="#a79ba7"/><g><path d="m127.132 227.836h-32.136v14.788c0 5.356 4.381 9.749 9.749 9.749h12.65c5.356 0 9.737-4.393 9.737-9.749z" fill="#b1b1b5"/><path d="m84.777 208.844.223 14.282c.082 5.356 4.381 9.749 9.749 9.749h32.641c5.356 0 9.819-4.393 9.737-9.749l-.211-14.282c-17.02.54-35.002 0-52.139 0z" fill="#d1d1d6"/><path d="m146.559 193.88c2.878-49.097 24.161-47.112 24.161-80.422 0-33.123-26.851-59.985-59.985-59.985-33.123 0-59.973 26.862-59.973 59.985 0 33.31 21.271 31.325 24.161 80.422 1.292 9.702 6.824 11.886 10.03 11.886 47.734 0 56.191 4.722 61.606-11.886z" fill="#ffe177"/><path d="m95.043 198.472v-65.305h-8.598c-5.309 0-10.125-2.162-13.613-5.65-3.489-3.488-5.662-8.316-5.662-13.613 0-5.309 2.173-10.125 5.662-13.625 3.488-3.488 8.304-5.65 13.613-5.65 5.297 0 10.125 2.162 13.613 5.65 3.489 3.5 5.65 8.316 5.65 13.625v8.598h10.054v-8.598c0-5.309 2.173-10.125 5.661-13.625 3.489-3.488 8.304-5.65 13.613-5.65 5.31 0 10.125 2.162 13.614 5.65 3.488 3.5 5.661 8.316 5.661 13.625 0 5.297-2.173 10.125-5.661 13.613-3.489 3.488-8.304 5.65-13.614 5.65h-8.609v65.305h-10.665v-65.305h-10.054v65.305zm0-75.97v-8.598c0-2.361-.963-4.522-2.526-6.084-1.562-1.562-3.711-2.526-6.072-2.526s-4.51.964-6.073 2.526c-1.562 1.562-2.537 3.723-2.537 6.084s.975 4.51 2.537 6.072c1.563 1.563 3.712 2.526 6.073 2.526zm31.384 0h8.609c2.361 0 4.511-.963 6.073-2.526 1.562-1.562 2.537-3.711 2.537-6.072s-.975-4.522-2.537-6.084-3.712-2.526-6.073-2.526c-2.36 0-4.51.964-6.072 2.526s-2.537 3.723-2.537 6.084z" fill="#ffc338" fill-rule="nonzero"/><path d="m146.559 193.88c2.878-49.097 24.161-47.112 24.161-80.422 0-33.123-26.851-59.985-59.985-59.985-1.116 0-2.22.035-3.324.094 31.572 1.738 56.649 27.884 56.649 59.891 0 33.31-21.283 31.325-24.173 80.422-3.206 9.854-7.493 12.203-20.437 12.474 18.253.27 23.397-1.093 27.109-12.474z" fill="#ffd064"/><path d="m120.719 232.875h6.671c5.356 0 9.819-4.393 9.737-9.749l-.211-14.282c-2.208.07-4.428.117-6.66.164l.211 14.118c.083 5.356-4.381 9.749-9.748 9.749z" fill="#b1b1b5"/><path d="m74.923 193.88v9.749c0 5.367 4.392 9.748 9.748 9.748h52.139c5.356 0 9.749-4.381 9.749-9.748v-9.749z" fill="#eceff1"/><path d="m130.139 213.377h6.671c5.356 0 9.749-4.381 9.749-9.748v-9.749h-6.672v9.749c0 5.367-4.381 9.748-9.748 9.748z" fill="#d1d1d6"/></g><g><path d="m373.501 496.252v-61.221h-23.072v46.872c0 9.423 7.673 17.097 17.097 17.097h3.227c1.517 0 2.748-1.231 2.748-2.748z" fill="#e3a76f"/><path d="m373.501 496.252v-61.221h-23.072 19.845v61.221c0 1.517-1.245 2.748-2.748 2.748h3.227c1.517 0 2.748-1.231 2.748-2.748z" fill="#c48958"/><path d="m483.331 411.53c0-10.149-8.231-18.38-18.38-18.38-.298 0-2.774 0-3.072.013v36.722c.298.013 2.774.026 3.072.026 10.149 0 18.38-8.231 18.38-18.381z" fill="#e3a76f"/><path d="m483.331 411.53c0-10.149-8.231-18.38-18.38-18.38-.298 0-2.774 0-3.072.013v4.238c.298-.013 2.774-.026 3.072-.026 9.436 0 17.214 7.117 18.264 16.268.077-.687.116-1.4.116-2.113z" fill="#c48958"/><path d="m373.501 442.238h-32.691c-17.11 0-31.109-13.999-31.109-31.123 0-17.097 13.999-31.096 31.109-31.096h32.691c27.779-5.717 54.118-22.801 76.478-35.374 3.007-1.685 6.417-1.659 9.398.077 2.981 1.75 4.679 4.706 4.679 8.154v115.261c0 3.538-1.789 6.572-4.887 8.283-3.098 1.698-6.623 1.594-9.618-.298-22.917-14.518-47.377-29.075-76.05-33.884z" fill="#ffe177"/><path d="m310.077 415.899c-.246-1.556-.376-3.15-.376-4.784 0-17.097 13.999-31.096 31.109-31.096h32.691c27.779-5.717 54.118-22.801 76.478-35.374 3.007-1.685 6.417-1.659 9.398.077 2.981 1.75 4.679 4.706 4.679 8.154v115.287-105.721c0-3.448-1.698-6.416-4.679-8.153s-6.391-1.776-9.398-.078c-22.36 12.573-48.699 29.645-76.478 35.361h-32.691c-15.477 0-28.413 11.472-30.733 26.327z" fill="#ffd064"/><path d="m464.056 468.137v-115.261c0-3.448-1.698-6.404-4.679-8.154-2.981-1.736-6.391-1.762-9.398-.077-3.668 2.061-7.453 4.251-11.329 6.494v118.19c3.681 2.243 7.311 4.524 10.901 6.793 2.995 1.892 6.52 1.996 9.618.298 3.098-1.711 4.887-4.745 4.887-8.283z" fill="#837683"/><path d="m464.056 362.429v-9.553c0-3.448-1.698-6.404-4.679-8.154-2.981-1.736-6.391-1.762-9.398-.077-3.668 2.061-7.453 4.251-11.329 6.494v9.553c3.876-2.229 7.661-4.42 11.329-6.481 3.007-1.698 6.417-1.659 9.398.078s4.679 4.705 4.679 8.14z" fill="#685e68"/><path d="m373.501 442.238v-62.219h-32.691c-17.11 0-31.109 13.999-31.109 31.096 0 17.124 13.999 31.123 31.109 31.123z" fill="#837683"/><path d="m373.501 389.572v-9.553h-32.691c-17.11 0-31.109 13.999-31.109 31.096 0 1.634.13 3.228.376 4.784 2.32-14.855 15.256-26.327 30.733-26.327z" fill="#685e68"/></g><g><path d="m344.33 192.961 120.276-120.277c6.523-6.522 17.161-6.522 23.675-.009l4.741 4.741c6.522 6.522 6.513 17.152-.01 23.675l-120.276 120.276-36.068 9.665c-.579.156-1.158 0-1.58-.423-.423-.422-.579-1.001-.423-1.58z" fill="#e3a76f"/><path d="m486.48 71.113c.625.478 1.231.993 1.801 1.562l4.741 4.741c6.522 6.522 6.513 17.152-.01 23.675l-120.276 120.276-36.068 9.665c-1.213.331-2.334-.79-2.003-2.003l2.214-8.314 27.763-7.442 120.277-120.276c5.953-5.953 6.476-15.333 1.561-21.884z" fill="#c48958"/><path d="m334.665 229.029 9.665-36.068 28.406 28.406-36.068 9.665c-1.213.331-2.334-.79-2.003-2.003z" fill="#837683"/><path d="m334.665 229.029 2.214-8.314 27.763-7.442 8.094 8.094-36.068 9.665c-.579.156-1.158 0-1.58-.423-.423-.422-.579-1.001-.423-1.58z" fill="#685e68"/><path d="m454.666 82.625 9.94-9.941c6.523-6.522 17.161-6.522 23.675-.009l4.741 4.741c6.522 6.522 6.513 17.152-.01 23.675l-9.94 9.94z" fill="#837683"/><path d="m486.48 71.113c.625.478 1.231.993 1.801 1.562l4.741 4.741c6.522 6.522 6.513 17.152-.01 23.675l-9.94 9.94-8.094-8.094 9.941-9.94c5.953-5.953 6.476-15.333 1.561-21.884z" fill="#685e68"/></g><g><path d="m284.16 303.373-38.157 31.643 20.467 47.52c.653 1.517 2.751 1.677 3.626.259l13.213-21.281 24.537 5.021c1.641.333 2.961-1.295 2.307-2.825z" fill="#fe646f"/><path d="m284.16 303.373-5.046 4.182 24.192 56.155c.284.666.198 1.345-.123 1.875l4.663.95c1.641.333 2.961-1.295 2.307-2.825zm-18.936 76.264 1.246 2.899c.653 1.517 2.751 1.677 3.626.259l13.213-21.281-6.07-1.246z" fill="#fd4755"/><path d="m227.869 332.561-27.437 58.931c-.703 1.505-2.8 1.604-3.639.16l-12.583-21.65-24.685 4.305c-1.641.284-2.912-1.381-2.208-2.887l27.127-58.289z" fill="#fe646f"/><path d="m227.869 332.561-27.437 58.931c-.703 1.505-2.8 1.604-3.639.16l-12.583-21.65-24.685 4.305c-1.641.284-2.912-1.381-2.208-2.887l1.665-3.589 21.762-3.8 12.583 21.663c.839 1.431 2.936 1.344 3.639-.161l25.734-55.279z" fill="#fd4755"/><path d="m244.141 187.324c16.407 12.274 12.694 10.917 33.148 12.065 7.858.431 14.248 5.785 16.037 13.446 1.702 7.242 2.529 16.371 8.056 21.552l9.585 9.006c5.737 5.378 7.18 13.582 3.627 20.614-9.24 18.283-8.549 14.384-6.119 34.727.938 7.821-3.232 15.038-10.473 18.135-18.838 8.068-15.803 5.526-27.017 22.674-4.306 6.588-12.139 9.437-19.665 7.155-19.627-5.921-15.667-5.921-35.282 0-7.525 2.282-15.359-.567-19.664-7.155-11.214-17.148-8.192-14.606-27.029-22.674-7.23-3.097-11.399-10.314-10.462-18.135 2.431-20.343 3.121-16.444-6.119-34.727-3.552-7.032-2.109-15.236 3.627-20.614 14.94-14.027 12.966-10.597 17.641-30.558 1.789-7.661 8.18-13.015 16.038-13.446 20.454-1.148 16.74.209 33.136-12.065 6.304-4.725 14.643-4.725 20.935 0z" fill="#ecba78"/><path d="m244.141 187.324c16.407 12.274 12.694 10.917 33.148 12.065 7.858.431 14.248 5.785 16.037 13.446 1.702 7.242 2.529 16.371 8.056 21.552l9.585 9.006c5.737 5.378 7.18 13.582 3.627 20.614-9.24 18.283-8.549 14.384-6.119 34.727.938 7.821-3.232 15.038-10.473 18.135-18.838 8.068-15.803 5.526-27.017 22.674-4.182 6.39-11.683 9.265-18.998 7.34 4.009-1.073 7.586-3.602 10.029-7.34 11.214-17.148 8.179-14.606 27.017-22.674 7.241-3.097 11.399-10.314 10.474-18.135-2.443-20.343-3.122-16.444 6.118-34.727 3.553-7.032 2.11-15.236-3.639-20.614l-9.585-9.006c-5.515-5.181-6.353-14.31-8.044-21.552-1.801-7.661-8.179-13.015-16.037-13.446-20.466-1.148-16.741.209-33.148-12.065-1.851-1.394-3.874-2.369-5.983-2.937 5.045-1.381 10.51-.394 14.952 2.937zm-14.952 155.501c-2.998.69-6.859 1.973-13.151 3.873-3.257.987-6.575 1.012-9.635.185.222-.049.444-.111.667-.185 13.323-4.021 15.778-5.317 22.119-3.873z" fill="#e3a76f"/><path d="m233.679 314.512c26.931 0 48.89-21.958 48.89-48.889 0-26.918-21.959-48.877-48.89-48.877-26.93 0-48.889 21.959-48.889 48.877 0 26.931 21.959 48.889 48.889 48.889z" fill="#eceff1"/><path d="m233.679 216.746c1.32 0 2.616.049 3.911.148-25.179 1.999-44.991 23.057-44.991 48.741 0 25.673 19.812 46.731 44.991 48.729-1.295.099-2.591.148-3.911.148-27.004 0-48.889-21.884-48.889-48.877 0-27.004 21.885-48.889 48.889-48.889z" fill="#d1d1d6"/></g><g><path d="m113.611 358.74 15.046 39.583c.423 1.203 1.495 1.95 2.763 2.015l42.313 2.08c2.86.13 4.062 3.77 1.82 5.558l-33.019 26.551c-1.007.78-1.397 2.015-1.072 3.25l11.114 40.883c.748 2.762-2.34 5.004-4.745 3.444l-35.423-23.203c-1.072-.715-2.372-.715-3.445 0l-35.455 23.203c-2.405 1.56-5.493-.682-4.713-3.444l11.115-40.883c.325-1.235-.098-2.47-1.073-3.25l-33.018-26.551c-2.243-1.788-1.073-5.428 1.82-5.558l42.313-2.08c1.267-.065 2.307-.812 2.762-2.015l15.047-39.583c1.007-2.697 4.842-2.697 5.85 0z" fill="#ffe177"/><path d="m160.343 401.768 13.39.65c2.86.13 4.062 3.77 1.82 5.558l-33.019 26.551c-1.007.78-1.397 2.015-1.072 3.25l11.114 40.883c.748 2.762-2.34 5.004-4.745 3.444l-9.164-6.012-10.595-38.965c-.325-1.235.065-2.47 1.073-3.25l33.018-26.551c2.243-1.788 1.073-5.428-1.82-5.558zm-46.732-43.028 15.046 39.583c.423 1.203 1.463 1.95 2.73 2.015l-13.357-.65c-1.267-.065-2.34-.812-2.762-2.014l-11.147-29.347 3.64-9.587c1.007-2.697 4.842-2.697 5.85 0zm-1.203 100.161c-1.072-.715-2.372-.715-3.445 0l-35.455 23.203c-2.405 1.56-5.493-.682-4.713-3.444l.943-3.51 32.043-20.962c1.04-.682 2.34-.682 3.412 0z" fill="#ffd064"/></g></g></g></svg>