<?xml version="1.0" encoding="iso-8859-1"?>
<!-- Generator: Adobe Illustrator 19.0.0, SVG Export Plug-In . SVG Version: 6.00 Build 0)  -->
<svg version="1.1" id="Capa_1" xmlns="http://www.w3.org/2000/svg" xmlns:xlink="http://www.w3.org/1999/xlink" x="0px" y="0px"
	 viewBox="0 0 512 512" style="enable-background:new 0 0 512 512;" xml:space="preserve">
<path style="fill:#00B8FA;" d="M428.959,230.814c0.012-0.772,0.018-1.545,0.018-2.314c0-85.468-69.532-155-155-155
	c-6.069,0-12.067,0.356-17.977,1.038L151,256.519L256,438.5h151c57.897,0,105-47.103,105-105
	C512,283.519,476.562,240.981,428.959,230.814z"/>
<path style="fill:#5CD4FF;" d="M131.077,168.315L81.306,124.18l-8.554,18.064c-14.078,29.729-21.74,61.993-22.582,94.569L0,211.729
	V311c0,70.304,57.196,127.5,127.5,127.5H256V74.538C200.296,80.967,152.618,116.938,131.077,168.315z"/>
<g>
</g>
<g>
</g>
<g>
</g>
<g>
</g>
<g>
</g>
<g>
</g>
<g>
</g>
<g>
</g>
<g>
</g>
<g>
</g>
<g>
</g>
<g>
</g>
<g>
</g>
<g>
</g>
<g>
</g>
</svg>
