<?xml version="1.0" encoding="iso-8859-1"?>
<!-- Generator: Adobe Illustrator 19.0.0, SVG Export Plug-In . SVG Version: 6.00 Build 0)  -->
<svg version="1.1" id="Capa_1" xmlns="http://www.w3.org/2000/svg" xmlns:xlink="http://www.w3.org/1999/xlink" x="0px" y="0px"
	 viewBox="0 0 512 512" style="enable-background:new 0 0 512 512;" xml:space="preserve">
<path style="fill:#009AD2;" d="M482,45V15H351v30h43.043l-7.439,60.506C384.504,122.578,368.2,137,351,137h-49l-75,97.514l75,97.514
	l112.461-43.522c13.628-4.224,26.574-12.308,37.539-23.298v39.113c0,16.542-13.458,30-30,30v30c33.084,0,60-26.916,60-60V75h30V45
	H482z"/>
<path style="fill:#00B8FA;" d="M240,137c-56.846,0-109.342,45.823-117.022,102.148L98.245,420.523C94.809,445.716,70.426,467,45,467
	H0v30h45c40.304,0,77.523-32.489,82.969-72.423L144.684,302H152c16.542,0,30,13.458,30,30v105c0,33.084,26.916,60,60,60h165v-30H242
	c-16.542,0-30-13.458-30-30h15c41.355,0,75-33.645,75-75V137H240z"/>
</svg>
